<?xml version="1.0" encoding="iso-8859-1"?>
<!-- Uploaded to: SVG Repo, www.svgrepo.com, Generator: SVG Repo Mixer Tools -->
<svg fill="#000000" height="800px" width="800px" version="1.1" id="Layer_1" xmlns="http://www.w3.org/2000/svg" xmlns:xlink="http://www.w3.org/1999/xlink" 
	 viewBox="0 0 512 512" xml:space="preserve">
<g>
	<g>
		<path d="M290.208,239.432c-27.996,0-50.773,22.777-50.773,50.773v34.205c0,27.996,22.777,50.773,50.773,50.773
			s50.773-22.777,50.773-50.773v-34.205C340.981,262.208,318.203,239.432,290.208,239.432z M324.947,324.409
			c0,19.155-15.585,34.739-34.739,34.739s-34.739-15.585-34.739-34.739v-34.205c0-19.155,15.585-34.739,34.739-34.739
			c19.155,0,34.739,15.585,34.739,34.739V324.409z"/>
	</g>
</g>
<g>
	<g>
		<path d="M226.613,343.656c-3.54-2.658-8.565-1.944-11.225,1.595c-6.636,8.833-16.768,13.899-27.797,13.899
			c-19.155,0-34.739-15.585-34.739-34.739v-34.205c0-19.155,15.585-34.739,34.739-34.739c11.018,0,21.143,5.057,27.779,13.875
			c2.662,3.538,7.686,4.248,11.226,1.585c3.538-2.663,4.248-7.689,1.585-11.226c-9.693-12.88-24.488-20.267-40.591-20.267
			c-27.996,0-50.773,22.777-50.773,50.773v34.205c0,27.996,22.777,50.773,50.773,50.773c16.119,0,30.923-7.4,40.616-20.302
			C230.866,351.34,230.152,346.315,226.613,343.656z"/>
	</g>
</g>
<g>
	<g>
		<path d="M392.822,376.251h-21.557l19.526-14.644c6.292-4.718,10.048-12.23,10.048-20.095c0-13.851-11.268-25.119-25.119-25.119
			c-13.851,0-25.119,11.268-25.119,25.119c0,4.427,3.589,8.017,8.017,8.017c4.427,0,8.017-3.589,8.017-8.017
			c0-5.01,4.076-9.086,9.086-9.086c5.01,0,9.086,4.076,9.086,9.086c0,2.844-1.359,5.562-3.634,7.269l-23.943,17.958
			c-4.149,3.113-6.627,8.067-6.627,13.254v4.276c0,4.427,3.589,8.017,8.017,8.017h34.205c4.427,0,8.017-3.589,8.017-8.017
			S397.25,376.251,392.822,376.251z"/>
	</g>
</g>
<g>
	<g>
		<path d="M428.699,248.556c-11.043-1.24-22.151-0.464-33.016,2.308c-0.201,0.052-0.337-0.067-0.353-0.095
			c-3.797-13.443-9.608-26.274-17.092-38.059h90.076c22.353,0,41.457-16.736,43.495-38.101c1.133-11.885-2.795-23.737-10.778-32.516
			c-7.989-8.786-19.377-13.826-31.246-13.826c-4.588,0-9.115,0.75-13.458,2.23c-0.112-0.058-0.356-0.235-0.519-0.616
			c-9.396-21.76-30.762-35.82-54.433-35.82c-23.183,0-44.078,13.55-53.733,34.274c-16.962,0.971-31.406,12.07-37.07,27.665
			c-6.175-2.519-12.508-4.622-18.984-6.253c-11.256-23.533-34.973-38.584-61.24-38.584c-3.928,0-7.91,0.358-11.833,1.066
			c-0.402,0.073-0.838-0.119-0.984-0.346c-14.168-21.869-38.148-34.923-64.144-34.923c-30.819,0-58.454,18.393-70.406,46.858
			c-0.152,0.36-0.421,0.544-0.552,0.598c-11.724-4.983-24.646-6.025-37.374-3.011c-21.969,5.202-39.138,22.859-43.741,44.984
			c-3.722,17.892,0.639,36.141,11.965,50.065c8.225,10.112,19.333,17.073,31.663,20.137c-9.248,6.961-17.436,15.26-24.257,24.707
			C7.504,279.551,0.355,300.767,0.014,322.65c-0.466,29.897,10.82,58.085,31.779,79.374c20.963,21.292,48.962,33.018,78.838,33.018
			h304.826c20.274,0,39.738-6.023,56.287-17.418c16.91-11.644,29.18-27.843,35.481-46.848c8.817-26.59,5.19-55.408-9.951-79.063
			C481.964,267.793,456.328,251.659,428.699,248.556z M350.045,144.299c0.12,0.004,0.471,0.052,0.729,0.088
			c0.495,0.067,0.99,0.131,1.492,0.174c3.65,0.309,7.046-1.897,8.248-5.358c6.046-17.41,22.465-29.107,40.859-29.107
			c17.267,0,32.855,10.261,39.712,26.142c3.524,8.161,12.281,12.224,20.368,9.451c2.686-0.921,5.489-1.388,8.329-1.388
			c7.362,0,14.427,3.127,19.383,8.578c5.024,5.525,7.396,12.702,6.681,20.209c-1.261,13.228-13.355,23.59-27.533,23.59H366.455
			c-6.659-7.885-14.141-15.094-22.356-21.408c-6.042-4.643-12.373-8.748-18.935-12.337
			C328.418,152.043,338.414,144.3,350.045,144.299z M25.72,206.333c-8.268-10.165-11.442-23.536-8.707-36.683
			c3.289-15.811,16.043-28.93,31.737-32.646c9.397-2.225,18.892-1.469,27.461,2.187c3.908,1.667,8.257,1.695,12.243,0.08
			c4.157-1.685,7.551-5.056,9.31-9.249c9.445-22.495,31.278-37.03,55.623-37.03c20.538,0,39.487,10.321,50.687,27.608
			c3.708,5.724,10.493,8.631,17.284,7.409c2.987-0.538,6.012-0.811,8.99-0.811c15.78,0,30.356,7.115,40.044,18.898
			c-4.752-0.464-9.55-0.727-14.391-0.727c-25.41,0-50.412,6.677-72.299,19.309c-21.225,12.251-39.139,29.821-51.802,50.814
			c-0.059,0.097-0.238,0.394-0.732,0.298c-20.276-3.923-40.215-2.038-59.268,5.601c-0.749,0.3-1.487,0.624-2.228,0.938H59.324v0.001
			C46.237,222.33,33.989,216.499,25.72,206.333z M492.007,365.729c-10.567,31.867-41.33,53.279-76.55,53.279H110.632
			c-25.547,0-49.487-10.026-67.413-28.233c-17.921-18.202-27.571-42.307-27.173-67.875c0.29-18.581,6.39-36.638,17.64-52.219
			c11.098-15.37,26.377-27.268,44.183-34.409c10.781-4.323,21.589-6.472,32.696-6.472c5.76,0,11.602,0.578,17.558,1.731
			c6.983,1.352,13.851-1.694,17.508-7.758c11.267-18.676,27.204-34.309,46.088-45.208c19.454-11.228,41.683-17.162,64.284-17.162
			c57.363,0,108.311,38.542,123.899,93.726c2.37,8.389,11.226,13.444,19.745,11.273c8.982-2.292,18.155-2.934,27.265-1.911
			c22.873,2.57,44.131,15.977,56.861,35.867C496.477,320.208,499.403,343.425,492.007,365.729z"/>
	</g>
</g>
</svg>