<svg width="167" height="170" viewBox="0 0 167 170" fill="none" xmlns="http://www.w3.org/2000/svg">
<path d="M166 85.6367C166 131.476 131.633 177.066 83 168.637C34.3672 160.207 0 131.476 0 85.6367C0 39.7971 36.3125 16.9022 83 2.63671C129.688 -11.6288 166 39.7971 166 85.6367Z" fill="#E4F5FE"/>
<path d="M120.314 52.5357C120.096 52.8041 119.863 53.0601 119.617 53.3022C119.59 53.3338 119.573 53.3724 119.568 53.4133C119.563 53.4542 119.57 53.4957 119.587 53.5329C119.605 53.5701 119.633 53.6013 119.668 53.623C119.703 53.6446 119.744 53.6557 119.785 53.6549C120.674 53.1097 121.377 52.3079 121.801 51.3553C121.908 51.0333 121.41 50.742 121.249 51.0946C120.828 52.0221 119.233 52.0758 118.812 51.9302C118.754 51.9088 118.69 51.9114 118.634 51.9372C118.578 51.9631 118.534 52.0102 118.513 52.0681C118.491 52.1261 118.494 52.1901 118.52 52.2462C118.546 52.3022 118.593 52.3457 118.651 52.3671C119.185 52.5518 119.754 52.6096 120.314 52.5357ZM117.532 48.6264C117.171 48.9475 116.789 49.2445 116.389 49.5156C116.314 49.5642 116.253 49.6314 116.211 49.7106C116.17 49.7898 116.149 49.8784 116.152 49.9678C116.152 50.2438 117.118 50.9643 117.125 50.972C117.166 51.0021 117.216 51.017 117.266 51.0139C117.317 51.0109 117.365 50.9901 117.401 50.9553C117.438 50.9205 117.461 50.8739 117.467 50.8236C117.472 50.7734 117.46 50.7228 117.432 50.6807C117.378 50.5811 117.072 50.2055 116.88 49.9525C117.746 49.0863 118.137 48.8027 117.846 48.5881C117.797 48.5578 117.739 48.545 117.682 48.552C117.625 48.559 117.572 48.5852 117.532 48.6264ZM116.865 48.1588C117.171 48.0209 117.095 47.6683 117.463 46.7484C117.477 46.7152 117.485 46.6794 117.486 46.6432C117.487 46.6069 117.48 46.5708 117.467 46.537C117.454 46.5032 117.434 46.4723 117.409 46.4461C117.384 46.4199 117.354 46.3989 117.321 46.3843C117.288 46.3697 117.252 46.3618 117.216 46.361C117.179 46.3603 117.143 46.3666 117.109 46.3798C117.076 46.393 117.045 46.4127 117.018 46.4378C116.992 46.4629 116.971 46.4929 116.957 46.5261C116.527 47.423 116.19 47.6069 116.328 47.9212C116.345 47.9742 116.373 48.023 116.41 48.0644C116.447 48.1057 116.492 48.1388 116.543 48.1613C116.594 48.1837 116.648 48.1952 116.704 48.1947C116.76 48.1943 116.814 48.1821 116.865 48.1588ZM120.023 49.1323C120.329 48.9943 120.26 48.6341 120.621 47.7219C120.65 47.6548 120.652 47.5788 120.625 47.5105C120.599 47.4422 120.546 47.3873 120.479 47.3578C120.412 47.3283 120.336 47.3267 120.267 47.3533C120.199 47.3799 120.144 47.4325 120.115 47.4996C119.762 48.2661 119.348 48.5881 119.479 48.8947C119.496 48.9479 119.525 48.9968 119.562 49.0383C119.6 49.0797 119.646 49.1127 119.698 49.1351C119.749 49.1575 119.804 49.1689 119.861 49.1684C119.917 49.1679 119.972 49.1556 120.023 49.1323ZM57.5276 36.2086C57.1597 33.4721 57.2286 33.4108 56.991 33.4108C43.5921 33.4108 44.3049 33.3188 44.3049 33.6024V36.1396C44.3049 36.2469 44.3893 36.3773 44.4966 36.3773C58.0565 36.4232 57.5736 36.4999 57.5276 36.2086ZM61.8125 33.4108C58.1485 33.4108 58.3631 33.4108 58.2788 33.4721C58.1945 33.5334 58.2098 33.4184 58.5624 36.2546C58.5624 36.4922 58.6007 36.4232 61.8125 36.4232C61.8633 36.4232 61.9121 36.4031 61.948 36.3671C61.9839 36.3312 62.0041 36.2824 62.0041 36.2316V33.5947C62.0021 33.5453 61.9811 33.4985 61.9454 33.4642C61.9096 33.4299 61.862 33.4107 61.8125 33.4108ZM128.194 33.4568L123.334 33.794C123.31 33.794 123.287 33.7988 123.265 33.8082C123.243 33.8175 123.223 33.8312 123.207 33.8484C123.19 33.8656 123.177 33.8859 123.169 33.9082C123.161 33.9305 123.157 33.9542 123.158 33.978V36.8755C123.158 36.9263 123.178 36.9751 123.214 37.011C123.25 37.0469 123.299 37.0671 123.35 37.0671H128.202C128.253 37.0671 128.301 37.0469 128.337 37.011C128.373 36.9751 128.393 36.9263 128.393 36.8755C128.393 33.5947 128.478 33.4491 128.194 33.4568ZM46.8268 47.101V44.8398C46.8268 44.7889 46.8066 44.7402 46.7707 44.7042C46.7348 44.6683 46.686 44.6481 46.6352 44.6481H44.7572C44.7064 44.6481 44.6576 44.6683 44.6217 44.7042C44.5857 44.7402 44.5656 44.7889 44.5656 44.8398C44.5656 47.377 44.5656 47.2543 44.6269 47.331C44.6882 47.4076 44.6269 47.3923 46.6429 47.2926C46.6917 47.2889 46.7375 47.2673 46.7714 47.232C46.8054 47.1966 46.8251 47.15 46.8268 47.101ZM57.7729 44.1345C47.2867 44.6788 47.6777 44.5638 47.6777 44.8398C47.6777 47.1853 47.6777 47.0704 47.7313 47.1393C47.785 47.2083 47.1948 47.2007 57.7805 47.0474C57.8314 47.0474 57.8801 47.0272 57.916 46.9912C57.952 46.9553 57.9722 46.9066 57.9722 46.8557V44.3262C57.9734 44.3 57.969 44.2739 57.9592 44.2496C57.9495 44.2253 57.9348 44.2034 57.9159 44.1852C57.897 44.1671 57.8745 44.1532 57.8499 44.1445C57.8252 44.1357 57.799 44.1323 57.7729 44.1345ZM73.3181 44.1269V46.3498C73.3181 46.4006 73.3383 46.4494 73.3742 46.4853C73.4102 46.5213 73.4589 46.5414 73.5098 46.5414C76.1466 46.5414 76.0163 46.5414 76.1006 46.4725C76.1849 46.4035 76.1696 46.4725 75.8247 44.0962C75.8247 43.8663 75.7097 43.9352 73.5251 43.9352C73.4987 43.9331 73.4721 43.9365 73.447 43.9452C73.422 43.9539 73.399 43.9676 73.3796 43.9857C73.3601 44.0037 73.3446 44.0255 73.334 44.0498C73.3234 44.0741 73.318 44.1004 73.3181 44.1269ZM84.6091 46.5031C84.6934 46.4035 84.6704 46.5031 84.4021 44.2495C84.4021 44.0119 84.7854 44.0962 77.2657 43.9582C77.2385 43.958 77.2116 43.9637 77.1867 43.9747C77.1618 43.9857 77.1395 44.0019 77.1214 44.0222C77.1033 44.0425 77.0897 44.0665 77.0815 44.0925C77.0734 44.1184 77.0708 44.1458 77.0741 44.1729C77.3654 46.5644 77.3117 46.5644 77.5417 46.5644C85.0537 46.5644 84.5248 46.6258 84.6091 46.5031ZM86.0042 46.5414C89.2696 46.6334 89.0703 46.6488 89.1546 46.5414C89.239 46.4341 89.216 46.5951 89.216 44.1039C89.214 44.0524 89.1921 44.0036 89.1549 43.9679C89.1178 43.9322 89.0682 43.9122 89.0167 43.9123C85.46 44.0502 85.6669 44.0119 85.5903 44.1039C85.5136 44.1959 85.5366 44.1039 85.8202 46.3498C85.8235 46.3983 85.8438 46.444 85.8774 46.479C85.911 46.5141 85.9559 46.5362 86.0042 46.5414ZM47.6393 56.3377C48.0916 53.5015 48.0916 53.6549 48.0073 53.5629C47.923 53.4709 48.0533 53.4862 45.3704 53.6319C45.3223 53.6357 45.2774 53.6576 45.2447 53.6931C45.212 53.7287 45.194 53.7752 45.1941 53.8235V56.4757C45.1941 56.5265 45.2143 56.5753 45.2502 56.6112C45.2862 56.6471 45.3349 56.6673 45.3857 56.6673L47.4937 56.4987C47.5319 56.4908 47.5666 56.4709 47.5928 56.442C47.619 56.413 47.6353 56.3765 47.6393 56.3377ZM51.2267 56.1691C51.2267 53.3866 51.2267 53.5399 51.1654 53.4556C51.1041 53.3712 51.2114 53.4019 49.0881 53.4939C48.8658 53.4939 48.9118 53.4939 48.6128 56.1461C48.6096 56.1731 48.6121 56.2005 48.6203 56.2265C48.6284 56.2525 48.642 56.2764 48.6601 56.2967C48.6783 56.317 48.7005 56.3332 48.7254 56.3443C48.7503 56.3553 48.7772 56.3609 48.8045 56.3607H51.0351C51.0859 56.3607 51.1346 56.3405 51.1706 56.3046C51.2065 56.2686 51.2267 56.2199 51.2267 56.1691ZM55.0594 53.3559C55.0594 56.1307 55.0594 55.9774 55.113 56.0618C55.1667 56.1461 54.0322 56.1844 73.9313 55.0883C73.958 55.0865 73.984 55.0791 74.0076 55.0667C74.0313 55.0543 74.0521 55.0371 74.0687 55.0161C74.0853 54.9952 74.0973 54.971 74.104 54.9452C74.1107 54.9193 74.112 54.8923 74.1076 54.866L73.6171 51.7385C73.6095 51.6904 73.5839 51.647 73.5454 51.6171C73.507 51.5872 73.4586 51.5731 73.4101 51.5776C54.1472 53.2793 55.0594 53.08 55.0594 53.3559ZM80.5082 54.5977C80.5082 50.9567 80.5082 51.1713 80.4468 51.087C80.3855 51.0027 80.7151 50.9873 74.8895 51.5622C74.8373 51.5698 74.79 51.5971 74.7573 51.6384C74.7245 51.6797 74.7087 51.732 74.7132 51.7845C75.2038 54.9963 75.1425 55.0116 75.3724 55.0116L80.3242 54.7893C80.3737 54.7873 80.4205 54.7663 80.4548 54.7306C80.4891 54.6948 80.5082 54.6472 80.5082 54.5977ZM84.7318 51.225V54.5057C84.7318 54.5565 84.7519 54.6053 84.7879 54.6412C84.8238 54.6771 84.8726 54.6973 84.9234 54.6973H89.8062C89.857 54.6973 89.9058 54.6771 89.9417 54.6412C89.9776 54.6053 89.9978 54.5565 89.9978 54.5057C89.9978 50.7497 89.9978 51.0027 89.9365 50.9183C89.8752 50.834 90.2354 50.8417 84.9157 51.0333C84.8662 51.0353 84.8194 51.0564 84.7851 51.0921C84.7508 51.1278 84.7317 51.1754 84.7318 51.225ZM109.245 41.7123C103.88 42.0419 104.056 41.9346 104.056 42.1952V45.1617C104.056 45.2125 104.076 45.2613 104.112 45.2972C104.148 45.3331 104.197 45.3533 104.248 45.3533H109.261C109.312 45.3533 109.36 45.3331 109.396 45.2972C109.432 45.2613 109.452 45.2125 109.452 45.1617C109.452 41.9039 109.537 41.697 109.245 41.7123ZM49.7166 66.6476C49.9543 62.8609 49.9619 63.1675 49.8853 63.0832C49.8086 62.9989 50.1152 63.0219 45.7307 63.0219C45.6799 63.0219 45.6311 63.0421 45.5952 63.078C45.5592 63.1139 45.539 63.1627 45.539 63.2135V66.6399C45.539 66.6907 45.5592 66.7394 45.5952 66.7754C45.6311 66.8113 45.6799 66.8315 45.7307 66.8315H49.525C49.574 66.8298 49.6206 66.8101 49.6559 66.7761C49.6913 66.7422 49.7129 66.6964 49.7166 66.6476ZM59.7965 62.8072C59.747 62.8092 59.7002 62.8303 59.6659 62.866C59.6316 62.9017 59.6125 62.9493 59.6125 62.9989V65.904C59.6125 65.9548 59.6327 66.0036 59.6687 66.0395C59.7046 66.0755 59.7534 66.0956 59.8042 66.0956H62.8243C62.8751 66.0956 62.9239 66.0755 62.9598 66.0395C62.9958 66.0036 63.0159 65.9548 63.0159 65.904V62.8839C63.014 62.8324 62.9921 62.7836 62.9549 62.7479C62.9178 62.7122 62.8682 62.6922 62.8166 62.6922L59.7965 62.8072ZM77.511 62.217C63.4299 62.5849 64.1504 62.5466 64.1504 62.8226C64.1504 66.0803 64.1504 65.8887 64.2041 65.973C64.2577 66.0573 63.4375 66.065 77.5264 65.7277C77.5752 65.724 77.621 65.7024 77.6549 65.667C77.6889 65.6317 77.7086 65.585 77.7103 65.5361V62.4086C77.7115 62.3825 77.7071 62.3564 77.6974 62.3321C77.6877 62.3078 77.6729 62.2858 77.6541 62.2677C77.6352 62.2496 77.6127 62.2357 77.588 62.2269C77.5634 62.2182 77.5371 62.2148 77.511 62.217ZM89.7449 62.148C89.4229 65.3061 89.4153 65.1145 89.4996 65.2141C89.5839 65.3138 89.0933 65.2755 95.5858 65.2755C95.6177 65.2785 95.6499 65.2734 95.6793 65.2608C95.7088 65.2482 95.7346 65.2284 95.7544 65.2033C95.7742 65.1781 95.7874 65.1484 95.7928 65.1168C95.7982 65.0852 95.7955 65.0528 95.7851 65.0225C95.1106 61.8414 95.1796 61.8261 94.9496 61.8337C89.5839 61.9564 89.7679 61.9104 89.7449 62.148ZM97.2339 65.2371H99.4415C99.4897 65.2373 99.5363 65.2192 99.5718 65.1865C99.6074 65.1538 99.6292 65.109 99.6331 65.0608C99.9551 61.5425 99.9627 61.7647 99.8707 61.6728C99.7788 61.5808 100.009 61.6038 96.429 61.8184C96.4014 61.8209 96.3747 61.8293 96.3507 61.8431C96.3267 61.8569 96.306 61.8758 96.2899 61.8984C96.2739 61.9209 96.263 61.9467 96.2579 61.9739C96.2528 62.0012 96.2536 62.0292 96.2604 62.056C97.1036 65.3291 97.0269 65.2371 97.2339 65.2371ZM67.6994 32.1077C64.8403 34.2463 64.4417 34.4533 64.4264 34.7215C64.4264 35.1278 65.9594 36.4999 66.0131 36.5152C66.0557 36.5385 66.1047 36.5472 66.1527 36.5401C66.2007 36.5329 66.2451 36.5102 66.2789 36.4754C66.3128 36.4406 66.3344 36.3957 66.3404 36.3476C66.3464 36.2994 66.3364 36.2506 66.312 36.2086C66.0744 35.8943 65.4918 35.1048 65.3079 34.8442C65.6835 34.4763 67.2779 33.1272 68.0291 32.5446C68.305 32.33 67.9754 31.9007 67.6994 32.1077ZM78.5229 31.9084C78.4757 31.8714 78.4169 31.8524 78.357 31.8547C78.2972 31.857 78.24 31.8805 78.1959 31.921C78.1517 31.9615 78.1233 32.0163 78.1158 32.0758C78.1083 32.1353 78.1222 32.1955 78.1549 32.2457C78.8414 33.1623 79.4638 34.1254 80.0176 35.1278C80.0176 35.2045 78.8985 36.5689 78.4462 37.2664C78.4152 37.3117 78.4027 37.3671 78.4113 37.4212C78.4198 37.4754 78.4488 37.5242 78.4922 37.5577C78.5356 37.5895 78.5879 37.6066 78.6417 37.6066C78.6954 37.6066 78.7478 37.5895 78.7911 37.5577C79.2204 37.1055 80.4392 35.718 80.6078 35.4574C81.0677 34.7139 79.596 33.0735 78.5229 31.9084ZM70.9265 32.4373C70.7916 32.3935 70.6489 32.3789 70.5079 32.3947C70.3669 32.4105 70.2309 32.4562 70.109 32.5287C69.987 32.6013 69.882 32.6991 69.8009 32.8155C69.7199 32.9319 69.6646 33.0643 69.6388 33.2038C69.5768 33.797 69.5512 34.3935 69.5621 34.9898H68.7956C68.7197 35.0016 68.6505 35.0402 68.6006 35.0985C68.5506 35.1569 68.5232 35.2311 68.5232 35.3079C68.5232 35.3847 68.5506 35.459 68.6006 35.5174C68.6505 35.5757 68.7197 35.6142 68.7956 35.6261L69.6004 35.7487C69.5952 36.1591 69.6234 36.5693 69.6848 36.9751C69.7537 37.3891 70.3363 37.3048 70.3823 36.9215C70.413 36.5542 70.413 36.185 70.3823 35.8177C70.7426 35.8177 71.0952 35.8177 71.1488 35.4651C71.2025 35.1125 70.7426 35.0588 70.3823 35.0282C70.3133 33.4338 70.4743 33.1962 70.5049 33.1578C70.7119 32.9969 71.0415 33.1578 70.7349 33.6407C70.6991 33.6938 70.6854 33.7588 70.6969 33.8219C70.7083 33.8849 70.744 33.9409 70.7962 33.978C71.1642 34.254 71.7544 32.8282 70.9265 32.4373ZM73.4331 34.8979C73.1013 34.9208 72.7684 34.9208 72.4366 34.8979C72.3716 34.8979 72.3092 34.9237 72.2632 34.9697C72.2172 35.0157 72.1913 35.0781 72.1913 35.1431C72.1913 35.2082 72.2172 35.2706 72.2632 35.3166C72.3092 35.3626 72.3716 35.3884 72.4366 35.3884L73.2031 35.4881C73.6247 35.5494 73.3948 35.3808 73.5098 36.4003C73.5098 36.508 73.5525 36.6113 73.6287 36.6875C73.7049 36.7637 73.8083 36.8065 73.916 36.8065C74.0238 36.8065 74.1271 36.7637 74.2033 36.6875C74.2795 36.6113 74.3223 36.508 74.3223 36.4003C74.3178 36.144 74.2999 35.8881 74.2686 35.6337H74.7055C74.8072 35.6337 74.9047 35.5933 74.9765 35.5215C75.0484 35.4496 75.0888 35.3521 75.0888 35.2505C75.0888 35.1488 75.0484 35.0513 74.9765 34.9794C74.9047 34.9076 74.8072 34.8672 74.7055 34.8672C74.0693 34.8672 74.1613 34.9132 74.146 34.7905C74.0846 34.4379 74.0233 34.0777 73.9927 33.7251C73.9927 33.66 73.9668 33.5976 73.9208 33.5516C73.8748 33.5056 73.8124 33.4798 73.7474 33.4798C73.6823 33.4798 73.6199 33.5056 73.5739 33.5516C73.5279 33.5976 73.5021 33.66 73.5021 33.7251C73.4638 34.2156 73.4331 34.7139 73.4331 34.8979Z" fill="black"/>
<path d="M77.3888 34.7444C77.3497 34.4264 77.3267 34.1066 77.3198 33.7862C77.3095 33.7277 77.2788 33.6746 77.2333 33.6363C77.1877 33.5981 77.1301 33.5771 77.0707 33.5771C77.0112 33.5771 76.9536 33.5981 76.908 33.6363C76.8625 33.6746 76.8319 33.7277 76.8215 33.7862C76.8215 34.1312 76.7756 34.4531 76.7449 34.7981C76.4513 34.8163 76.1569 34.8163 75.8634 34.7981C75.7952 34.8092 75.7332 34.8443 75.6885 34.8969C75.6438 34.9496 75.6192 35.0164 75.6192 35.0855C75.6192 35.1546 75.6438 35.2214 75.6885 35.2741C75.7332 35.3267 75.7952 35.3618 75.8634 35.373C76.147 35.373 76.4076 35.4189 76.6989 35.4419C76.6376 36.1165 76.5763 36.7987 77.0898 36.7987C77.6034 36.7987 77.5421 36.1088 77.4808 35.4726C77.9024 35.4726 78.4543 35.4726 78.4389 35.074C78.4236 34.6754 77.8334 34.7061 77.3888 34.7444ZM61.8129 39.2439C60.847 39.4969 60.2798 40.4551 60.1878 41.7965C60.1495 42.908 60.4638 44.3184 59.4903 44.9699C59.4228 45.0151 59.37 45.0792 59.3387 45.1542C59.3073 45.2292 59.2987 45.3117 59.314 45.3915C59.452 46.0661 60.6631 45.1002 60.4178 47.9671C60.3252 48.3316 60.3273 48.7138 60.4239 49.0774C60.5205 49.441 60.7083 49.7738 60.9697 50.0443C61.2113 50.2156 61.4888 50.3294 61.781 50.3772C62.0732 50.425 62.3725 50.4056 62.6561 50.3203C62.7088 50.3068 62.7556 50.2761 62.789 50.2331C62.8224 50.1901 62.8405 50.1371 62.8405 50.0827C62.8405 50.0282 62.8224 49.9753 62.789 49.9323C62.7556 49.8892 62.7088 49.8586 62.6561 49.8451C62.1272 49.7684 61.5139 49.8451 61.238 49.3928C61.004 48.7724 60.9691 48.0946 61.1383 47.4535C61.2151 47.0411 61.1904 46.6162 61.0662 46.2156C60.942 45.8149 60.7221 45.4505 60.4255 45.1539C61.7362 43.5518 60.0652 40.3707 61.9585 39.7269C62.0078 39.6968 62.0456 39.6513 62.0662 39.5974C62.0868 39.5435 62.089 39.4843 62.0723 39.4291C62.0556 39.3739 62.0211 39.3258 61.9742 39.2922C61.9273 39.2587 61.8705 39.2417 61.8129 39.2439ZM71.4328 39.7882C70.8579 39.152 70.0531 39.4586 69.4399 39.3512C69.4041 39.3437 69.3673 39.3433 69.3313 39.35C69.2954 39.3567 69.2612 39.3704 69.2306 39.3903C69.2 39.4102 69.1736 39.436 69.153 39.4661C69.1323 39.4962 69.1178 39.5301 69.1102 39.5659C69.1027 39.6016 69.1023 39.6385 69.109 39.6744C69.1157 39.7103 69.1294 39.7445 69.1493 39.7751C69.1692 39.8057 69.195 39.8321 69.2251 39.8528C69.2552 39.8734 69.2891 39.8879 69.3249 39.8955C69.9688 40.0181 70.6893 39.8342 70.9576 40.4167C71.4635 41.5359 70.306 44.4257 71.3025 45.6521C70.4133 46.7329 71.4712 48.4423 70.674 49.2165C70.3749 49.4811 69.9844 49.6187 69.5855 49.5998C69.5261 49.5893 69.4649 49.601 69.4136 49.6327C69.3624 49.6645 69.3246 49.714 69.3075 49.7719C69.2904 49.8297 69.2953 49.8918 69.3211 49.9463C69.3469 50.0009 69.3919 50.0439 69.4475 50.0673C69.6685 50.1389 69.9013 50.1661 70.1328 50.1473C70.3643 50.1286 70.5898 50.0643 70.7963 49.9582C71.0029 49.8521 71.1864 49.7062 71.3364 49.5289C71.4865 49.3516 71.6 49.1465 71.6705 48.9252C71.7729 48.4762 71.7729 48.0098 71.6705 47.5608C71.4175 45.7288 72.1994 46.227 72.2147 45.6828C72.23 45.1386 71.5018 45.5601 71.6321 43.9734C71.8391 41.8961 72.1074 40.5317 71.4328 39.7882Z" fill="black"/>
<path d="M63.7213 42.8549C63.4764 42.8391 63.2318 42.8907 63.0142 43.0043C62.7966 43.1178 62.6143 43.2888 62.4872 43.4988C62.3068 43.667 62.1727 43.8786 62.0975 44.1135C62.0223 44.3484 62.0087 44.5986 62.0579 44.8402C62.2264 45.2171 62.5197 45.5243 62.8884 45.71C63.257 45.8957 63.6784 45.9486 64.0816 45.8597C63.9053 46.6263 63.6983 46.9789 62.7095 46.7796C62.6407 46.7752 62.5726 46.7954 62.5174 46.8366C62.4621 46.8777 62.4232 46.9371 62.4075 47.0042C62.3919 47.0713 62.4006 47.1418 62.432 47.2031C62.4634 47.2644 62.5156 47.3126 62.5792 47.3391C63.4837 47.5538 64.3422 47.3391 64.6181 46.4806C65.4766 44.3267 64.6181 43.0312 63.7213 42.8549ZM63.4377 45.1545C62.9394 44.9782 62.8168 44.7712 62.7785 44.6179C62.7401 44.4646 62.8474 44.1887 63.0621 43.9357C63.2767 43.6828 63.4147 43.5065 63.6293 43.5908C64.4418 43.9357 64.3575 45.4995 63.4377 45.1775V45.1545ZM67.3546 44.7253C66.0592 44.4953 65.262 46.0284 65.8216 46.7489C66.0905 47.0102 66.4508 47.1563 66.8257 47.1563C67.2007 47.1563 67.5609 47.0102 67.8299 46.7489C67.8299 46.9405 67.8299 47.1552 67.8759 47.2701C67.8776 47.3232 67.899 47.3737 67.9358 47.4119C67.9726 47.4501 68.0223 47.4733 68.0752 47.4771C68.1288 47.4771 68.1803 47.4564 68.2189 47.4192C68.2575 47.382 68.2802 47.3314 68.2822 47.2778C68.2822 46.9865 68.4201 45.6681 68.3895 45.5761C68.3139 45.3516 68.1769 45.1528 67.994 45.0024C67.811 44.852 67.5895 44.756 67.3546 44.7253ZM67.6613 45.6528C67.6613 45.8827 67.3776 46.2507 67.2397 46.3273C66.8564 46.5343 66.4731 46.5189 66.3812 46.381C66.2892 46.243 66.5881 45.3921 67.0557 45.3921C67.232 45.3921 67.6229 45.4688 67.6613 45.6528ZM112.726 33.4649C111.614 33.2656 110.572 34.6837 111.009 35.8795C111.111 36.2246 111.331 36.5228 111.631 36.7218C111.931 36.9208 112.291 37.008 112.649 36.968C114.765 36.7457 114.328 33.7639 112.726 33.4649ZM112.649 36.1938C111.675 36.4237 111.331 35.1896 111.882 34.4767C111.957 34.3692 112.055 34.2802 112.169 34.2164C112.284 34.1527 112.411 34.1158 112.542 34.1088C112.725 34.1418 112.898 34.2172 113.047 34.329C113.196 34.4408 113.317 34.5859 113.4 34.7527C113.491 35.0434 113.464 35.3585 113.323 35.6287C113.182 35.8989 112.94 36.1021 112.649 36.1938ZM117.079 33.7102C117.01 34.2621 116.566 36.3164 116.558 36.853C116.569 36.9411 116.608 37.0233 116.671 37.0864C116.733 37.1495 116.815 37.19 116.903 37.2014C116.991 37.2128 117.08 37.1946 117.156 37.1495C117.233 37.1045 117.292 37.0352 117.325 36.9526C117.447 36.4161 117.524 34.2928 117.585 33.7639C117.647 33.4189 117.125 33.3806 117.079 33.7102ZM114.749 36.6997C114.702 36.686 114.653 36.6827 114.604 36.69C114.556 36.6973 114.51 36.7151 114.469 36.7421C114.428 36.7691 114.394 36.8046 114.368 36.8463C114.342 36.8879 114.326 36.9347 114.32 36.9833C114.251 37.6119 113.5 37.8035 113.737 38.1331C113.77 38.1812 113.82 38.2156 113.876 38.2298C113.933 38.2439 113.992 38.2368 114.044 38.2097C114.27 38.1075 114.471 37.9592 114.636 37.7744C114.801 37.5896 114.926 37.3724 115.002 37.1366C115.015 37.0913 115.018 37.0439 115.012 36.9972C115.007 36.9506 114.991 36.9055 114.968 36.8648C114.944 36.8241 114.913 36.7885 114.875 36.7602C114.838 36.7318 114.795 36.7112 114.749 36.6997ZM109.384 36.1401C109.384 35.9693 109.316 35.8056 109.195 35.6848C109.074 35.5641 108.91 35.4962 108.74 35.4962C108.569 35.4962 108.405 35.5641 108.284 35.6848C108.164 35.8056 108.096 35.9693 108.096 36.1401C108.096 36.3109 108.164 36.4747 108.284 36.5954C108.405 36.7162 108.569 36.784 108.74 36.784C108.91 36.784 109.074 36.7162 109.195 36.5954C109.316 36.4747 109.384 36.3109 109.384 36.1401ZM90.7952 46.0054C90.7952 46.1761 90.863 46.3399 90.9837 46.4607C91.1045 46.5814 91.2683 46.6492 91.439 46.6492C91.6098 46.6492 91.7736 46.5814 91.8943 46.4607C92.0151 46.3399 92.0829 46.1761 92.0829 46.0054C92.0829 45.8346 92.0151 45.6708 91.8943 45.5501C91.7736 45.4293 91.6098 45.3615 91.439 45.3615C91.2683 45.3615 91.1045 45.4293 90.9837 45.5501C90.863 45.6708 90.7952 45.8346 90.7952 46.0054ZM52.093 65.7895C52.1029 65.6996 52.0937 65.6086 52.066 65.5224C52.0383 65.4363 51.9928 65.357 51.9324 65.2896C51.872 65.2222 51.7981 65.1683 51.7155 65.1314C51.6329 65.0946 51.5434 65.0755 51.453 65.0755C51.3625 65.0755 51.273 65.0946 51.1904 65.1314C51.1078 65.1683 51.0339 65.2222 50.9735 65.2896C50.9131 65.357 50.8676 65.4363 50.8399 65.5224C50.8123 65.6086 50.8031 65.6996 50.8129 65.7895C50.8031 65.8795 50.8123 65.9705 50.8399 66.0566C50.8676 66.1427 50.9131 66.2221 50.9735 66.2894C51.0339 66.3568 51.1078 66.4107 51.1904 66.4476C51.273 66.4845 51.3625 66.5036 51.453 66.5036C51.5434 66.5036 51.6329 66.4845 51.7155 66.4476C51.7981 66.4107 51.872 66.3568 51.9324 66.2894C51.9928 66.2221 52.0383 66.1427 52.066 66.0566C52.0937 65.9705 52.1029 65.8795 52.093 65.7895ZM56.6156 65.2453C56.6156 65.416 56.6834 65.5798 56.8041 65.7006C56.9249 65.8213 57.0887 65.8892 57.2594 65.8892C57.4302 65.8892 57.594 65.8213 57.7147 65.7006C57.8355 65.5798 57.9033 65.416 57.9033 65.2453C57.9033 65.0745 57.8355 64.9107 57.7147 64.79C57.594 64.6692 57.4302 64.6014 57.2594 64.6014C57.0887 64.6014 56.9249 64.6692 56.8041 64.79C56.6834 64.9107 56.6156 65.0745 56.6156 65.2453ZM86.4719 63.7429C86.3123 63.7603 86.1647 63.836 86.0575 63.9555C85.9502 64.0751 85.8909 64.23 85.8909 64.3906C85.8909 64.5512 85.9502 64.7061 86.0575 64.8257C86.1647 64.9452 86.3123 65.0209 86.4719 65.0383C86.6316 65.0209 86.7792 64.9452 86.8864 64.8257C86.9936 64.7061 87.0529 64.5512 87.0529 64.3906C87.0529 64.23 86.9936 64.0751 86.8864 63.9555C86.7792 63.836 86.6316 63.7603 86.4719 63.7429ZM93.9609 46.3733C94.0461 46.3754 94.1307 46.3602 94.2098 46.3286C94.2889 46.297 94.3607 46.2496 94.4209 46.1894C94.4811 46.1292 94.5285 46.0574 94.5601 45.9783C94.5917 45.8992 94.6069 45.8145 94.6048 45.7294C94.5874 45.5698 94.5117 45.4222 94.3921 45.315C94.2726 45.2077 94.1177 45.1484 93.9571 45.1484C93.7965 45.1484 93.6416 45.2077 93.522 45.315C93.4025 45.4222 93.3268 45.5698 93.3094 45.7294C93.3072 45.8152 93.3227 45.9005 93.3547 45.9801C93.3868 46.0597 93.4349 46.1319 93.4959 46.1922C93.557 46.2526 93.6297 46.2998 93.7097 46.3309C93.7897 46.362 93.8752 46.3765 93.9609 46.3733ZM52.6449 29.111C52.783 29.0949 52.9104 29.0286 53.0028 28.9247C53.0953 28.8209 53.1463 28.6867 53.1463 28.5476C53.1463 28.4086 53.0953 28.2744 53.0028 28.1705C52.9104 28.0667 52.783 28.0004 52.6449 27.9842C52.5068 28.0004 52.3795 28.0667 52.287 28.1705C52.1946 28.2744 52.1435 28.4086 52.1435 28.5476C52.1435 28.6867 52.1946 28.8209 52.287 28.9247C52.3795 29.0286 52.5068 29.0949 52.6449 29.111ZM55.4734 29.111C55.6115 29.0949 55.7389 29.0286 55.8313 28.9247C55.9238 28.8209 55.9748 28.6867 55.9748 28.5476C55.9748 28.4086 55.9238 28.2744 55.8313 28.1705C55.7389 28.0667 55.6115 28.0004 55.4734 27.9842C55.3353 28.0004 55.208 28.0667 55.1155 28.1705C55.0231 28.2744 54.972 28.4086 54.972 28.5476C54.972 28.6867 55.0231 28.8209 55.1155 28.9247C55.208 29.0286 55.3353 29.0949 55.4734 29.111ZM58.5319 29.1034C58.67 29.0872 58.7973 29.0209 58.8898 28.9171C58.9822 28.8132 59.0333 28.679 59.0333 28.54C59.0333 28.4009 58.9822 28.2667 58.8898 28.1629C58.7973 28.059 58.67 27.9927 58.5319 27.9766C58.3938 27.9927 58.2664 28.059 58.174 28.1629C58.0815 28.2667 58.0305 28.4009 58.0305 28.54C58.0305 28.679 58.0815 28.8132 58.174 28.9171C58.2664 29.0209 58.3938 29.0872 58.5319 29.1034ZM55.7187 60.6154C55.7387 60.5748 55.7478 60.5297 55.7451 60.4845C55.7424 60.4393 55.7279 60.3956 55.7032 60.3577C55.6784 60.3198 55.6442 60.289 55.6039 60.2683C55.5636 60.2477 55.5187 60.2378 55.4734 60.2398C55.2741 60.2398 55.2358 60.4468 55.0825 60.7457C54.017 62.8614 52.5836 65.7282 52.4763 66.1115C52.4477 66.1926 52.4513 66.2816 52.4861 66.3602C52.521 66.4388 52.5846 66.5011 52.6639 66.5344C52.7432 66.5677 52.8322 66.5694 52.9128 66.5392C52.9933 66.5091 53.0593 66.4493 53.0972 66.3721C53.3655 65.9505 55.4504 61.129 55.7187 60.6154ZM57.888 59.9102C57.8652 59.8704 57.8322 59.8373 57.7925 59.8143C57.7528 59.7913 57.7078 59.7792 57.6619 59.7792C57.616 59.7792 57.5709 59.7913 57.5312 59.8143C57.4915 59.8373 57.4586 59.8704 57.4357 59.9102C56.171 62.5394 54.2393 66.2878 54.1627 66.579C54.1514 66.6331 54.1521 66.689 54.1649 66.7427C54.1777 66.7964 54.2022 66.8466 54.2366 66.8898C54.271 66.933 54.3144 66.9681 54.3639 66.9925C54.4134 67.017 54.4677 67.0302 54.5229 67.0313C54.8219 67.0313 54.9215 66.9316 57.5277 61.0064C57.8957 60.2015 58.003 60.0865 57.888 59.9102ZM81.0755 66.3338C80.3276 65.2486 79.9014 63.9743 79.8458 62.6575C79.7902 61.3408 80.1075 60.0351 80.7613 58.8907C80.7979 58.8359 80.8111 58.7687 80.7982 58.704C80.7853 58.6393 80.7472 58.5824 80.6923 58.5458C80.6374 58.5092 80.5702 58.4959 80.5055 58.5089C80.4408 58.5218 80.3839 58.5599 80.3473 58.6148C79.4595 59.7758 79.0104 61.2132 79.0791 62.6731C79.1478 64.1331 79.73 65.5219 80.7229 66.5944C80.7625 66.6231 80.8101 66.6384 80.859 66.6382C80.9079 66.638 80.9554 66.6222 80.9947 66.5932C81.034 66.5641 81.063 66.5233 81.0775 66.4767C81.0921 66.43 81.0914 66.38 81.0755 66.3338Z" fill="black"/>
<path d="M87.4453 58.0773C86.9088 58.2843 88.0432 58.9205 87.8669 62.5769C87.7136 65.643 86.5715 66.6165 86.7555 66.9231C86.7752 66.9516 86.8016 66.9748 86.8323 66.9909C86.863 67.0069 86.8971 67.0153 86.9318 67.0153C86.9664 67.0153 87.0005 67.0069 87.0312 66.9909C87.0619 66.9748 87.0883 66.9516 87.1081 66.9231C87.9257 65.6366 88.4142 64.1686 88.5305 62.6487C88.6468 61.1288 88.3873 59.6036 87.7749 58.2077C87.748 58.1471 87.6984 58.0995 87.6368 58.0751C87.5751 58.0508 87.5064 58.0516 87.4453 58.0773ZM81.2824 62.4312C80.0406 63.3204 81.0908 64.7308 82.3556 64.3782V66.4555C82.3556 66.7698 82.0336 66.9308 81.842 66.6625C81.8052 66.6129 81.7509 66.579 81.6902 66.5676C81.6294 66.5562 81.5666 66.5682 81.5143 66.6011C81.462 66.634 81.4241 66.6855 81.4081 66.7452C81.3921 66.8049 81.3992 66.8684 81.4281 66.9231C81.5195 67.0733 81.6565 67.1905 81.819 67.2576C81.9816 67.3248 82.1613 67.3384 82.3321 67.2966C82.5029 67.2547 82.656 67.1595 82.7691 67.0249C82.8822 66.8902 82.9494 66.723 82.9611 66.5475C82.9611 66.3022 83.1987 62.9448 82.8845 62.5386C82.787 62.4253 82.6679 62.3326 82.5343 62.2658C82.4006 62.199 82.255 62.1595 82.1059 62.1495C81.9568 62.1395 81.8072 62.1593 81.6659 62.2077C81.5245 62.256 81.3942 62.332 81.2824 62.4312ZM82.1793 62.9142C82.2623 62.9992 82.3143 63.1098 82.3268 63.228C82.3393 63.3462 82.3116 63.4651 82.2482 63.5657C82.0796 63.7497 81.4817 63.6884 81.3974 63.3817C81.3131 63.0751 81.9033 62.7225 82.1793 62.9142ZM84.5095 62.3009C84.2458 62.3536 84.0065 62.491 83.828 62.6922C83.6495 62.8934 83.5417 63.1474 83.5208 63.4156C83.5 63.6837 83.5673 63.9513 83.7126 64.1777C83.8579 64.404 84.0731 64.5767 84.3256 64.6695C84.5343 64.7477 84.7628 64.7563 84.9768 64.6941C85.1909 64.632 85.3792 64.5024 85.5137 64.3246C85.5411 64.2764 85.5519 64.2206 85.5445 64.1657C85.5371 64.1108 85.5118 64.0598 85.4727 64.0206C85.4335 63.9815 85.3825 63.9562 85.3276 63.9488C85.2727 63.9414 85.2169 63.9522 85.1687 63.9796C84.9618 64.1023 84.2336 64.1023 84.1799 63.5044C84.1674 63.3858 84.1916 63.2663 84.2492 63.1619C84.3068 63.0575 84.395 62.9733 84.502 62.9206C84.609 62.868 84.7295 62.8494 84.8474 62.8674C84.9652 62.8855 85.0747 62.9392 85.1611 63.0215C85.2149 63.0723 85.2868 63.0996 85.3608 63.0975C85.4349 63.0953 85.505 63.0638 85.5558 63.01C85.6067 62.9561 85.634 62.8842 85.6318 62.8102C85.6297 62.7362 85.5982 62.666 85.5443 62.6152C85.4097 62.4836 85.2454 62.3864 85.0653 62.3317C84.8852 62.277 84.6946 62.2664 84.5095 62.3009ZM47.992 29.3018C48.0678 29.3265 48.1495 29.3265 48.2253 29.3017C48.3011 29.2769 48.3671 29.2286 48.4136 29.1638C48.5899 28.9262 49.0958 26.7492 49.2491 26.228C49.2694 26.1619 49.2627 26.0905 49.2303 26.0294C49.198 25.9683 49.1427 25.9226 49.0766 25.9022C49.0106 25.8819 48.9391 25.8886 48.878 25.921C48.8169 25.9533 48.7712 26.0086 48.7509 26.0747C48.015 28.2286 47.4094 29.1178 47.992 29.3018ZM70.574 99.9299C69.9454 100.641 69.2748 101.315 68.5657 101.946C68.5265 101.984 68.4954 102.03 68.4742 102.081C68.4529 102.132 68.442 102.186 68.442 102.241C68.442 102.296 68.4529 102.35 68.4742 102.401C68.4954 102.452 68.5265 102.498 68.5657 102.536C69.1559 103.065 69.7768 103.548 70.344 104.069C70.3857 104.102 70.4369 104.119 70.4897 104.119C70.5424 104.119 70.5936 104.102 70.6353 104.069C70.6683 104.029 70.6864 103.979 70.6864 103.927C70.6864 103.876 70.6683 103.825 70.6353 103.786C70.2291 103.257 69.8228 102.735 69.3935 102.253C69.9848 101.638 70.5281 100.98 71.0186 100.283C71.2562 99.9836 70.7886 99.654 70.574 99.9299ZM96.5517 102.758C96.6437 102.758 96.5517 102.758 97.5405 102.107C99.3725 100.819 99.5565 100.735 99.5028 100.367C99.4339 99.8303 98.7363 99.7459 96.8583 98.8338C96.7872 98.7941 96.7032 98.7844 96.6248 98.8067C96.5465 98.8289 96.4802 98.8814 96.4406 98.9526C96.4009 99.0237 96.3912 99.1077 96.4134 99.1861C96.4357 99.2644 96.4882 99.3307 96.5594 99.3703C96.912 99.5696 98.0234 100.267 98.4527 100.528C97.3412 101.57 96.3984 102.436 96.3984 102.436C96.3783 102.466 96.3662 102.501 96.3636 102.537C96.3609 102.573 96.3676 102.609 96.3831 102.641C96.3986 102.674 96.4223 102.702 96.4518 102.722C96.4814 102.743 96.5158 102.755 96.5517 102.758ZM91.0174 101.448C92.0445 101.448 93.018 101.279 94.0068 101.233C94.078 101.233 94.1462 101.205 94.1965 101.154C94.2468 101.104 94.2751 101.036 94.2751 100.965C94.2751 100.894 94.2468 100.825 94.1965 100.775C94.1462 100.725 94.078 100.696 94.0068 100.696C93.0027 100.696 92.0445 100.535 91.0174 100.604C90.9055 100.604 90.7983 100.649 90.7192 100.728C90.6402 100.807 90.5958 100.914 90.5958 101.026C90.5958 101.138 90.6402 101.245 90.7192 101.324C90.7983 101.403 90.9055 101.448 91.0174 101.448ZM85.322 101.662C85.8126 101.662 87.9282 101.44 88.1582 101.425C88.2273 101.425 88.2936 101.397 88.3425 101.348C88.3914 101.299 88.4188 101.233 88.4188 101.164C88.4188 101.095 88.3914 101.029 88.3425 100.98C88.2936 100.931 88.2273 100.903 88.1582 100.903C87.9282 100.903 85.8126 100.765 85.322 100.827C85.221 100.84 85.1283 100.89 85.0612 100.967C84.9941 101.044 84.9572 101.143 84.9572 101.245C84.9572 101.346 84.9941 101.445 85.0612 101.522C85.1283 101.599 85.221 101.649 85.322 101.662ZM78.3773 101.172C78.3239 101.173 78.2713 101.184 78.2224 101.206C78.1735 101.227 78.1292 101.258 78.0922 101.296C78.0552 101.335 78.0261 101.38 78.0066 101.43C77.9872 101.479 77.9777 101.532 77.9787 101.586C77.9787 102.038 78.4463 102.015 78.7452 102.015C79.6253 101.975 80.5028 101.89 81.3744 101.762C81.4426 101.751 81.5046 101.716 81.5493 101.663C81.594 101.61 81.6186 101.544 81.6186 101.474C81.6186 101.405 81.594 101.339 81.5493 101.286C81.5046 101.233 81.4426 101.198 81.3744 101.187C80.8608 101.225 78.8679 101.156 78.3773 101.172ZM75.2882 101.593C74.7209 101.593 72.5593 101.494 72.0074 101.593C71.9058 101.593 71.8083 101.634 71.7364 101.706C71.6645 101.777 71.6241 101.875 71.6241 101.977C71.6241 102.078 71.6645 102.176 71.7364 102.248C71.8083 102.319 71.9058 102.36 72.0074 102.36C72.5823 102.436 74.7286 102.222 75.2882 102.199C75.3685 102.199 75.4455 102.167 75.5023 102.11C75.559 102.053 75.5909 101.976 75.5909 101.896C75.5909 101.816 75.559 101.739 75.5023 101.682C75.4455 101.625 75.3685 101.593 75.2882 101.593ZM45.6388 17.7272C45.461 17.5055 45.2299 17.3326 44.9671 17.2246C44.7043 17.1166 44.4184 17.0771 44.1362 17.1098C43.8539 17.1424 43.5846 17.2462 43.3534 17.4113C43.1222 17.5764 42.9367 17.7976 42.8142 18.054C42.6918 18.3103 42.6365 18.5936 42.6534 18.8772C42.6703 19.1609 42.7589 19.4355 42.9109 19.6756C43.0629 19.9156 43.2734 20.1131 43.5226 20.2496C43.7718 20.3861 44.0515 20.4571 44.3356 20.456C44.6541 20.461 44.9672 20.3745 45.2379 20.2067C45.5085 20.0389 45.7254 19.797 45.8626 19.5096C45.9998 19.2223 46.0517 18.9016 46.012 18.5856C45.9723 18.2696 45.8428 17.9717 45.6388 17.7272ZM45.2172 19.2602C45.1205 19.4405 44.97 19.586 44.7867 19.6765C44.6033 19.767 44.3962 19.798 44.1944 19.765C43.9926 19.7321 43.8061 19.6369 43.661 19.4928C43.5159 19.3487 43.4195 19.1629 43.3851 18.9613C43.3484 18.8167 43.3445 18.6657 43.3739 18.5194C43.4032 18.3731 43.4651 18.2353 43.5548 18.1161C43.6446 17.9969 43.76 17.8994 43.8925 17.8307C44.025 17.7621 44.1712 17.7241 44.3203 17.7195C44.4942 17.7342 44.6618 17.791 44.8088 17.8851C44.9557 17.9792 45.0775 18.1077 45.1636 18.2594C45.2496 18.4112 45.2974 18.5817 45.3027 18.756C45.3081 18.9304 45.2708 19.1035 45.1942 19.2602H45.2172ZM52.8595 17.9188C52.6385 17.63 52.3291 17.4216 51.9784 17.3254C51.6277 17.2292 51.2552 17.2506 50.9179 17.3862C50.5805 17.5218 50.2969 17.7643 50.1104 18.0764C49.9239 18.3886 49.8449 18.7532 49.8853 19.1146C49.9196 19.4766 50.0683 19.8183 50.3101 20.09C50.5518 20.3617 50.8739 20.5492 51.2295 20.6253C51.5851 20.7013 51.9557 20.662 52.2874 20.513C52.6192 20.3641 52.8947 20.1132 53.0741 19.7968C53.2083 19.4929 53.2592 19.1588 53.2215 18.8287C53.1838 18.4986 53.0588 18.1846 52.8595 17.9188ZM51.0198 18.0798C51.2113 17.9538 51.4414 17.9001 51.6689 17.9282C51.8964 17.9563 52.1064 18.0643 52.2616 18.2331C52.4044 18.4013 52.4962 18.6069 52.5261 18.8255C52.5559 19.0442 52.5227 19.2668 52.4302 19.4672C52.3323 19.6394 52.185 19.7782 52.0074 19.8656C51.8297 19.9531 51.6298 19.9852 51.4337 19.9578C51.2304 19.9233 51.0418 19.8294 50.8919 19.6878C50.742 19.5462 50.6375 19.3633 50.5915 19.1622C50.5456 18.9612 50.5603 18.751 50.6338 18.5584C50.7073 18.3657 50.8363 18.1991 51.0045 18.0798H51.0198ZM60.0572 18.1181C59.8797 17.8967 59.6489 17.7239 59.3864 17.6159C59.124 17.5079 58.8385 17.4682 58.5565 17.5005C58.2746 17.5327 58.0054 17.636 57.7742 17.8006C57.5429 17.9651 57.3572 18.1856 57.2343 18.4414C57.1115 18.6972 57.0554 18.98 57.0715 19.2634C57.0876 19.5467 57.1752 19.8214 57.3263 20.0616C57.4773 20.3019 57.6868 20.5 57.9352 20.6373C58.1835 20.7746 58.4626 20.8468 58.7464 20.847C59.0655 20.8534 59.3797 20.768 59.6515 20.6008C59.9233 20.4336 60.1413 20.1918 60.2795 19.9041C60.4177 19.6165 60.4702 19.2951 60.4308 18.9784C60.3914 18.6618 60.2617 18.3631 60.0572 18.1181ZM59.6279 19.6512C59.537 19.7971 59.4101 19.9172 59.2594 20C59.1086 20.0828 58.9392 20.1256 58.7672 20.1241C58.5953 20.1226 58.4266 20.077 58.2773 19.9917C58.1281 19.9063 58.0032 19.7841 57.9147 19.6366C57.8263 19.4892 57.7771 19.3215 57.7721 19.1496C57.767 18.9777 57.8061 18.8074 57.8858 18.655C57.9654 18.5026 58.0828 18.3732 58.2268 18.2792C58.3708 18.1852 58.5365 18.1297 58.7081 18.1181C58.8857 18.1243 59.0589 18.1748 59.2119 18.2651C59.365 18.3553 59.4931 18.4824 59.5845 18.6347C59.6759 18.7871 59.7278 18.9599 59.7354 19.1374C59.7429 19.315 59.706 19.4916 59.6279 19.6512Z" fill="black"/>
<path d="M125.427 30.8888C125.646 30.4423 125.746 29.9472 125.72 29.4508C125.693 28.9543 125.539 28.473 125.274 28.0527C124.653 27.1328 123.404 27.1635 122.399 27.1865C119.295 27.2631 46.4209 25.0325 46.3442 25.0249C45.8998 24.9176 45.4312 24.9834 45.0334 25.2088C43.8147 26.098 43.853 29.2638 45.2251 30.061C45.6307 30.2438 46.0807 30.3051 46.5205 30.2373L123.051 32.2839C123.535 32.2823 124.01 32.1524 124.427 31.9073C124.845 31.6622 125.19 31.3108 125.427 30.8888ZM50.6751 25.9984C50.2579 26.971 49.9121 27.9727 49.6403 28.9955C49.6382 29.0411 49.6454 29.0866 49.6614 29.1293C49.6774 29.172 49.702 29.211 49.7335 29.244C49.765 29.2769 49.8029 29.3031 49.8448 29.321C49.8868 29.3389 49.9319 29.3481 49.9776 29.3481C50.3225 29.3481 50.3838 29.0338 50.9051 27.1482C51.1887 26.0903 51.2653 26.0597 51.1274 25.914C62.1117 26.259 123.013 27.953 123.135 27.9607C124.078 27.9607 124.592 28.252 124.799 28.7962C124.955 29.1633 124.998 29.5686 124.923 29.9604C124.848 30.3522 124.658 30.7128 124.377 30.9961C124.038 31.2336 123.656 31.4019 123.252 31.4913C122.849 31.5808 122.431 31.5896 122.024 31.5174C117.555 31.3641 45.8076 29.5321 45.731 29.5167C44.7268 29.2714 44.6425 26.9029 45.2557 25.9754C45.478 25.6458 45.8153 25.6611 46.3442 25.7301C51.3267 25.9754 50.7441 25.7991 50.6751 25.9984ZM75.9093 71.5686C75.9093 70.8021 76.5532 71.1394 48.3142 71.8982C48.1521 71.8867 47.9897 71.9141 47.8403 71.9781C47.691 72.0421 47.5591 72.1408 47.4557 72.2661C47.1644 72.7031 47.6703 96.1896 47.6856 96.4119C47.6896 96.5088 47.7309 96.6004 47.8009 96.6676C47.8709 96.7348 47.9642 96.7722 48.0612 96.7721C48.0612 96.7721 51.0737 96.6648 53.7106 96.5882C76.8521 95.9213 76.5532 95.5917 76.5302 95.2774C76.4689 94.6872 75.917 71.9749 75.9093 71.5686ZM48.0919 72.7951C48.0919 72.7414 48.2375 72.6954 48.3142 72.6877C49.3337 72.6877 74.2383 71.9212 75.1428 71.9212C75.2117 74.2208 75.8556 93.7827 75.9093 94.9708C71.9693 95.2237 51.3113 95.952 48.4445 96.0133C47.9922 89.7507 48.0459 73.255 48.0919 72.7951Z" fill="black"/>
<path d="M49.4026 94.0277C50.0005 93.5907 61.2302 84.1471 61.6058 83.8405C64.5722 86.2091 72.9121 92.8702 74.6904 94.3113C74.9664 94.5336 75.319 94.135 75.0507 93.905C71.8773 91.2682 63.8134 84.7066 62.1807 83.3576C62.9472 82.7597 72.5825 74.6958 73.8089 73.7069C74.0696 73.4846 73.7323 73.1014 73.464 73.3083C70.2982 75.8532 62.8246 81.8858 61.5828 82.89C59.2065 81.012 51.5336 75.102 49.6862 73.7683C49.6349 73.7385 49.5746 73.7282 49.5164 73.7395C49.4582 73.7507 49.406 73.7827 49.3695 73.8294C49.333 73.8762 49.3147 73.9346 49.318 73.9938C49.3213 74.053 49.3459 74.1091 49.3873 74.1515C52.0165 76.2978 60.8086 83.2119 61.0079 83.3499C58.4937 85.4425 49.8319 92.7322 49.0193 93.5524C48.9563 93.6032 48.9161 93.677 48.9074 93.7575C48.8988 93.838 48.9225 93.9186 48.9733 93.9817C49.0242 94.0447 49.0979 94.0849 49.1784 94.0936C49.2589 94.1022 49.3396 94.0785 49.4026 94.0277ZM104.332 91.3371C101.795 89.2522 96.5212 84.6683 95.5171 83.7945C97.763 81.8168 104.715 75.3626 106.111 74.0902C106.162 74.0414 106.193 73.974 106.195 73.9029C106.197 73.8317 106.171 73.7626 106.122 73.7108C106.073 73.6589 106.006 73.6286 105.935 73.6264C105.864 73.6243 105.794 73.6505 105.743 73.6993C104.708 74.6574 95.2718 83.0279 94.9652 83.3039C93.7234 82.2231 83.9501 73.5843 83.5669 73.2624C83.5189 73.2252 83.4589 73.2071 83.3984 73.2116C83.3379 73.2161 83.2813 73.2428 83.2393 73.2867C83.1974 73.3305 83.1732 73.3883 83.1714 73.4489C83.1696 73.5096 83.1903 73.5687 83.2296 73.615C83.8658 74.2665 92.6732 82.3687 94.352 83.8481C93.4551 84.6147 84.571 92.4716 83.6205 93.3148C83.5851 93.3428 83.5597 93.3816 83.5484 93.4253C83.537 93.469 83.5403 93.5152 83.5576 93.5569C83.575 93.5986 83.6055 93.6334 83.6446 93.6562C83.6836 93.6789 83.729 93.6882 83.7738 93.6827C84.1341 93.6827 94.1757 84.9443 94.8809 84.3311C96.5596 85.7491 102.462 90.5553 103.949 91.7434C104.256 91.958 104.608 91.5671 104.332 91.3371ZM28.7446 128.797C28.7446 128.797 49.6172 127.602 49.9928 127.571C50.0527 127.567 50.1107 127.548 50.1621 127.518C50.2136 127.487 50.2571 127.444 50.2892 127.394C50.3212 127.343 50.341 127.285 50.3467 127.226C50.3525 127.166 50.3442 127.106 50.3224 127.05C50.3608 121.991 50.8897 112.486 50.5677 111.995C50.4634 111.867 50.3261 111.771 50.1708 111.715C50.0154 111.66 49.8478 111.648 49.6862 111.681L28.8596 112.708C28.7619 112.712 28.6694 112.753 28.601 112.823C28.5327 112.893 28.4935 112.986 28.4916 113.084C28.3613 116.096 28.093 128.2 28.162 128.414C28.1976 128.537 28.2758 128.643 28.3826 128.713C28.4894 128.784 28.6178 128.813 28.7446 128.797ZM49.9238 112.608C49.9238 113.237 49.8855 115.927 49.6326 126.82C47.5246 126.904 29.3655 127.985 28.9362 128.008C28.9362 126.391 29.1969 115.268 29.2658 113.444L49.7322 112.417C49.7824 112.419 49.8301 112.439 49.8656 112.475C49.9011 112.51 49.9219 112.558 49.9238 112.608ZM57.0066 126.682C57.1062 127.042 57.4512 127.057 57.8114 127.027C80.1328 125.294 78.983 125.9 79.1363 125.616C79.1976 125.494 79.0827 126.122 79.3509 118.104C79.3509 117.116 79.6499 110.615 79.4046 110.24C79.3014 110.111 79.1643 110.013 79.0085 109.957C78.8528 109.902 78.6847 109.891 78.5231 109.926C78.4158 109.926 58.7619 110.891 57.7041 110.953C57.6051 110.955 57.5107 110.995 57.4407 111.065C57.3707 111.135 57.3305 111.229 57.3285 111.328C57.2059 114.157 56.9299 126.421 57.0066 126.682ZM57.7731 126.253C57.7731 124.589 58.0414 113.444 58.1027 111.689L78.6764 110.661C78.8527 110.661 78.8527 109.535 78.4924 125.049C76.3615 125.141 58.2254 126.222 57.7501 126.253H57.7731ZM83.6282 124.812C83.7355 125.164 84.0728 125.179 84.4407 125.149C106.762 123.409 105.612 124.022 105.766 123.738C105.827 123.623 105.712 124.206 105.98 116.234C105.98 115.222 106.279 108.753 106.034 108.362C105.931 108.233 105.794 108.135 105.638 108.079C105.482 108.024 105.314 108.013 105.152 108.048L84.3334 109.075C84.2344 109.077 84.14 109.117 84.07 109.187C84 109.257 83.9598 109.351 83.9578 109.45C83.8275 112.424 83.5592 124.528 83.6282 124.812ZM84.709 109.826L105.283 108.799C105.459 108.799 105.451 107.687 105.099 123.186C102.991 123.263 84.824 124.344 84.4024 124.375C84.3794 124.267 84.64 111.673 84.709 109.795V109.826Z" fill="black"/>
<path d="M48.8276 112.977C46.5281 114.763 40.5261 119.033 39.6753 119.654C38.9777 119.232 31.1208 114.525 30.2699 113.997C30.215 113.961 30.1483 113.949 30.0843 113.962C30.0203 113.976 29.9644 114.014 29.9288 114.069C29.8933 114.124 29.8809 114.191 29.8946 114.255C29.9083 114.319 29.9468 114.375 30.0017 114.41C31.1438 115.177 37.5443 119.24 38.9931 120.144C38.5331 120.474 30.6609 126.138 30.1933 126.522C30.153 126.554 30.1238 126.598 30.11 126.647C30.0961 126.697 30.0982 126.75 30.1161 126.798C30.1339 126.847 30.1665 126.888 30.2092 126.917C30.252 126.946 30.3027 126.96 30.3543 126.959C30.6149 126.959 39.5526 120.757 39.7596 120.604C41.5609 121.654 48.0228 125.249 48.7357 125.625C48.7814 125.654 48.8364 125.666 48.89 125.657C48.9437 125.649 48.9924 125.621 49.0269 125.579C49.0495 125.526 49.0542 125.468 49.0404 125.413C49.0265 125.357 48.9949 125.308 48.9503 125.272C46.0988 123.586 43.2166 121.838 40.4265 120.144C42.0898 118.91 49.1343 113.414 49.1343 113.414C49.1922 113.373 49.2316 113.311 49.2438 113.242C49.2561 113.172 49.2401 113.1 49.1994 113.042C49.1588 112.984 49.0967 112.945 49.027 112.933C48.9573 112.92 48.8856 112.936 48.8276 112.977ZM78.0555 111.015C77.4576 111.436 68.2515 117.829 67.554 118.327C65.8906 117.185 60.4789 113.414 59.2601 112.471C58.9995 112.272 58.6852 112.678 58.9382 112.877C61.0002 114.502 65.722 118.005 66.8641 118.826C65.1547 120.098 59.4058 124.069 58.3096 125.157C58.2823 125.184 58.2634 125.217 58.2553 125.255C58.2473 125.292 58.2504 125.33 58.2644 125.366C58.2784 125.401 58.3025 125.431 58.3337 125.453C58.365 125.474 58.402 125.486 58.4399 125.487C58.5473 125.487 59.1068 125.173 67.508 119.27C69.386 120.512 75.4569 124.13 76.8213 124.858C76.8634 124.876 76.9105 124.878 76.954 124.864C76.9975 124.85 77.0346 124.821 77.0587 124.783C77.0827 124.744 77.0921 124.698 77.0851 124.652C77.0782 124.607 77.0553 124.566 77.0206 124.536C75.8862 123.77 68.7651 119.171 68.2055 118.772C69.5853 117.799 77.7718 111.789 78.3237 111.39C78.3736 111.355 78.4072 111.301 78.4173 111.24C78.4273 111.18 78.413 111.118 78.3774 111.068C78.3418 111.019 78.2879 110.985 78.2275 110.975C78.1672 110.965 78.1053 110.979 78.0555 111.015ZM95.2717 116.12C97.1727 117.392 102.937 121.417 104.179 122.367C104.204 122.389 104.234 122.405 104.266 122.415C104.298 122.425 104.332 122.429 104.365 122.426C104.399 122.423 104.431 122.414 104.461 122.399C104.491 122.383 104.517 122.362 104.539 122.336C104.561 122.311 104.577 122.281 104.587 122.249C104.597 122.217 104.601 122.183 104.598 122.15C104.596 122.116 104.586 122.084 104.571 122.054C104.555 122.024 104.534 121.998 104.508 121.976C103.52 121.21 97.4257 116.656 95.9923 115.645C96.7588 115.146 103.819 110.279 104.662 109.719C104.691 109.701 104.716 109.677 104.736 109.65C104.756 109.622 104.771 109.59 104.779 109.557C104.786 109.523 104.787 109.488 104.782 109.455C104.776 109.421 104.764 109.388 104.746 109.359C104.728 109.33 104.704 109.304 104.676 109.284C104.648 109.264 104.617 109.25 104.583 109.242C104.55 109.234 104.515 109.233 104.481 109.239C104.447 109.244 104.415 109.257 104.386 109.275C103.696 109.727 95.6473 114.824 95.1874 115.123C93.6007 114.127 88.2886 111.015 86.8629 110.355C86.808 110.329 86.7449 110.326 86.6874 110.346C86.6299 110.366 86.5828 110.408 86.5563 110.463C86.3876 110.785 86.426 110.555 94.4669 115.599C92.2209 117.132 85.2685 122.06 84.5633 122.612C84.5248 122.652 84.4998 122.703 84.4915 122.758C84.4833 122.813 84.4923 122.869 84.5173 122.919C84.5501 122.967 84.6001 123.001 84.657 123.014C84.7139 123.027 84.7736 123.017 84.8239 122.988C85.6518 122.513 95.2717 116.12 95.2717 116.12Z" fill="black"/>
<path d="M162.473 138.341C161.63 138.15 157.108 137.536 133.445 134.049C132.945 133.346 132.557 132.57 132.295 131.749C132.195 129.449 131.605 122.152 131.414 120.726C131.03 117.89 130.256 115.054 130.317 112.134C131.138 111.957 131.95 111.766 132.732 111.551C132.799 111.53 132.857 111.488 132.898 111.431C132.94 111.375 132.962 111.307 132.962 111.237C132.972 108.371 132.762 105.508 132.333 102.675C133.621 101.249 133.575 98.566 133.529 96.3814C133.529 94.3884 133.598 92.9933 133.591 79.5177C135.944 77.6704 135.407 73.5694 135.124 71.4845C135.806 71.0092 135.836 71.0092 135.844 70.8942C135.785 70.1468 135.631 69.41 135.384 68.7019C135.222 68.3303 134.984 67.9963 134.687 67.7208C134.947 67.3375 134.993 67.3069 134.94 67.1842C134.503 66.2874 134.173 65.6512 133.744 64.9689V58.2465C135.12 58.3979 136.506 58.0704 137.668 57.319C137.711 57.2966 137.743 57.2594 137.759 57.2146C137.775 57.1698 137.774 57.1206 137.756 57.0765C137.738 57.0325 137.704 56.9968 137.661 56.9764C137.618 56.9561 137.568 56.9525 137.523 56.9664C136.48 57.2193 135.729 57.0967 135.285 56.5908C134.188 55.3643 135.078 52.1296 135.515 50.9798C136.542 48.1129 137.814 48.0133 138.121 45.9513C138.295 44.4653 137.965 42.9639 137.184 41.6879C136.403 40.4118 135.216 39.4352 133.813 38.9146C133.813 38.8532 134.02 27.225 134.027 26.8647C134.104 23.561 134.204 19.0384 130.509 17.5437C129.676 17.2647 128.795 17.1527 127.918 17.2141C127.757 17.2141 46.7656 14.6232 46.1984 14.5849C44.6682 14.409 43.1212 14.44 41.5992 14.6769C37.7666 15.5047 37.7129 19.2761 37.6899 21.7289C37.6899 21.9359 37.7359 43.3374 37.7666 63.7042C35.1833 63.6428 24.8888 63.6275 22.7349 63.7042C20.9182 63.7042 19.3315 63.8345 18.3197 64.6087C17.8256 64.9992 17.4248 65.4949 17.1464 66.0598C16.868 66.6246 16.7189 67.2444 16.71 67.8741C16.71 75.3784 17.4765 120.404 17.0626 135.398C17.0089 137.345 17.8828 138.878 19.3622 139.33C18.45 140.564 19.3622 141.967 20.6653 142.549C30.7605 144.726 60.0496 150.981 62.3645 150.981C63.5527 150.981 123.196 145.179 158.863 141.737C160.917 141.737 162.949 140.687 162.696 138.786C162.604 138.326 162.604 138.372 162.473 138.341ZM130.578 120.213C131.053 123.976 131.207 127.801 131.49 131.588C130.7 131.889 129.827 131.889 129.037 131.588C126.738 127.227 123.097 121.309 123.672 116.166C123.848 114.51 123.917 113.782 122.974 112.402C123.794 112.348 124.63 112.272 125.504 112.134C125.665 112.134 125.726 112.134 126.27 109.144C127.366 112.517 127.366 112.747 127.635 112.685L129.612 112.264C129.513 114.954 130.21 117.584 130.578 120.213ZM108.05 138.518C109.138 139.698 112.143 137.981 113.5 137.099C113.53 137.082 113.554 137.055 113.569 137.024C113.584 136.993 113.589 136.958 113.584 136.923C113.56 136.764 113.57 136.601 113.612 136.445C113.654 136.289 113.728 136.144 113.829 136.019C113.85 135.989 113.876 135.963 113.906 135.943C113.936 135.923 113.97 135.91 114.006 135.904C114.128 135.904 114.366 136.126 114.481 136.548C114.596 136.969 115.7 136.716 116.014 136.548C116.144 136.471 116.152 136.486 116.014 134.248C119.509 134.9 126.4 136.088 128.892 136.548C128.968 136.877 129.045 137.199 129.129 137.506C120.698 138.272 61.8126 143.531 60.3332 143.638C59.467 143.439 41.7219 140.273 41.101 140.166C57.2441 138.839 99.4109 135.39 110.587 134.432C109.1 136.67 107.835 136.961 107.781 137.222C107.715 137.443 107.705 137.678 107.752 137.904C107.799 138.13 107.901 138.341 108.05 138.518ZM106.747 106.791C102.377 106.936 45.7231 108.945 42.3197 108.102C39.5756 107.757 38.2878 105.388 38.4871 101.065C38.5331 98.7653 38.3415 31.5865 38.3031 22.6794C50.7669 23.2467 125.22 25.324 133.284 25.393C133.284 26.811 133.154 33.8248 133.069 38.6616C130.509 38.0024 127.343 38.5773 127.803 41.0915C127.811 41.1331 127.833 41.1708 127.865 41.1988C128.154 41.4252 128.396 41.7071 128.576 42.0281C128.755 42.349 128.869 42.7024 128.91 43.0678C128.952 43.4333 128.92 43.8032 128.817 44.1562C128.714 44.5091 128.541 44.838 128.309 45.1235C128.125 45.3381 128.639 46.2733 128.393 49.554C128.064 53.9616 130.325 57.2193 132.908 58.0242C132.908 59.0207 132.87 62.7307 132.87 63.6045C130.179 59.4116 128.761 58.6834 124.285 55.7782C124.055 55.6249 124.047 56.0312 124.875 52.8808C125.405 52.7107 125.89 52.4242 126.295 52.0422C126.699 51.6602 127.013 51.1924 127.213 50.6731C127.382 48.8886 127.382 47.092 127.213 45.3074C127.417 44.6249 127.465 43.905 127.352 43.2016C127.239 42.4981 126.969 41.8292 126.561 41.2448C125.861 40.0621 124.808 39.129 123.549 38.5773C121.104 37.5501 118.835 38.5773 116.827 39.4588C114.527 40.5396 114.665 41.1912 114.949 43.6901C114.952 43.8893 115.001 44.0851 115.093 44.262C115.185 44.4389 115.316 44.5921 115.477 44.7095C114.941 46.5109 114.167 49.83 114.749 51.6083C114.972 52.2462 115.321 52.8328 115.776 53.3332C116.23 53.8336 116.78 54.2375 117.394 54.5211C117.34 54.7511 117.225 55.1803 117.141 55.5023C116.765 55.4026 116.075 55.234 115.669 55.142C113.086 53.9386 110.74 52.5665 108.088 52.8424C107.883 52.8715 107.688 52.9504 107.521 53.0724C107.133 52.6993 106.678 52.4028 106.179 52.1985C105.765 51.432 98.882 40.394 98.7977 40.2637C98.4528 39.7194 98.1615 39.2442 98.4145 38.6923C98.6674 38.1404 99.342 37.1592 99.2653 36.3467L105.551 36.3084C105.754 36.3084 105.949 36.2276 106.093 36.0839C106.237 35.9401 106.317 35.7451 106.317 35.5418V33.4262C106.317 33.2229 106.237 33.0279 106.093 32.8842C105.949 32.7404 105.754 32.6597 105.551 32.6597H82.7542C82.5509 32.6597 82.356 32.7404 82.2122 32.8842C82.0685 33.0279 81.9877 33.2229 81.9877 33.4262V35.8944C81.9877 36.0977 82.0685 36.2927 82.2122 36.4365C82.356 36.5802 82.5509 36.661 82.7542 36.661L91.4084 36.5766C92.251 38.0338 93.5076 39.2077 95.0187 39.9494C95.3407 40.118 95.31 40.141 95.9309 43.4294C96.9427 48.7262 97.9852 54.2068 101.297 58.5837C101.235 58.737 101.189 58.8904 101.136 59.0437C101.12 59.0947 101.116 59.1488 101.126 59.2015C101.135 59.2541 101.156 59.3038 101.189 59.3465C101.221 59.3892 101.263 59.4236 101.311 59.4469C101.359 59.4702 101.412 59.4818 101.465 59.4806C101.719 59.4734 101.971 59.5203 102.205 59.6181C102.439 59.7159 102.649 59.8624 102.822 60.0478C102.692 61.5425 102.983 62.3474 104.754 63.6735C105.198 64.0031 108.195 65.6358 108.985 66.0497C108.632 67.4448 108.333 68.8706 108.05 70.304C100.009 70.5723 82.417 70.7332 81.9877 71.0705C81.8598 71.1717 81.7571 71.3012 81.688 71.4489C81.6188 71.5966 81.5849 71.7583 81.5891 71.9214C81.4665 74.9875 81.2058 92.495 81.2288 93.2999C81.2288 94.833 81.4818 95.7681 83.1145 95.5995C84.3026 95.5995 98.9894 95.2239 105.014 95.0706C104.922 96.0824 104.892 96.0977 105.014 96.1821C105.703 96.7054 106.483 97.0978 107.314 97.3395C106.769 100.458 106.576 103.629 106.739 106.791H106.747ZM120.314 60.2701C118.482 60.4847 115.577 60.1935 115.056 58.5071C114.857 57.7406 115.585 56.3685 115.976 55.8932L117.309 56.2075C117.391 56.2262 117.476 56.2128 117.547 56.1699C117.619 56.127 117.671 56.058 117.693 55.9775C117.792 55.5483 117.915 55.0884 117.999 54.7511C118.298 54.8507 118.62 54.9734 118.689 54.6898C118.697 54.6596 118.699 54.6281 118.695 54.5971C118.691 54.5661 118.681 54.5362 118.665 54.5091C118.65 54.4821 118.629 54.4584 118.604 54.4394C118.579 54.4204 118.551 54.4065 118.521 54.3985C116.221 53.7623 114.972 51.501 115.454 48.8718C115.695 47.1386 116.038 45.4211 116.482 43.7284C117.149 44.4769 118.042 44.9869 119.026 45.1806C120.01 45.3744 121.03 45.2412 121.932 44.8015C121.741 46.205 121.851 47.6331 122.256 48.9906C122.66 50.348 123.349 51.6037 124.277 52.6738C123.38 55.7399 123.35 55.7399 123.58 56.0772C123.81 56.4145 124.584 56.7364 125.465 57.4109C124.148 58.9524 122.319 59.9674 120.314 60.2701ZM120.314 61.6499C119.916 61.6499 120.314 60.9217 120.644 60.9217C120.973 60.9217 120.575 61.6269 120.314 61.6499ZM117.961 61.4582C117.961 61.8568 117.194 62.1558 116.919 61.9565C116.643 61.7572 117.064 61.2896 117.478 61.1899C117.577 61.1639 117.681 61.1773 117.77 61.2274C117.859 61.2776 117.925 61.3604 117.953 61.4582H117.961ZM115.385 60.7607C115.354 60.7882 115.317 60.8077 115.276 60.8177C115.236 60.8277 115.193 60.8278 115.153 60.8181C115.112 60.8083 115.075 60.7889 115.043 60.7616C115.011 60.7343 114.987 60.6998 114.972 60.661C114.887 60.2548 115.493 60.0325 115.615 60.1935C115.738 60.3544 115.646 60.5384 115.378 60.7607H115.385ZM126.753 72.4886C126.803 72.5091 126.845 72.5443 126.874 72.5896C126.902 72.6349 126.917 72.688 126.914 72.7416C126.9 72.7933 126.87 72.8394 126.829 72.8737C126.788 72.908 126.737 72.9287 126.684 72.9332C124.385 72.7262 122.66 71.2315 122.185 68.3877C122.172 68.3236 122.186 68.2574 122.223 68.2035C122.259 68.1496 122.316 68.1124 122.38 68.1002C122.444 68.088 122.51 68.1018 122.564 68.1384C122.618 68.1751 122.655 68.2316 122.667 68.2957C122.916 69.2927 123.424 70.2061 124.14 70.9427C124.857 71.6793 125.756 72.2127 126.745 72.4886H126.753ZM96.7051 36.5307C96.7511 36.7223 96.2068 36.7913 95.7316 38.102C95.7195 38.1623 95.7297 38.225 95.7604 38.2782C95.7911 38.3315 95.8402 38.3718 95.8984 38.3915C95.9567 38.4113 96.0201 38.4091 96.0769 38.3854C96.1337 38.3618 96.1799 38.3183 96.2069 38.263C96.6131 37.1592 97.5636 37.3662 97.3796 36.4693C97.0194 34.7293 97.4486 33.8325 98.0465 34.0088C98.1615 34.0088 98.1002 35.5418 98.4758 35.9328C99.1427 36.6993 97.9315 37.8491 97.7093 38.6999C97.6478 38.9774 97.6504 39.2651 97.7168 39.5414C97.7832 39.8176 97.9117 40.0751 98.0925 40.2943C98.2382 40.5166 105.114 51.6236 105.574 52.3442C103.954 53.9376 102.596 55.777 101.55 57.7942C97.8396 52.5588 97.1114 45.9743 95.8619 39.9647C95.707 39.6395 95.4324 39.3868 95.0954 39.2595C93.9056 38.6424 92.9046 37.7155 92.1979 36.5766L96.7051 36.5307ZM105.62 53.2487C105.965 52.8654 106.003 52.7888 106.133 52.8194C106.447 52.9775 106.741 53.1731 107.007 53.402C106.103 54.1149 103.627 56.9894 102.975 59.1893C102.649 58.9674 102.272 58.8304 101.879 58.7907C102.584 56.6598 104.133 54.9274 105.62 53.2487ZM105.083 94.396C98.8744 94.5034 83.2525 94.9403 82.2713 94.7946C81.9877 94.5417 82.003 93.9821 82.0107 93.5299C82.0107 93.4455 82.2253 73.1248 82.3403 71.8217C82.3403 71.5611 80.4393 71.6761 107.881 71.0015C106.517 78.3986 105.842 86.4318 105.083 94.396ZM107.904 97.5235C108.735 97.6761 109.587 97.6761 110.418 97.5235C110.459 97.5174 110.496 97.4985 110.525 97.4695C110.554 97.4405 110.573 97.403 110.579 97.3625C112.158 88.7774 110.687 88.1642 112.112 72.5806C112.879 63.8498 114.029 60.9676 113.799 60.684C112.557 59.151 113.323 57.4876 114.903 56.3608C114.136 57.7406 114.351 58.8597 114.964 59.5572C114.772 59.6283 114.609 59.7593 114.498 59.9306C114.386 60.1019 114.333 60.3045 114.346 60.5083C114.359 60.7122 114.437 60.9064 114.569 61.0623C114.701 61.2183 114.88 61.3275 115.079 61.3739C115.356 61.3919 115.63 61.3037 115.845 61.1272C116.06 60.9507 116.2 60.6991 116.236 60.4234C116.474 60.5201 116.717 60.602 116.965 60.6687C115.93 61.2819 115.96 62.631 117.171 62.631C117.515 62.6535 117.853 62.5449 118.119 62.3272C118.385 62.1095 118.559 61.7989 118.605 61.4582C118.605 60.638 117.746 60.9677 119.655 60.9217C118.927 62.4011 120.927 62.7537 121.334 61.3203C121.404 61.122 121.404 60.9053 121.334 60.707C124.875 59.9405 122.936 58.5531 121.334 64.5857C120.069 69.2922 120.567 74.9032 121.234 78.8201C120.352 79.5145 119.531 80.2839 118.781 81.1197C117.907 79.2877 117.532 78.4599 117.34 78.0996C117.148 77.7393 117.141 77.8237 117.033 77.8543C116.627 77.9923 115.539 78.4216 114.496 78.8585C114.933 74.175 115.186 71.3005 116.029 64.44C116.034 64.3804 116.017 64.3211 115.98 64.2738C115.943 64.2266 115.89 64.195 115.831 64.1853C115.772 64.1757 115.711 64.1886 115.662 64.2216C115.612 64.2546 115.576 64.3053 115.562 64.3634C114.895 68.4567 114.105 73.7534 113.776 79.1728C113.009 79.4947 112.611 79.6557 112.411 79.7706C112.212 79.8856 112.227 79.9393 112.266 80.0389C112.434 80.4452 112.925 81.572 113.53 82.9594C112.764 88.8694 110.894 106.814 110.71 109.412C109.509 108.775 108.398 107.981 107.406 107.051C107.21 103.867 107.378 100.67 107.904 97.5235ZM120.383 84.6304C120.812 84.2625 121.487 83.6186 121.916 83.197C123.012 92.8017 123.771 88.1565 122.905 104.3C122.729 107.565 122.576 110.432 122.675 111.697C120.884 111.816 119.086 111.747 117.309 111.49C117.401 109.535 118.26 92.1501 118.413 90.3181C119.572 89.8595 120.694 89.3137 121.771 88.6854C121.924 88.5474 121.886 88.7161 120.383 84.6304ZM128.493 132.155V133.328C122.79 132.485 118.022 131.795 115.861 131.442C115.822 130.983 115.792 130.607 115.769 130.377C117.24 125.494 119.417 119.009 117.424 114.28C117.156 113.636 116.942 114.211 117.892 112.31C119.335 112.472 120.788 112.523 122.238 112.463C123.595 114.326 123.043 114.609 122.92 116.296C122.491 121.96 125.718 127.066 128.493 132.155ZM128.539 134.125C128.585 134.693 128.669 135.283 128.769 135.865L115.991 133.619C115.991 133.129 115.937 132.638 115.907 132.178C118.459 132.608 123.12 133.32 128.539 134.125ZM116.558 111.367C114.761 111.063 113.014 110.511 111.369 109.727C111.445 109.021 113.607 88.1258 114.036 84.1629C116.144 88.9537 116.719 90.2951 116.926 90.6324C117.026 90.7934 117.041 90.755 117.095 90.755C117.301 90.7177 117.504 90.6612 117.7 90.5864C117.202 96.1667 116.597 109.336 116.558 111.367ZM117.164 112.187C116.344 113.628 116.267 113.72 116.65 114.38C117.417 115.706 117.463 118.158 117.417 119.684C117.286 122.497 115.209 129.442 115.002 130.124C114.683 130.406 114.288 130.59 113.865 130.651C113.443 130.712 113.013 130.649 112.626 130.469C112.465 130.408 112.519 130.584 112.427 129.365C112.128 125.318 111.346 114.847 110.894 110.325C112.88 111.253 114.993 111.88 117.164 112.187ZM127.765 99.3938C128.118 102.414 129.26 110.233 129.459 111.566L127.865 111.965C127.612 111.198 126.799 108.332 126.485 107.665C126.451 107.602 126.399 107.552 126.335 107.52C126.272 107.487 126.201 107.475 126.13 107.484C126.06 107.493 125.994 107.524 125.941 107.571C125.888 107.618 125.85 107.68 125.833 107.749C125.603 108.991 125.381 110.24 125.159 111.482C124.507 111.543 123.917 111.589 123.373 111.628C123.373 107.749 123.511 103.786 123.741 99.8537C125.021 99.7541 127.098 99.5165 127.765 99.3938ZM124.86 88.4708C124.855 88.4211 124.871 88.3717 124.902 88.3331C124.934 88.2944 124.979 88.2696 125.028 88.2638C130.394 87.6199 130.179 87.5663 130.256 87.7809C130.426 88.3468 130.483 88.9406 130.425 89.5286C130.425 89.7355 130.647 89.6129 125.243 90.2951C124.975 90.3641 125.021 90.1035 124.86 88.4708ZM130.164 111.39C129.214 106.385 128.976 104.445 128.347 99.2942C129.206 99.219 130.059 99.0884 130.9 98.9032C131.815 102.844 132.28 106.877 132.287 110.922C131.552 111.068 130.816 111.237 130.164 111.39ZM132.847 88.6931C132.77 99.1562 133.039 99.9074 132.157 101.67C131.981 100.643 131.782 99.6085 131.552 98.6043C131.793 98.4332 132.01 98.2294 132.195 97.9987C132.418 97.7305 131.598 88.0338 130.271 81.0201C130.915 80.7748 132.195 80.2536 132.885 79.901C132.893 82.8214 132.87 85.8032 132.847 88.6931ZM134.326 77.0725C134.155 77.8084 133.719 78.4554 133.1 78.8891C129.827 81.0048 122.031 82.0472 121.955 82.0549C121.918 82.062 121.884 82.0784 121.856 82.1026C121.828 82.1268 121.806 82.1579 121.794 82.1929C121.264 82.9363 120.643 83.611 119.946 84.2012C119.539 84.6725 119.008 85.0204 118.413 85.2053C117.946 85.2743 116.811 84.7071 118.068 84.5921C118.402 84.6028 118.731 84.5068 119.007 84.3179C119.282 84.1291 119.491 83.8573 119.601 83.542C119.619 83.4927 119.619 83.4387 119.6 83.3897C119.582 83.3406 119.547 83.2995 119.502 83.2737C119.057 83.0667 119.425 84.1169 117.302 84.0402C116.788 84.0402 116.129 83.381 116.972 83.4423C118.337 83.5496 119.272 82.6145 118.934 82.3615C118.899 82.3322 118.854 82.3162 118.808 82.3162C118.762 82.3162 118.717 82.3322 118.682 82.3615C118.091 82.9901 117.21 82.8368 116.321 82.7295C115.884 82.6758 115.554 82.2082 116.129 82.1162C116.896 81.9936 118.774 82.0013 118.988 81.7866C121.288 79.2341 124.599 77.54 127.297 76.1833C129.788 74.959 132.175 73.5336 134.434 71.9214C134.709 73.6308 134.672 75.3759 134.326 77.0725ZM134.15 68.38C134.574 69.0162 134.803 69.762 134.809 70.5263C132.791 72.0351 130.684 73.4224 128.501 74.6809C128.439 74.244 128.332 73.4391 128.317 73.1478C131.222 71.4998 133.276 69.8057 134.15 68.38ZM42.0055 15.2518C67.2013 15.8343 127.297 17.835 127.297 17.835C128.393 17.835 128.945 17.8886 129.214 17.8733H129.283C131.421 18.1722 132.64 20.1729 133.039 21.7826C133.235 22.7508 133.318 23.7387 133.284 24.7261C120 24.5038 74.859 23.4766 38.2955 21.9053C38.2955 18.5172 38.6174 15.704 42.0055 15.2518ZM38.2955 105.649C36.3485 105.649 30.2239 105.649 28.2769 105.741C28.2769 103.349 28.1389 86.8227 28.1159 84.4235C29.5647 84.4771 36.2182 84.3085 37.7436 84.2702C37.7589 103.571 37.5289 103.602 38.2955 105.649ZM37.7282 77.2871C35.6049 77.2871 29.1508 77.2871 27.6867 77.3561C27.7327 76.4822 27.7633 74.29 27.7863 73.2398C29.2121 73.2398 35.5436 73.0635 37.7512 72.9409C37.7206 74.3589 37.7206 75.8153 37.7206 77.2334L37.7282 77.2871ZM37.7282 72.251C36.6704 72.251 27.9243 72.5193 27.4797 72.5576C27.0351 72.5959 27.1194 73.0098 27.0965 73.7764C27.0121 76.3136 26.9891 77.3407 27.0351 77.7623C27.0735 78.046 27.1348 78.0536 27.2421 78.0613C28.2386 78.1303 36.7241 77.9923 37.7359 77.977V83.5803C27.1808 83.7029 27.4721 83.6876 27.4721 84.1092C27.4721 84.3085 27.4721 104.507 27.5564 106.262C27.5564 106.622 28.4609 106.53 38.6481 106.446C39.8668 108.745 41.8215 108.929 44.42 109.113C47.0186 109.297 104.271 107.626 106.915 107.534C107.853 108.577 108.983 109.431 110.242 110.049C110.618 114.364 111.162 122.313 111.499 127.388C106.678 127.709 26.4142 133.65 23.5627 133.857C23.5627 131.948 23.2178 68.7479 23.2178 68.7479C24.4749 68.7479 36.2488 68.5563 37.7129 68.5103V72.1973L37.7282 72.251ZM19.8987 138.709C19.0172 137.797 19.3928 140.572 19.3928 67.4218C19.3928 65.1222 20.9259 64.5244 22.7119 64.4247C25.0115 64.2944 29.2274 64.5243 37.7129 64.2791V67.7514C35.9499 67.7514 22.8575 67.9661 22.8575 67.9661C22.8069 67.9678 22.7572 67.9795 22.7111 68.0006C22.6651 68.0216 22.6237 68.0516 22.5893 68.0887C22.4359 68.2574 22.8345 134.286 22.8652 134.363C22.8802 134.397 22.9048 134.426 22.9362 134.447C22.9675 134.467 23.0041 134.478 23.0415 134.478C23.0415 134.478 103.78 128.637 111.545 128.001C111.545 128.491 111.76 131.258 111.79 131.634C101.427 132.477 20.6653 138.61 19.8987 138.709ZM61.9353 147.532L21.7461 139.192C36.4481 138.234 100.085 133.359 111.614 132.362C111.481 132.794 111.31 133.212 111.101 133.612C103.811 134.171 38.4488 139.66 38.4488 139.66C37.9659 139.706 38.0042 140.426 38.4488 140.426L60.2642 144.397C60.3256 144.397 61.9123 144.267 129.39 138.265C129.39 138.364 129.436 138.433 129.513 138.487C130.187 138.908 131.26 138.487 131.26 138.173C131.242 137.767 131.289 137.36 131.398 136.969C131.398 136.969 131.621 137.069 132.027 138.272C132.035 138.298 132.048 138.322 132.067 138.342C132.086 138.362 132.109 138.378 132.134 138.387C133.545 138.891 134.997 139.273 136.473 139.529C136.751 139.534 137.026 139.471 137.274 139.345C137.523 139.219 137.737 139.035 137.898 138.809C137.992 138.591 138.02 138.351 137.978 138.118C137.935 137.884 137.825 137.669 137.661 137.498C136.282 136.948 135.058 136.069 134.096 134.938C144.437 136.471 155.713 138.004 159.967 138.625L61.9353 147.532Z" fill="black"/>
</svg>
