<svg width="32" height="32" viewBox="0 0 32 32" fill="none" xmlns="http://www.w3.org/2000/svg">
<path fill-rule="evenodd" clip-rule="evenodd" d="M10.3812 6.57256C8.92631 7.5784 8 9.03811 8 11C8 11.5523 7.55228 12 7 12C6.44772 12 6 11.5523 6 11C6 8.29522 7.32369 6.25494 9.24382 4.92744C11.134 3.62065 13.5948 3 16 3C18.4052 3 20.866 3.62065 22.7562 4.92744C24.6763 6.25494 26 8.29522 26 11C26 11.5523 25.5523 12 25 12C24.4477 12 24 11.5523 24 11C24 9.03811 23.0737 7.5784 21.6188 6.57256C20.134 5.54601 18.0948 5 16 5C13.9052 5 11.866 5.54601 10.3812 6.57256Z" fill="#070707"/>
<path fill-rule="evenodd" clip-rule="evenodd" d="M21.6188 25.4274C23.0737 24.4216 24 22.9619 24 21C24 20.4477 24.4477 20 25 20C25.5523 20 26 20.4477 26 21C26 23.7048 24.6763 25.7451 22.7562 27.0726C20.866 28.3793 18.4052 29 16 29C13.5948 29 11.134 28.3793 9.24382 27.0726C7.32369 25.7451 6 23.7048 6 21C6 20.4477 6.44772 20 7 20C7.55228 20 8 20.4477 8 21C8 22.9619 8.92631 24.4216 10.3812 25.4274C11.866 26.454 13.9052 27 16 27C18.0948 27 20.134 26.454 21.6188 25.4274Z" fill="black"/>
<path fill-rule="evenodd" clip-rule="evenodd" d="M24.2929 15.2929C24.6834 14.9024 25.3166 14.9024 25.7071 15.2929L29.7071 19.2929C30.0976 19.6834 30.0976 20.3166 29.7071 20.7071C29.3166 21.0976 28.6834 21.0976 28.2929 20.7071L25 17.4142L21.7071 20.7071C21.3166 21.0976 20.6834 21.0976 20.2929 20.7071C19.9024 20.3166 19.9024 19.6834 20.2929 19.2929L24.2929 15.2929Z" fill="black"/>
<path fill-rule="evenodd" clip-rule="evenodd" d="M6.29289 16.7071C6.68342 17.0976 7.31658 17.0976 7.70711 16.7071L11.7071 12.7071C12.0976 12.3166 12.0976 11.6834 11.7071 11.2929C11.3166 10.9024 10.6834 10.9024 10.2929 11.2929L7 14.5858L3.70711 11.2929C3.31658 10.9024 2.68342 10.9024 2.29289 11.2929C1.90237 11.6834 1.90237 12.3166 2.29289 12.7071L6.29289 16.7071Z" fill="#070707"/>
</svg>
