<svg width="86" height="85" viewBox="0 0 86 85" fill="none" xmlns="http://www.w3.org/2000/svg">
<mask id="mask0_25_1431" style="mask-type:alpha" maskUnits="userSpaceOnUse" x="11" y="19" width="64" height="57">
<path d="M67.9681 26.0861C66.4339 24.5581 64.6129 23.3463 62.6091 22.5197C60.6052 21.6929 58.4575 21.2675 56.2888 21.2675C54.12 21.2675 51.9723 21.6929 49.9684 22.5197C47.9645 23.3464 46.1434 24.5582 44.6092 26.0864C44.6091 26.0865 44.6091 26.0865 44.609 26.0865C44.609 26.0866 44.6089 26.0866 44.6089 26.0867L43.0009 27.6877L41.3927 26.0864C38.2937 23.0009 34.0923 21.2689 29.7131 21.2689C25.3338 21.2689 21.1324 23.0009 18.0335 26.0864C14.9343 29.1721 13.1918 33.3589 13.1918 37.7261C13.1918 42.0933 14.9343 46.28 18.0335 49.3658L20.8789 52.1989L41.7637 72.993C42.4479 73.6742 43.554 73.6742 44.2381 72.993L65.1229 52.1989L67.9681 49.3661C69.5031 47.8384 70.7211 46.0242 71.5523 44.0269C72.3835 42.0296 72.8115 39.8885 72.8115 37.7261C72.8115 35.5636 72.3835 33.4226 71.5523 31.4252C70.7211 29.4279 69.5031 27.6137 67.9681 26.0861Z" fill="#D9D9D9" stroke="#348E2B" stroke-width="3.50704" stroke-linecap="round" stroke-linejoin="round"/>
</mask>
<g mask="url(#mask0_25_1431)">
<mask id="path-2-outside-1_25_1431" maskUnits="userSpaceOnUse" x="32.2324" y="33.2964" width="20" height="26" fill="black">
<rect fill="white" x="32.2324" y="33.2964" width="20" height="26"/>
<path fill-rule="evenodd" clip-rule="evenodd" d="M42.1236 57.1378C46.7687 55.2997 50.0149 51.1017 50.0149 46.2171C50.0149 41.3324 46.7687 37.1345 42.1237 35.2964C37.4786 37.1345 34.2324 41.3325 34.2324 46.2171C34.2324 51.1017 37.4786 55.2997 42.1236 57.1378Z"/>
</mask>
<path fill-rule="evenodd" clip-rule="evenodd" d="M42.1236 57.1378C46.7687 55.2997 50.0149 51.1017 50.0149 46.2171C50.0149 41.3324 46.7687 37.1345 42.1237 35.2964C37.4786 37.1345 34.2324 41.3325 34.2324 46.2171C34.2324 51.1017 37.4786 55.2997 42.1236 57.1378Z" fill="#62D14F"/>
<path d="M42.1236 57.1378L41.4784 58.7683L42.1236 59.0236L42.7688 58.7683L42.1236 57.1378ZM42.1237 35.2964L42.7689 33.6659L42.1237 33.4106L41.4785 33.6659L42.1237 35.2964ZM48.2613 46.2171C48.2613 50.2782 45.557 53.8934 41.4784 55.5073L42.7688 58.7683C47.9804 56.706 51.7684 51.9253 51.7684 46.2171H48.2613ZM41.4785 36.9269C45.557 38.5408 48.2613 42.156 48.2613 46.2171H51.7684C51.7684 40.5089 47.9804 35.7282 42.7689 33.6659L41.4785 36.9269ZM35.9859 46.2171C35.9859 42.156 38.6903 38.5408 42.7689 36.9269L41.4785 33.6659C36.2669 35.7282 32.4789 40.5089 32.4789 46.2171H35.9859ZM42.7688 55.5073C38.6903 53.8934 35.9859 50.2782 35.9859 46.2171H32.4789C32.4789 51.9253 36.2669 56.706 41.4784 58.7683L42.7688 55.5073Z" fill="#F9FCF8" mask="url(#path-2-outside-1_25_1431)"/>
<mask id="path-4-outside-2_25_1431" maskUnits="userSpaceOnUse" x="29.7289" y="33.3287" width="44.7487" height="49.507" fill="black">
<rect fill="white" x="29.7289" y="33.3287" width="44.7487" height="49.507"/>
<path fill-rule="evenodd" clip-rule="evenodd" d="M42.9007 74.0409C50.5765 74.8846 58.4032 71.209 62.5318 64.0581C66.6604 56.9071 65.9302 48.2912 61.3616 42.0656C53.6858 41.2219 45.8591 44.8974 41.7305 52.0484C37.6019 59.1994 38.3321 67.8153 42.9007 74.0409Z"/>
</mask>
<path fill-rule="evenodd" clip-rule="evenodd" d="M42.9007 74.0409C50.5765 74.8846 58.4032 71.209 62.5318 64.0581C66.6604 56.9071 65.9302 48.2912 61.3616 42.0656C53.6858 41.2219 45.8591 44.8974 41.7305 52.0484C37.6019 59.1994 38.3321 67.8153 42.9007 74.0409Z" fill="#62D14F"/>
<path d="M42.9007 74.0409L41.487 75.0783L41.943 75.6997L42.7091 75.7839L42.9007 74.0409ZM61.3616 42.0656L62.7753 41.0282L62.3193 40.4068L61.5532 40.3226L61.3616 42.0656ZM61.0132 63.1813C57.2425 69.7124 50.0969 73.0678 43.0923 72.2978L42.7091 75.7839C51.056 76.7013 59.5639 72.7057 64.0504 64.9348L61.0132 63.1813ZM59.9479 43.103C64.117 48.7843 64.7839 56.6502 61.0132 63.1813L64.0504 64.9348C68.5369 57.164 67.7433 47.7981 62.7753 41.0282L59.9479 43.103ZM43.2491 52.9252C47.0198 46.3941 54.1653 43.0387 61.17 43.8086L61.5532 40.3226C53.2063 39.4051 44.6984 43.4008 40.2119 51.1717L43.2491 52.9252ZM44.3144 73.0034C40.1453 67.3222 39.4783 59.4563 43.2491 52.9252L40.2119 51.1717C35.7254 58.9425 36.519 68.3084 41.487 75.0783L44.3144 73.0034Z" fill="#F9FCF8" mask="url(#path-4-outside-2_25_1431)"/>
<mask id="path-6-outside-3_25_1431" maskUnits="userSpaceOnUse" x="13.909" y="35.857" width="41.2766" height="43.825" fill="black">
<rect fill="white" x="13.909" y="35.857" width="41.2766" height="43.825"/>
<path fill-rule="evenodd" clip-rule="evenodd" d="M42.1649 71.5759C46.5666 65.7093 46.8612 57.3998 42.334 51.0695C38.5805 45.8211 32.4683 43.2697 26.514 43.844C22.1122 49.7106 21.8176 58.0201 26.3448 64.3504C30.0983 69.5988 36.2105 72.1503 42.1649 71.5759Z"/>
</mask>
<path fill-rule="evenodd" clip-rule="evenodd" d="M42.1649 71.5759C46.5666 65.7093 46.8612 57.3998 42.334 51.0695C38.5805 45.8211 32.4683 43.2697 26.514 43.844C22.1122 49.7106 21.8176 58.0201 26.3448 64.3504C30.0983 69.5988 36.2105 72.1503 42.1649 71.5759Z" fill="#62D14F"/>
<path d="M42.1649 71.5759L42.3332 73.3213L43.1032 73.247L43.5675 72.6282L42.1649 71.5759ZM26.514 43.844L26.3456 42.0986L25.5756 42.1729L25.1113 42.7917L26.514 43.844ZM40.9077 52.0895C44.9822 57.7868 44.7131 65.2578 40.7623 70.5235L43.5675 72.6282C48.42 66.1608 48.7403 57.0128 43.7603 50.0494L40.9077 52.0895ZM26.6823 45.5895C32.0342 45.0732 37.53 47.3667 40.9077 52.0895L43.7603 50.0494C39.631 44.2756 32.9024 41.4661 26.3456 42.0986L26.6823 45.5895ZM27.7711 63.3304C23.6966 57.6331 23.9657 50.1621 27.9166 44.8964L25.1113 42.7917C20.2588 49.2591 19.9386 58.4071 24.9185 65.3705L27.7711 63.3304ZM41.9965 69.8304C36.6446 70.3467 31.1488 68.0532 27.7711 63.3304L24.9185 65.3705C29.0479 71.1443 35.7764 73.9538 42.3332 73.3213L41.9965 69.8304Z" fill="#F9FCF8" mask="url(#path-6-outside-3_25_1431)"/>
<path d="M67.9681 26.0861C66.4339 24.5581 64.6129 23.3463 62.6091 22.5197C60.6052 21.6929 58.4575 21.2675 56.2888 21.2675C54.12 21.2675 51.9723 21.6929 49.9684 22.5197C47.9645 23.3464 46.1434 24.5582 44.6092 26.0864C44.6091 26.0865 44.6091 26.0865 44.609 26.0865C44.609 26.0866 44.6089 26.0866 44.6089 26.0867L43.0009 27.6877L41.3927 26.0864C38.2937 23.0009 34.0923 21.2689 29.7131 21.2689C25.3338 21.2689 21.1324 23.0009 18.0335 26.0864C14.9343 29.1721 13.1918 33.3589 13.1918 37.7261C13.1918 42.0933 14.9343 46.28 18.0335 49.3658L20.8789 52.1989L41.7637 72.993C42.4479 73.6742 43.554 73.6742 44.2381 72.993L65.1229 52.1989L67.9681 49.3661C69.5031 47.8384 70.7211 46.0242 71.5523 44.0269C72.3835 42.0296 72.8115 39.8885 72.8115 37.7261C72.8115 35.5636 72.3835 33.4226 71.5523 31.4252C70.7211 29.4279 69.5031 27.6137 67.9681 26.0861Z" stroke="#146939" stroke-width="3.50704" stroke-linecap="round" stroke-linejoin="round"/>
</g>
</svg>
