{"asset":{"version":"2.0","generator":"VECTARY"},"nodes":[{"translation":[0.23206029641510015,0.17415761453637824,0.3099604541733053],"scale":[1,1,1],"rotation":[-0.14661604308001885,0.31203245414551584,0.04880301773810097,0.937420796084202],"name":"Camera","camera":0},{"translation":[0,0,0],"scale":[0.006,0.006,0.006],"rotation":[-0.7071067811865475,0,0,0.7071067811865476],"name":"Plane","mesh":0},{"translation":[-0.025315321957004918,-0.05454519823431021,-0.008335747764874505],"scale":[0.0009174347273002854,0.0009174347273002854,0.0009174347273002854],"rotation":[-0.7071067811865474,0,0,0.7071067811865475],"name":"_switchable","mesh":1}],"cameras":[{"name":"Camera","type":"perspective","extras":{"targetDistance":0.4066233854206492},"perspective":{"aspectRatio":2.2027748132337246,"yfov":0.6108652381980153,"zfar":35.415230169001575,"znear":0.011216991855447491}}],"materials":[{"pbrMetallicRoughness":{"baseColorFactor":[0,0,0,1],"baseColorTexture":{"index":0,"extensions":{"KHR_texture_transform":{"offset":[0,0],"scale":[1,1],"rotation":0}},"texCoord":0},"metallicFactor":0,"roughnessFactor":1},"name":"_shadow","emissiveFactor":[0,0,0],"extensions":{},"alphaMode":"BLEND","doubleSided":false},{"pbrMetallicRoughness":{"baseColorFactor":[1,1,1,1],"metallicFactor":0,"roughnessFactor":0.5},"name":"_switchable","emissiveFactor":[0,0,0],"occlusionTexture":{"index":1,"strength":1,"extensions":{"KHR_texture_transform":{"offset":[0,0],"scale":[1,1],"rotation":0}},"texCoord":1},"extensions":{},"alphaMode":"OPAQUE","doubleSided":false}],"textures":[{"sampler":0,"source":0},{"sampler":0,"source":1}],"images":[{"uri":"colorTexture&Plane_Cube.png","mimeType":"image/png"},{"uri":"White.jpg","mimeType":"image/jpeg"}],"samplers":[{"wrapS":10497,"wrapT":10497}],"meshes":[{"primitives":[{"mode":4,"attributes":{"POSITION":1,"NORMAL":2,"TEXCOORD_0":3},"material":0,"indices":0}]},{"primitives":[{"mode":4,"attributes":{"POSITION":5,"NORMAL":6,"TEXCOORD_0":7,"TEXCOORD_1":8},"material":1,"indices":4}]}],"accessors":[{"bufferView":0,"byteOffset":0,"componentType":5125,"count":6,"type":"SCALAR"},{"bufferView":1,"byteOffset":0,"componentType":5126,"count":4,"max":[50,50,0],"min":[-50,-50,0],"type":"VEC3"},{"bufferView":2,"byteOffset":0,"componentType":5126,"count":4,"type":"VEC3"},{"bufferView":3,"byteOffset":0,"componentType":5126,"count":4,"type":"VEC2"},{"bufferView":4,"byteOffset":0,"componentType":5125,"count":2916,"type":"SCALAR"},{"bufferView":5,"byteOffset":0,"componentType":5126,"count":488,"max":[50,50,100],"min":[-50,-50,0],"type":"VEC3"},{"bufferView":6,"byteOffset":0,"componentType":5126,"count":488,"type":"VEC3"},{"bufferView":7,"byteOffset":0,"componentType":5126,"count":488,"type":"VEC2"},{"bufferView":8,"byteOffset":0,"componentType":5126,"count":488,"type":"VEC2"}],"bufferViews":[{"buffer":0,"byteOffset":0,"byteLength":24,"target":34963},{"buffer":0,"byteOffset":24,"byteLength":48,"target":34962},{"buffer":0,"byteOffset":72,"byteLength":48,"target":34962},{"buffer":0,"byteOffset":120,"byteLength":32,"target":34962},{"buffer":0,"byteOffset":152,"byteLength":11664,"target":34963},{"buffer":0,"byteOffset":11816,"byteLength":5856,"target":34962},{"buffer":0,"byteOffset":17672,"byteLength":5856,"target":34962},{"buffer":0,"byteOffset":23528,"byteLength":3904,"target":34962},{"buffer":0,"byteOffset":27432,"byteLength":3904,"target":34962}],"scene":0,"scenes":[{"nodes":[0,1,2],"name":"Box (template)"}],"extensionsUsed":["KHR_texture_transform"],"buffers":[{"byteLength":31336,"uri":"Box(template).bin"}]}