<svg width="32" height="32" viewBox="0 0 32 32" fill="none" xmlns="http://www.w3.org/2000/svg">
<path fill-rule="evenodd" clip-rule="evenodd" d="M23.3599 11.0477C24.3352 11.9813 24.9351 13.3424 24.9351 15.044C24.9351 15.5963 24.4874 16.044 23.9351 16.044C23.3828 16.044 22.9351 15.5963 22.9351 15.044C22.9351 13.8355 22.5217 13.0139 21.9769 12.4924C21.4523 11.9902 20.7498 11.7127 20.0195 11.6816C18.958 11.7176 18.211 12.0819 17.7137 12.5645C17.2312 13.0618 16.867 13.8087 16.831 14.87C16.8621 15.6004 17.1396 16.3029 17.6418 16.8275C18.1633 17.3723 18.9849 17.7857 20.1934 17.7857C20.7457 17.7857 21.1934 18.2334 21.1934 18.7857C21.1934 19.338 20.7457 19.7857 20.1934 19.7857C18.4918 19.7857 17.1307 19.1858 16.1971 18.2105C15.4119 17.3903 14.9708 16.348 14.8576 15.2858C14.8383 15.2084 14.8281 15.1274 14.8281 15.044C14.8281 14.9876 14.8288 14.9315 14.8301 14.8759C14.8288 14.828 14.8281 14.7801 14.8281 14.7322C14.8281 13.4848 15.2757 12.2165 16.1971 11.2539C16.2306 11.2189 16.2647 11.1843 16.2994 11.1503C16.3335 11.1155 16.3682 11.0813 16.4033 11.0477C17.3659 10.1263 18.6342 9.67871 19.8816 9.67871C19.9295 9.67871 19.9775 9.67937 20.0254 9.68069C20.081 9.67938 20.137 9.67872 20.1934 9.67872C20.2768 9.67872 20.3577 9.68892 20.4352 9.70814C21.4974 9.82139 22.5397 10.2625 23.3599 11.0477Z" fill="black"/>
<path fill-rule="evenodd" clip-rule="evenodd" d="M20.8789 10.6787C20.8789 11.231 20.4312 11.6787 19.8789 11.6787C18.7991 11.6787 18.0627 12.0737 17.5862 12.6098C17.0933 13.1643 16.8254 13.9319 16.8254 14.7322C16.8254 15.5325 17.0933 16.3001 17.5862 16.8546C18.0627 17.3907 18.7991 17.7857 19.8789 17.7857C20.4312 17.7857 20.8789 18.2334 20.8789 18.7857C20.8789 19.338 20.4312 19.7857 19.8789 19.7857C18.2564 19.7857 16.966 19.1673 16.0914 18.1834C15.2331 17.2178 14.8254 15.9587 14.8254 14.7322C14.8254 13.5058 15.2331 12.2466 16.0914 11.2811C16.966 10.2971 18.2564 9.67871 19.8789 9.67871C20.4312 9.67871 20.8789 10.1264 20.8789 10.6787Z" fill="black"/>
<path fill-rule="evenodd" clip-rule="evenodd" d="M20.8789 10.6787C20.8789 11.231 20.4312 11.6787 19.8789 11.6787C18.7991 11.6787 18.0627 12.0737 17.5862 12.6098C17.0933 13.1643 16.8254 13.9319 16.8254 14.7322C16.8254 15.5325 17.0933 16.3001 17.5862 16.8546C18.0627 17.3907 18.7991 17.7857 19.8789 17.7857C20.4312 17.7857 20.8789 18.2334 20.8789 18.7857C20.8789 19.338 20.4312 19.7857 19.8789 19.7857C18.2564 19.7857 16.966 19.1673 16.0914 18.1834C15.2331 17.2178 14.8254 15.9587 14.8254 14.7322C14.8254 13.5058 15.2331 12.2466 16.0914 11.2811C16.966 10.2971 18.2564 9.67871 19.8789 9.67871C20.4312 9.67871 20.8789 10.1264 20.8789 10.6787Z" fill="black"/>
<path fill-rule="evenodd" clip-rule="evenodd" d="M16.4018 18.4172C15.4265 17.4836 14.8266 16.1225 14.8266 14.4208C14.8266 13.8685 15.2743 13.4208 15.8266 13.4208C16.3789 13.4208 16.8266 13.8685 16.8266 14.4208C16.8266 15.6294 17.24 16.4509 17.7848 16.9724C18.3094 17.4746 19.0119 17.7522 19.7422 17.7832C20.8037 17.7473 21.5507 17.383 22.048 16.9003C22.5305 16.4031 22.8947 15.6562 22.9307 14.5949C22.8996 13.8645 22.6221 13.162 22.1199 12.6374C21.5984 12.0926 20.7768 11.6791 19.5683 11.6791C19.016 11.6791 18.5683 11.2314 18.5683 10.6791C18.5683 10.1269 19.016 9.67914 19.5683 9.67914C21.2699 9.67914 22.631 10.2791 23.5646 11.2543C24.3498 12.0746 24.7909 13.1169 24.9042 14.1791C24.9234 14.2565 24.9336 14.3375 24.9336 14.4208C24.9336 14.4773 24.9329 14.5333 24.9316 14.589C24.9329 14.6369 24.9336 14.6848 24.9336 14.7326C24.9336 15.9801 24.486 17.2484 23.5646 18.2109C23.5311 18.2459 23.497 18.2805 23.4624 18.3146C23.4282 18.3493 23.3935 18.3835 23.3584 18.4172C22.3958 19.3386 21.1275 19.7861 19.8801 19.7861C19.8322 19.7861 19.7843 19.7855 19.7363 19.7842C19.6807 19.7855 19.6247 19.7861 19.5683 19.7861C19.4849 19.7861 19.404 19.7759 19.3266 19.7567C18.2644 19.6435 17.2221 19.2024 16.4018 18.4172Z" fill="black"/>
<path fill-rule="evenodd" clip-rule="evenodd" d="M18.8789 18.7861C18.8789 18.2338 19.3266 17.7861 19.8789 17.7861C20.9587 17.7861 21.6951 17.3911 22.1716 16.8551C22.6645 16.3006 22.9324 15.5329 22.9324 14.7326C22.9324 13.9323 22.6645 13.1647 22.1716 12.6102C21.6951 12.0741 20.9587 11.6791 19.8789 11.6791C19.3266 11.6791 18.8789 11.2314 18.8789 10.6791C18.8789 10.1269 19.3266 9.67914 19.8789 9.67914C21.5014 9.67914 22.7918 10.2975 23.6664 11.2815C24.5247 12.2471 24.9324 13.5062 24.9324 14.7326C24.9324 15.9591 24.5247 17.2182 23.6664 18.1838C22.7918 19.1677 21.5014 19.7861 19.8789 19.7861C19.3266 19.7861 18.8789 19.3384 18.8789 18.7861Z" fill="black"/>
<path fill-rule="evenodd" clip-rule="evenodd" d="M18.8789 18.7861C18.8789 18.2338 19.3266 17.7861 19.8789 17.7861C20.9587 17.7861 21.6951 17.3911 22.1716 16.8551C22.6645 16.3006 22.9324 15.5329 22.9324 14.7326C22.9324 13.9323 22.6645 13.1647 22.1716 12.6102C21.6951 12.0741 20.9587 11.6791 19.8789 11.6791C19.3266 11.6791 18.8789 11.2314 18.8789 10.6791C18.8789 10.1269 19.3266 9.67914 19.8789 9.67914C21.5014 9.67914 22.7918 10.2975 23.6664 11.2815C24.5247 12.2471 24.9324 13.5062 24.9324 14.7326C24.9324 15.9591 24.5247 17.2182 23.6664 18.1838C22.7918 19.1677 21.5014 19.7861 19.8789 19.7861C19.3266 19.7861 18.8789 19.3384 18.8789 18.7861Z" fill="black"/>
<path fill-rule="evenodd" clip-rule="evenodd" d="M8.58681 9.66754C9.93658 9.63807 11.3233 10.1763 12.5265 11.3795C12.917 11.7701 12.917 12.4032 12.5265 12.7938C12.136 13.1843 11.5028 13.1843 11.1123 12.7938C10.2577 11.9392 9.38446 11.6506 8.63047 11.6671C7.90438 11.6829 7.21135 11.9834 6.67294 12.478C5.94788 13.2539 5.67732 14.0396 5.66695 14.7324C5.67732 15.4252 5.94788 16.211 6.67294 16.9869C7.21135 17.4814 7.90438 17.7819 8.63047 17.7978C9.38446 17.8142 10.2577 17.5257 11.1123 16.6711C11.5028 16.2806 12.136 16.2806 12.5265 16.6711C12.917 17.0616 12.917 17.6948 12.5265 18.0853C11.3233 19.2886 9.93658 19.8268 8.58681 19.7973C7.45164 19.7725 6.40275 19.3474 5.57159 18.6764C5.50324 18.6353 5.43874 18.5852 5.37978 18.5263C5.33985 18.4863 5.30065 18.4462 5.26218 18.4059C5.22741 18.373 5.19311 18.3396 5.1593 18.3058C4.27723 17.4237 3.69686 16.2104 3.66778 14.8783C3.66672 14.8297 3.66639 14.7811 3.66681 14.7324C3.66639 14.6838 3.66672 14.6351 3.66778 14.5866C3.69686 13.2544 4.27723 12.0411 5.1593 11.1591C5.19311 11.1252 5.22741 11.0919 5.26218 11.059C5.30065 11.0186 5.33985 10.9785 5.37978 10.9386C5.43874 10.8796 5.50324 10.8296 5.57159 10.7884C6.40275 10.1174 7.45164 9.69232 8.58681 9.66754Z" fill="black"/>
<path fill-rule="evenodd" clip-rule="evenodd" d="M6.57429 11.1593C6.96482 11.5498 6.96482 12.1829 6.57429 12.5735C5.81075 13.337 5.56936 14.137 5.61147 14.853C5.65504 15.5937 6.00839 16.3259 6.57429 16.8918C7.14019 17.4577 7.87241 17.811 8.61302 17.8546C9.32906 17.8967 10.1291 17.6553 10.8926 16.8918C11.2831 16.5012 11.9163 16.5012 12.3068 16.8918C12.6973 17.2823 12.6973 17.9155 12.3068 18.306C11.1595 19.4533 9.80981 19.9284 8.49558 19.8511C7.20593 19.7753 6.02731 19.1732 5.16008 18.306C4.29285 17.4388 3.69079 16.2601 3.61493 14.9705C3.53762 13.6563 4.01278 12.3066 5.16008 11.1593C5.55061 10.7687 6.18377 10.7687 6.57429 11.1593Z" fill="black"/>
<path fill-rule="evenodd" clip-rule="evenodd" d="M6.57429 11.1593C6.96482 11.5498 6.96482 12.1829 6.57429 12.5735C5.81075 13.337 5.56936 14.137 5.61147 14.853C5.65504 15.5937 6.00839 16.3259 6.57429 16.8918C7.14019 17.4577 7.87241 17.811 8.61302 17.8546C9.32906 17.8967 10.1291 17.6553 10.8926 16.8918C11.2831 16.5012 11.9163 16.5012 12.3068 16.8918C12.6973 17.2823 12.6973 17.9155 12.3068 18.306C11.1595 19.4533 9.80981 19.9284 8.49558 19.8511C7.20593 19.7753 6.02731 19.1732 5.16008 18.306C4.29285 17.4388 3.69079 16.2601 3.61493 14.9705C3.53762 13.6563 4.01278 12.3066 5.16008 11.1593C5.55061 10.7687 6.18377 10.7687 6.57429 11.1593Z" fill="black"/>
<path fill-rule="evenodd" clip-rule="evenodd" d="M27.3824 18.7734C27.2263 18.784 26.9792 18.8765 26.761 19.1674C26.4296 19.6092 25.8028 19.6988 25.361 19.3674C24.9192 19.036 24.8296 18.4092 25.161 17.9674C25.7029 17.2449 26.4691 16.8307 27.2472 16.778C28.0175 16.7258 28.8462 17.0411 29.2949 17.8102C29.7429 18.5782 29.655 19.5234 29.2106 20.4318C29.024 20.8135 28.7661 21.2103 28.4314 21.6209L29.0011 21.6209C29.5534 21.6209 30.0011 22.0686 30.0011 22.6209C30.0011 23.1732 29.5534 23.6209 29.0011 23.6209L25.961 23.6209C25.5363 23.6209 25.1579 23.3527 25.0174 22.9519C24.8768 22.5512 25.0047 22.1053 25.3363 21.84C26.5392 20.8777 27.1465 20.1001 27.414 19.5531C27.5458 19.2838 27.5842 19.0931 27.5895 18.9769C27.5946 18.8655 27.5702 18.8229 27.5673 18.8179C27.5643 18.8127 27.5594 18.8048 27.5383 18.7949C27.5137 18.7833 27.4624 18.768 27.3824 18.7734Z" fill="black"/>
</svg>
