<svg width="32" height="32" viewBox="0 0 32 32" fill="none" xmlns="http://www.w3.org/2000/svg">
<path fill-rule="evenodd" clip-rule="evenodd" d="M16.5999 15.3404C16.9906 15.6505 17.0378 16.1975 16.7055 16.562C14.9954 18.4383 13.5531 21.3147 13.2646 23.6579C13.1199 24.833 13.2811 25.7419 13.6856 26.3282C14.0497 26.8559 14.7117 27.2671 15.9983 27.2671C16.5111 27.2671 16.9268 27.6552 16.9268 28.1338C16.9268 28.6124 16.5111 29.0005 15.9983 29.0005C14.223 29.0005 12.9008 28.3923 12.1242 27.2666C11.388 26.1995 11.2521 24.8209 11.4196 23.46C11.7556 20.7311 13.3752 17.5408 15.291 15.4389C15.6233 15.0743 16.2093 15.0302 16.5999 15.3404Z" fill="#09090A"/>
<path fill-rule="evenodd" clip-rule="evenodd" d="M15.4001 15.3404C15.0094 15.6505 14.9622 16.1975 15.2945 16.562C17.0046 18.4383 18.4469 21.3147 18.7354 23.6579C18.8801 24.833 18.7189 25.7419 18.3144 26.3282C17.9503 26.8559 17.2883 27.2671 16.0017 27.2671C15.4889 27.2671 15.0732 27.6552 15.0732 28.1338C15.0732 28.6124 15.4889 29.0005 16.0017 29.0005C17.777 29.0005 19.0992 28.3923 19.8758 27.2666C20.612 26.1995 20.7479 24.8209 20.5804 23.46C20.2444 20.7311 18.6248 17.5408 16.709 15.4389C16.3767 15.0743 15.7907 15.0302 15.4001 15.3404Z" fill="#09090A"/>
<path fill-rule="evenodd" clip-rule="evenodd" d="M8.24448 3.20656C8.6351 3.5167 8.68237 4.06367 8.35008 4.42824C6.63991 6.30452 5.19764 9.1809 4.90916 11.5241C4.76448 12.6992 4.92567 13.6081 5.33016 14.1944C5.69421 14.7221 6.35619 15.1333 7.6428 15.1333C8.15564 15.1333 8.57138 15.5214 8.57138 16C8.57138 16.4787 8.15564 16.8667 7.6428 16.8667C5.86751 16.8667 4.54529 16.2585 3.76869 15.1328C3.03252 14.0657 2.89658 12.6872 3.06414 11.3262C3.40012 8.59727 5.01975 5.40698 6.93552 3.30512C7.26782 2.94055 7.85386 2.89642 8.24448 3.20656Z" fill="#09090A"/>
<path fill-rule="evenodd" clip-rule="evenodd" d="M7.04068 3.20656C6.65006 3.5167 6.60278 4.06367 6.93508 4.42824C8.64524 6.30452 10.0875 9.1809 10.376 11.5241C10.5207 12.6992 10.3595 13.6081 9.955 14.1944C9.59095 14.7221 8.92897 15.1333 7.64236 15.1333C7.12952 15.1333 6.71378 15.5214 6.71378 16C6.71378 16.4787 7.12952 16.8667 7.64236 16.8667C9.41765 16.8667 10.7399 16.2585 11.5165 15.1328C12.2526 14.0657 12.3886 12.6872 12.221 11.3262C11.885 8.59727 10.2654 5.40698 8.34963 3.30512C8.01734 2.94055 7.4313 2.89642 7.04068 3.20656Z" fill="#09090A"/>
<path fill-rule="evenodd" clip-rule="evenodd" d="M24.9593 3.20656C25.3499 3.5167 25.3972 4.06367 25.0649 4.42824C23.3548 6.30452 21.9125 9.1809 21.624 11.5241C21.4793 12.6992 21.6405 13.6081 22.045 14.1944C22.4091 14.7221 23.071 15.1333 24.3576 15.1333C24.8705 15.1333 25.2862 15.5214 25.2862 16C25.2862 16.4787 24.8705 16.8667 24.3576 16.8667C22.5824 16.8667 21.2601 16.2585 20.4835 15.1328C19.7474 14.0657 19.6114 12.6872 19.779 11.3262C20.115 8.59727 21.7346 5.40698 23.6504 3.30512C23.9827 2.94055 24.5687 2.89642 24.9593 3.20656Z" fill="#09090A"/>
<path fill-rule="evenodd" clip-rule="evenodd" d="M23.7555 3.20656C23.3649 3.5167 23.3176 4.06367 23.6499 4.42824C25.3601 6.30452 26.8024 9.1809 27.0908 11.5241C27.2355 12.6992 27.0743 13.6081 26.6698 14.1944C26.3058 14.7221 25.6438 15.1333 24.3572 15.1333C23.8444 15.1333 23.4286 15.5214 23.4286 16C23.4286 16.4787 23.8444 16.8667 24.3572 16.8667C26.1325 16.8667 27.4547 16.2585 28.2313 15.1328C28.9675 14.0657 29.1034 12.6872 28.9359 11.3262C28.5999 8.59727 26.9802 5.40698 25.0645 3.30512C24.7322 2.94055 24.1461 2.89642 23.7555 3.20656Z" fill="#09090A"/>
</svg>
