<svg width="86" height="86" viewBox="0 0 86 86" fill="none" xmlns="http://www.w3.org/2000/svg">
<path d="M15.4701 15.9849C15.4701 14.5136 16.6628 13.3209 18.1341 13.3209H21.6862C23.1575 13.3209 24.3503 14.5136 24.3503 15.9849V31.0813H15.4701V15.9849Z" fill="#62D14F" stroke="#62D14F" stroke-width="1.77604"/>
<path d="M61.6497 15.9849C61.6497 14.5136 62.8425 13.3209 64.3138 13.3209H67.8659C69.3372 13.3209 70.5299 14.5136 70.5299 15.9849V32.8573H61.6497V15.9849Z" fill="#62D14F" stroke="#62D14F" stroke-width="1.77604"/>
<path d="M19.7234 28.1632C16.2924 27.091 12.806 29.6542 12.806 33.2488V69.2662C12.806 72.2088 15.1915 74.5943 18.1341 74.5943H67.8633C70.8059 74.5943 73.1914 72.2088 73.1914 69.2662V33.2487C73.1914 29.6542 69.705 27.091 66.274 28.1632L43.5285 35.2712C43.1835 35.379 42.8139 35.379 42.469 35.2712L19.7234 28.1632Z" fill="#F9FCF8" stroke="#146939" stroke-width="3.55208"/>
<path d="M30.5664 46.1765V53.2807H37.6706" stroke="#62D14F" stroke-width="3.55208" stroke-linecap="round" stroke-linejoin="round"/>
<path d="M55.4323 63.9369V56.8328H48.3281" stroke="#62D14F" stroke-width="3.55208" stroke-linecap="round" stroke-linejoin="round"/>
<path d="M52.5942 51.5048C52.021 49.8074 51.0468 48.2898 49.7625 47.0937C48.4782 45.8975 46.9256 45.0618 45.2497 44.6644C43.5739 44.2671 41.8292 44.321 40.1786 44.8214C38.528 45.3217 37.0253 46.252 35.8106 47.5255L30.5664 52.6892M55.431 57.4265L50.1868 62.5903C48.9721 63.8638 47.4694 64.7941 45.8188 65.2944C44.1682 65.7947 42.4235 65.8487 40.7476 65.4513C39.0718 65.054 37.5192 64.2182 36.2349 63.022C34.9506 61.8259 33.9764 60.3083 33.4032 58.6109" stroke="#62D14F" stroke-width="3.55208" stroke-linecap="round" stroke-linejoin="round"/>
</svg>
