{
    "asset" : {
        "generator" : "Khronos glTF Blender I/O v3.3.32",
        "version" : "2.0"
    },
    "scene" : 0,
    "scenes" : [
        {
            "name" : "Scene",
            "nodes" : [
                0
            ]
        }
    ],
    "nodes" : [
        {
            "mesh" : 0,
            "name" : "Cube"
        }
    ],
    "materials" : [
        {
            "doubleSided" : true,
            "name" : "Material",
            "pbrMetallicRoughness" : {
                "baseColorFactor" : [
                    0.8387982249259949,
                    0.8387984037399292,
                    0.8387991189956665,
                    1
                ],
                "metallicFactor" : 0.6601941585540771,
                "roughnessFactor" : 0.5
            }
        }
    ],
    "meshes" : [
        {
            "name" : "Cube.005",
            "primitives" : [
                {
                    "attributes" : {
                        "POSITION" : 0,
                        "NORMAL" : 1,
                        "TEXCOORD_0" : 2
                    },
                    "indices" : 3,
                    "material" : 0
                }
            ]
        }
    ],
    "accessors" : [
        {
            "bufferView" : 0,
            "componentType" : 5126,
            "count" : 16704,
            "max" : [
                0.7888787984848022,
                0.7888787984848022,
                0.7888787388801575
            ],
            "min" : [
                -0.7960149049758911,
                -0.7960150241851807,
                -0.7888787984848022
            ],
            "type" : "VEC3"
        },
        {
            "bufferView" : 1,
            "componentType" : 5126,
            "count" : 16704,
            "type" : "VEC3"
        },
        {
            "bufferView" : 2,
            "componentType" : 5126,
            "count" : 16704,
            "type" : "VEC2"
        },
        {
            "bufferView" : 3,
            "componentType" : 5123,
            "count" : 84480,
            "type" : "SCALAR"
        }
    ],
    "bufferViews" : [
        {
            "buffer" : 0,
            "byteLength" : 200448,
            "byteOffset" : 0,
            "target" : 34962
        },
        {
            "buffer" : 0,
            "byteLength" : 200448,
            "byteOffset" : 200448,
            "target" : 34962
        },
        {
            "buffer" : 0,
            "byteLength" : 133632,
            "byteOffset" : 400896,
            "target" : 34962
        },
        {
            "buffer" : 0,
            "byteLength" : 168960,
            "byteOffset" : 534528,
            "target" : 34963
        }
    ],
    "buffers" : [
        {
            "byteLength" : 703488,
            "uri" : "data:application/octet-stream;base64,"
        }
    ]
}
