<svg width="90" height="89" viewBox="0 0 90 89" fill="none" xmlns="http://www.w3.org/2000/svg">
<path d="M47.1033 70.1248C45.4337 69.2565 43.4383 69.2914 41.8 70.2174L35.4878 73.7852C34.1808 73.5027 32.756 73.5893 31.5194 74.0467L24.3528 76.6977C23.2625 77.101 22.3275 77.7591 21.7742 78.7062C21.1991 79.6903 21.1453 80.8117 21.5461 81.8088C22.3168 83.7264 24.4727 84.7481 26.7876 84.7481H63.9941C66.3449 84.7481 68.5316 83.6965 69.2678 81.7258C69.6497 80.7033 69.5548 79.5716 68.9436 78.5988C68.3559 77.6632 67.3916 77.023 66.2712 76.6417L58.4813 73.9907C57.1686 73.5439 55.6603 73.504 54.3114 73.873L47.1033 70.1248Z" fill="#F9FCF8" stroke="#146939" stroke-width="3.70833"/>
<path d="M50.3762 31.5305C46.7263 36.9795 45.8893 43.6283 47.5629 49.5691C53.3862 49.1924 59.0151 46.1431 62.6512 40.7146C66.3011 35.2656 67.138 28.6167 65.4645 22.6759C59.6411 23.0527 54.0123 26.102 50.3762 31.5305Z" fill="#62D14F" stroke="#62D14F" stroke-width="2.69697"/>
<path d="M46.8535 46.9663C46.9054 45.7088 47.7011 44.3657 48.4537 43.3333C49.925 41.3146 51.8996 39.6862 53.6295 37.8571C55.0442 36.3615 56.8134 35.1478 58.2128 33.657C58.686 33.1529 59.5057 32.7196 59.8327 32.1329" stroke="#146939" stroke-width="3.70833" stroke-linecap="round"/>
<path d="M47.9377 55.8797L48.9203 55.9542L49.2897 55.0407C52.5512 46.9763 52.2021 37.4543 47.5352 29.4248C42.8647 21.3891 34.931 16.6795 26.5517 16.0442L25.5691 15.9697L25.1997 16.8832C21.9381 24.9476 22.2873 34.4696 26.9542 42.4992C31.6247 50.5348 39.5583 55.2444 47.9377 55.8797Z" fill="#62D14F" stroke="#F9FCF8" stroke-width="2.69697"/>
<path d="M38.0684 36.1206C38.5256 36.5432 38.8586 37.1207 39.2209 37.6206C40.2718 39.0708 41.3616 40.5168 42.3096 42.0372C43.1699 43.4169 43.9268 44.8283 44.6472 46.2831C45.9203 48.8544 47.2861 51.9485 47.2335 54.8755C47.1972 56.8951 47.1812 58.8425 46.8459 60.8452C46.6484 62.0247 46.4355 63.1936 46.2045 64.3656C46.0457 65.1711 46.004 66.0078 45.8084 66.799C45.7419 67.0678 45.4069 68.2647 45.625 68.457" stroke="#146939" stroke-width="3.70833" stroke-linecap="round"/>
<path d="M38.1504 35.1257C38.1504 34.5164 38.3166 33.9314 38.445 33.3402C38.5173 33.0073 38.5778 32.6727 38.6533 32.3403C38.757 31.884 38.7706 31.4146 38.872 30.9581C38.9821 30.4629 39.0536 29.9628 39.1785 29.4702C39.2391 29.2313 39.2884 28.9893 39.3407 28.7485C39.3612 28.6545 39.4092 28.5539 39.4092 28.4569" stroke="#146939" stroke-width="3.70833" stroke-linecap="round"/>
<path d="M37.5338 35.7679C37.1422 35.7529 36.7544 35.5513 36.3732 35.4733C35.8931 35.3752 35.4135 35.2615 34.9359 35.152C34.5856 35.0716 34.2504 34.9234 33.9122 34.8038C33.7311 34.7398 33.5408 34.7001 33.3572 34.6431C33.2721 34.6167 33.1786 34.5627 33.0879 34.5627" stroke="#146939" stroke-width="3.70833" stroke-linecap="round"/>
</svg>
