<svg width="32" height="32" viewBox="0 0 32 32" fill="none" xmlns="http://www.w3.org/2000/svg">
<path d="M16 26.6663C20.4183 26.6663 24 23.0846 24 18.6663C24 16.6174 23.3333 15.333 21.963 13.333L16.6667 5.33301C16 8.66634 14.6667 9.99967 13.3333 12.6663L11.3333 9.33301C10.6667 11.333 8 16.0988 8 18.6663C8 23.0846 11.5817 26.6663 16 26.6663ZM16 26.6663C18.2091 26.6663 20 24.7561 20 22.3997C20 21.3069 19.6149 20.3101 18.9815 19.5552L16 15.9997L13.0185 19.5552C12.3851 20.3101 12 21.3069 12 22.3997C12 24.7561 13.7909 26.6663 16 26.6663Z" stroke="#212121" stroke-width="2" stroke-linecap="round" stroke-linejoin="round"/>
</svg>
