<svg width="166" height="170" viewBox="0 0 166 170" fill="none" xmlns="http://www.w3.org/2000/svg">
<path d="M166 85.6367C166 131.476 131.633 177.066 83 168.637C34.3672 160.207 0 131.476 0 85.6367C0 39.7971 36.3125 16.9022 83 2.63671C129.688 -11.6288 166 39.7971 166 85.6367Z" fill="#E4F5FE"/>
<path d="M138.124 47.8629C138.224 47.9778 137.649 47.8629 146.012 49.3423V48.8594L138.515 47.3646C128.481 35.92 114.591 31.7423 99.2604 32.1869C98.1106 28.3542 92.7064 10.4246 91.7405 7.94094C90.6674 5.18136 88.8353 3.89355 85.9761 3.89355C83.2855 3.89355 43.8158 14.4719 41.5162 15.1082C37.1545 16.281 23.6709 19.6232 14.6869 21.9381C6.13222 24.1535 7.07507 29.6113 7.66532 32.8691C10.9615 51.4197 18.7803 78.7932 31.367 107.799C30.174 111.469 29.7003 115.334 29.9719 119.183C31.0298 133.578 42.1524 143.958 53.597 147.131L54.4249 149.538H55.2451C54.2409 146.786 54.3099 146.564 53.9879 146.472C42.1601 143.076 31.9956 132.482 30.9071 119.106C30.1406 109.47 34.7399 99.444 41.2785 93.5032C43.2332 91.7402 47.4109 88.9039 48.7984 91.1116C42.758 100.747 38.4883 111.739 37.4841 119.436C38.0113 119.347 38.5527 119.408 39.0471 119.611C39.5415 119.815 39.9692 120.152 40.282 120.585C40.4507 120.815 40.3817 121.268 39.9984 120.884C39.711 120.618 39.3727 120.413 39.0038 120.281C38.6349 120.149 38.2431 120.094 37.8521 120.118C37.78 120.126 37.7104 120.149 37.6472 120.184C37.584 120.22 37.5286 120.268 37.4841 120.325C37.2465 120.654 37.4841 121.145 37.7984 121.413C38.4512 121.905 39.2298 122.203 40.0444 122.272C40.1743 122.282 40.3048 122.261 40.4249 122.21C40.545 122.16 40.6511 122.081 40.7343 121.981C43.2256 118.9 45.4733 115.629 47.4569 112.199C48.3272 115.193 49.648 118.036 51.374 120.631L49.8256 123.475C49.817 123.489 49.8113 123.505 49.8088 123.521C49.8063 123.538 49.807 123.554 49.8109 123.57C49.8148 123.586 49.8219 123.601 49.8316 123.615C49.8414 123.628 49.8536 123.639 49.8677 123.648C49.8818 123.656 49.8975 123.662 49.9138 123.665C49.9301 123.667 49.9467 123.666 49.9627 123.662C49.9787 123.659 49.9938 123.652 50.0071 123.642C50.0204 123.632 50.0316 123.62 50.0402 123.606L52.1252 120.792C52.1533 120.749 52.1682 120.698 52.1682 120.647C52.1682 120.595 52.1533 120.545 52.1252 120.501C50.9204 118.718 49.8934 116.82 49.059 114.836C48.2529 112.875 47.6542 110.835 47.273 108.75C44.7203 93.6336 61.5001 102.434 65.5475 123.652C67.4946 133.77 64.6123 139.749 64.6123 140.24C64.6157 140.277 64.6312 140.312 64.6566 140.339C64.682 140.367 64.7157 140.385 64.7526 140.391C64.7894 140.397 64.8272 140.391 64.8601 140.373C64.893 140.356 64.9191 140.328 64.9343 140.293C66.5859 135.609 67.1111 130.601 66.4674 125.675C67.709 125.73 68.9519 125.598 70.1545 125.284C71.3273 128.351 71.5956 131.118 70.4228 134.284C70.3973 134.331 70.3839 134.383 70.3839 134.437C70.3839 134.491 70.3973 134.543 70.4228 134.59L80.8708 149.538H81.829L71.0437 134.36C71.1908 133.992 71.3187 133.615 71.427 133.234C71.427 133.234 91.3573 127.63 96.6081 125.852C99.9886 124.702 113.894 120.233 118.623 118.73C123.575 117.159 125.653 115.749 126.542 113.365C127.431 110.981 126.105 107.646 123.077 100.203C121.475 96.2552 113.112 73.9179 112.591 72.6071C117.19 72.5228 123.384 70.2308 127.155 67.8391L145.982 77.2907V76.5242L127.147 66.7047C124.265 68.3757 119.766 71.3883 112.46 72.2238C107.815 59.8594 108.482 62.09 105.952 54.0413C107.01 53.9186 108.076 53.7653 109.126 53.5966L115.465 58.4719C115.5 58.5004 115.544 58.5139 115.589 58.5096C115.633 58.5053 115.674 58.4835 115.703 58.4489C115.731 58.4144 115.745 58.3699 115.741 58.3253C115.736 58.2808 115.714 58.2397 115.68 58.2113L109.455 52.9528C109.218 52.7611 109.141 52.9527 105.745 53.244C102.051 53.6196 93.6876 54.0719 90.7287 51.8566C89.1956 50.6608 89.5252 49.1507 90.836 47.6789C96.2019 41.8991 111.755 39.7988 120.118 39.5075C120.138 39.5123 120.16 39.5126 120.18 39.5081C120.2 39.5036 120.219 39.4946 120.236 39.4817C120.252 39.4688 120.266 39.4523 120.275 39.4336C120.284 39.4148 120.288 39.3942 120.288 39.3733C120.288 39.3525 120.284 39.3319 120.275 39.3131C120.266 39.2943 120.252 39.2778 120.236 39.2649C120.219 39.252 120.2 39.243 120.18 39.2385C120.16 39.2341 120.138 39.2343 120.118 39.2392C114.038 39.2465 107.984 40.0191 102.097 41.5388C101.207 38.6259 100.295 35.6287 99.406 32.6852C127.776 32.8538 136.354 46.7284 138.124 47.8629ZM15.2848 24.1381C24.7211 21.7005 77.613 7.84129 84.7803 6.36185C85.7447 6.0826 86.7729 6.1175 87.7161 6.4615C88.9043 6.96742 89.4102 8.10191 90.0158 9.80365C73.7496 13.3451 20.6967 27.3193 9.64302 30.8914C9.30573 28.1625 9.77333 25.5639 15.2848 24.1381ZM9.66601 31.0371C17.0632 28.7374 42.2751 22.0991 49.8026 20.1291C80.3956 12.065 90.0235 9.94163 90.0388 9.93397C90.4757 11.2448 91.135 13.3298 91.9322 15.9207C76.8081 18.9103 24.4758 33.0991 10.8772 37.3841C10.4862 35.6057 9.87298 32.6162 9.66601 31.0524V31.0371ZM10.9155 37.5221C20.9496 34.4559 77.843 18.9486 91.9782 16.0587C92.7447 18.5807 93.6722 21.5779 94.6458 24.7897C82.9559 27.2887 25.7789 42.313 12.9852 46.2531C12.1343 42.8573 11.4291 39.8524 10.9155 37.5374V37.5221ZM49.059 90.7283C47.3496 88.3674 43.1183 91.1116 40.8876 93.028C38.6895 94.9781 36.7773 97.2284 35.2075 99.7123C33.9273 99.2524 32.8542 96.6461 31.7043 93.7945C30.0472 89.802 28.6542 85.7049 27.5343 81.5297C27.2277 80.1883 27.1817 79.1534 28.2549 78.2566C29.5657 77.1374 35.1538 75.3437 36.8019 74.8148C39.9447 73.8029 43.4862 72.975 46.698 72.2621C47.9705 71.9862 49.3273 72.0168 50.0862 72.8294C51.213 74.0099 53.2597 80.0043 54.4172 83.3771C53.1447 84.9102 51.9106 86.5123 50.7301 88.2141C48.0056 86.4715 45.1016 85.0272 42.0681 83.906C42.8346 82.5569 46.0695 76.7541 47.0813 74.8684C47.1047 74.8278 47.111 74.7795 47.0988 74.7342C47.0865 74.6889 47.0568 74.6503 47.0162 74.627C46.9755 74.6036 46.9272 74.5973 46.8819 74.6095C46.8367 74.6217 46.7981 74.6515 46.7747 74.6921C44.6514 77.8886 42.9036 80.7249 41.2939 83.6071C37.4994 82.2043 34.3949 81.3074 30.8305 80.3416C30.7857 80.3263 30.7368 80.3295 30.6944 80.3503C30.652 80.3712 30.6196 80.408 30.6043 80.4527C30.5891 80.4975 30.5922 80.5464 30.6131 80.5888C30.6339 80.6312 30.6707 80.6636 30.7155 80.6789C33.1608 81.6447 37.4918 83.0628 40.8799 84.343C38.8693 87.9487 37.1863 91.7276 35.8514 95.6343C35.8427 95.6748 35.8486 95.7171 35.868 95.7538C35.8874 95.7905 35.9192 95.8191 35.9576 95.8346C35.9961 95.8502 36.0388 95.8517 36.0782 95.8389C36.1177 95.8261 36.1513 95.7998 36.1733 95.7646C38.9712 89.6935 41.3092 85.3165 41.6695 84.6419C44.6796 85.7647 47.5943 87.1285 50.3852 88.72C49.9252 89.3485 49.4806 90.0308 49.059 90.7283ZM52.8918 101.284C53.2291 100.479 53.5587 99.674 53.873 98.8691C55.9733 98.9534 60.128 99.2907 61.2625 101.069C62.397 102.847 60.0284 104.68 57.8897 105.377C56.5257 103.681 54.8236 102.287 52.8918 101.284ZM58.4416 106.052C61.3315 106.588 68.1001 107.83 68.5984 110.735C68.997 112.928 65.7008 114.177 63.3245 114.438C62.0691 111.446 60.4358 108.628 58.4646 106.052H58.4416ZM66.3371 125.261C65.9488 122.295 65.2289 119.382 64.1907 116.576C66.9503 117.565 73.3357 120.409 72.4081 123.115C71.8102 124.886 68.3991 125.292 66.3601 125.261H66.3371ZM124.388 112.552C123.882 113.916 122.617 115.066 117.911 116.561C94.1015 124.119 95.489 124.135 71.7796 130.765C71.8375 128.814 71.3689 126.884 70.4228 125.177C70.9441 125.054 71.4314 124.816 71.8491 124.48C72.2668 124.145 72.6044 123.72 72.8374 123.238C73.9412 120.064 67.027 117.105 63.9224 115.902C63.6081 115.074 63.5468 114.959 63.4932 114.829C66.1224 114.453 69.4109 113.058 68.997 110.674C68.9414 110.352 68.8271 110.043 68.6597 109.762C68.6597 109.762 116.623 95.5729 118.616 95.067C122.234 104.45 125.17 110.498 124.411 112.552H124.388ZM90.5064 47.3953C88.5057 49.6413 89.5329 51.0594 89.5252 51.159C89.7636 51.5592 90.0789 51.9083 90.4527 52.1862C90.9852 52.6095 91.5766 52.953 92.2081 53.2057C80.4876 56.7855 29.3434 71.5033 29.1287 71.5723C26.3078 72.3388 24.4451 72.8907 22.9963 68.782C26.0625 65.2176 36.2653 53.3437 38.3273 51.8719C39.0537 51.3292 39.9349 51.0336 40.8416 51.0287C44.0075 50.9367 60.0897 58.5102 62.9029 57.1611C64.8346 56.2259 71.5266 45.7089 71.5956 45.6092C76.3865 38.2273 75.7656 38.6489 86.6736 40.4273C89.1036 40.8259 92.4228 41.3625 96.7384 42.0447L97.068 43.2329C94.5921 44.2217 92.1008 45.6092 90.5294 47.3876L90.5064 47.3953ZM22.774 68.2838C21.4632 64.451 17.9218 53.1137 18.1287 51.4197C18.2211 50.8128 18.4876 50.2457 18.8957 49.7872C19.3039 49.3287 19.8363 48.9984 20.4284 48.8364C22.9657 48.1235 89.2339 30.0099 91.0506 30.0099C92.4994 30.0099 93.059 30.7765 93.6109 32.1792C94.7591 35.2653 95.7517 38.407 96.5851 41.5925C80.4876 38.9402 79.2381 38.4113 76.9691 38.9402C75.0604 39.3848 74.2095 40.4733 71.0667 45.2489C68.7134 48.8824 63.9148 55.9346 62.6346 56.5709C61.5308 57.1075 60.9405 56.9235 57.6827 55.904C53.5127 54.5932 51.236 53.8573 46.3761 51.9332C43.4479 50.7681 40.5963 49.5033 37.944 51.3813C35.5294 53.1367 24.6827 65.9841 22.774 68.2838ZM99.9043 42.1521C99.1377 42.3974 98.3175 42.681 97.4973 43.0106C96.5331 39.2931 95.3662 35.6312 94.0018 32.0413C93.3809 30.5082 92.691 29.6266 91.02 29.6036C90.0924 29.6036 50.1628 39.9214 20.2827 48.4301C19.6122 48.6199 19.0101 48.9981 18.5482 49.5199C18.0862 50.0417 17.7836 50.685 17.6765 51.3737C17.4158 53.3437 20.8653 64.405 22.4521 68.69C24.3148 73.7186 26.3691 72.7221 29.9949 71.7562C44.9963 67.8468 77.521 58.3109 92.9057 53.4817C96.2172 54.5855 100.18 54.5012 103.637 54.2482C104.918 58.3493 105.937 61.4921 106.489 62.8872C107.508 65.4858 116.707 90.0078 118.585 94.9137C114.944 95.8182 113.135 96.4008 68.5984 109.624C66.9503 107.079 61.7914 105.86 58.7329 105.492C60.427 104.726 62.0674 103.499 61.9524 101.659C61.8374 99.8196 58.9705 99.0761 58.0353 98.8461C56.742 98.5451 55.4224 98.3706 54.0953 98.3248C55.9316 93.6566 57.2728 88.8084 58.0966 83.86C58.3189 82.4573 55.9503 81.5604 55.1914 82.4036L54.5322 83.1702C52.7461 77.881 51.1824 73.5806 50.1705 72.4998C49.404 71.6336 47.8095 71.8022 46.6444 71.9785C42.6277 72.6071 30.4702 75.9569 28.0785 77.9806C27.2507 78.8008 26.7831 79.4141 27.266 81.5221C28.3683 85.7366 29.759 89.8704 31.4284 93.8942C32.3406 96.1248 33.6207 99.3827 35.0618 99.9039C34.086 101.446 33.2301 103.06 32.5015 104.733C25.2117 88.1144 20.2367 75.6043 13.0158 46.4754C24.905 42.865 85.2708 27.0587 94.6841 25.012C95.3433 27.1047 98.8848 38.6796 99.9043 42.1521Z" fill="black"/>
<path d="M58.5793 79.5521C58.0121 79.3452 56.8776 81.0852 56.594 81.5682C56.5863 81.5803 56.5815 81.5941 56.5801 81.6085C56.5788 81.6228 56.5807 81.6373 56.586 81.6507C56.5912 81.6641 56.5995 81.6761 56.6102 81.6858C56.6209 81.6954 56.6337 81.7024 56.6476 81.7061C57.0809 81.8046 57.4868 81.9984 57.8358 82.2734C57.8444 82.2832 57.855 82.291 57.8669 82.2964C57.8788 82.3018 57.8917 82.3045 57.9048 82.3045C57.9178 82.3045 57.9307 82.3018 57.9426 82.2964C57.9545 82.291 57.9651 82.2832 57.9738 82.2734C58.2114 81.7675 59.1466 79.7821 58.5793 79.5521ZM17.1703 31.6964C15.6934 31.9854 14.2623 32.4727 12.916 33.1452C13.362 32.4611 13.7639 31.7494 14.1194 31.0142C14.1259 30.9973 14.1262 30.9786 14.1202 30.9615C14.1142 30.9444 14.1023 30.9299 14.0867 30.9208C14.0711 30.9116 14.0527 30.9082 14.0348 30.9113C14.017 30.9144 14.0008 30.9237 13.9891 30.9375C13.485 31.6936 13.0317 32.4823 12.6323 33.2985C12.502 33.5745 14.7787 34.203 15.0776 34.249C15.0937 34.249 15.1094 34.244 15.1225 34.2346C15.1355 34.2252 15.1453 34.2119 15.1504 34.1966C15.1554 34.1814 15.1556 34.1649 15.1508 34.1495C15.146 34.1342 15.1365 34.1207 15.1236 34.1111C14.433 33.7715 13.7049 33.5142 12.9543 33.3445C14.3362 32.7617 15.7548 32.27 17.201 31.8727C17.339 31.7884 17.3006 31.6734 17.1703 31.6964ZM25.2038 29.6267C24.3495 29.1705 23.46 28.7834 22.5438 28.4693C22.5263 28.4649 22.5079 28.4668 22.4917 28.4748C22.4755 28.4827 22.4626 28.496 22.4552 28.5125C22.4479 28.529 22.4466 28.5475 22.4516 28.5648C22.4566 28.5822 22.4675 28.5972 22.4825 28.6072C23.2224 29.0107 23.991 29.3592 24.7822 29.6497C23.3181 29.7913 21.8838 30.1531 20.5278 30.7229C20.5128 30.733 20.5019 30.748 20.4969 30.7653C20.4919 30.7826 20.4932 30.8012 20.5005 30.8176C20.5079 30.8341 20.5208 30.8475 20.537 30.8554C20.5532 30.8633 20.5716 30.8652 20.5891 30.8609C21.601 30.5389 23.0651 30.2553 24.9661 29.8644C24.4726 30.4625 24.0339 31.1039 23.6553 31.7807C23.6504 31.7976 23.6509 31.8156 23.6567 31.8322C23.6625 31.8488 23.6733 31.8631 23.6876 31.8733C23.702 31.8834 23.7192 31.8888 23.7367 31.8887C23.7543 31.8886 23.7714 31.883 23.7856 31.8727C24.3344 31.2232 24.8196 30.5224 25.2344 29.7801C25.2458 29.7694 25.2544 29.7559 25.2591 29.741C25.2639 29.7261 25.2648 29.7102 25.2617 29.6949C25.2587 29.6795 25.2517 29.6652 25.2416 29.6533C25.2314 29.6414 25.2184 29.6322 25.2038 29.6267ZM32.049 28.6149C32.025 29.0644 31.8397 29.4901 31.5271 29.8139C31.2145 30.1378 30.7956 30.338 30.3473 30.378C29.9166 30.4119 29.487 30.3004 29.1271 30.0614C28.7672 29.8224 28.4978 29.4696 28.3619 29.0595C28.2487 28.6371 28.2883 28.1883 28.4739 27.7922C28.6594 27.3962 28.9788 27.0785 29.3759 26.8951C29.7729 26.7117 30.2219 26.6745 30.6437 26.79C31.0655 26.9055 31.4329 27.1663 31.6811 27.5264C31.3102 27.5085 30.9384 27.5213 30.5696 27.5647C30.5493 27.5647 30.5298 27.5728 30.5154 27.5872C30.501 27.6016 30.493 27.621 30.493 27.6414C30.493 27.6617 30.501 27.6812 30.5154 27.6956C30.5298 27.71 30.5493 27.718 30.5696 27.718C30.9951 27.7638 31.4243 27.7638 31.8497 27.718C31.8666 27.7142 31.8819 27.7056 31.8941 27.6934C31.9063 27.6812 31.9149 27.6659 31.9187 27.649C32.0144 27.206 32.0377 26.7504 31.9877 26.2999C31.9877 26.2796 31.9796 26.2601 31.9653 26.2457C31.9509 26.2313 31.9314 26.2233 31.9111 26.2233C31.8907 26.2233 31.8712 26.2313 31.8569 26.2457C31.8425 26.2601 31.8344 26.2796 31.8344 26.2999C31.7572 26.6547 31.7288 27.0183 31.7501 27.3808C30.3473 25.3571 27.4267 27.0281 28.0707 29.2051C28.7682 31.6504 32.486 31.0219 32.21 28.6686C32.2171 28.6472 32.2155 28.6239 32.2054 28.6038C32.1954 28.5837 32.1777 28.5684 32.1564 28.5612C32.135 28.5541 32.1117 28.5558 32.0916 28.5658C32.0715 28.5759 32.0562 28.5935 32.049 28.6149ZM14.3417 26.1236C14.1446 26.1236 13.952 26.1821 13.7881 26.2916C13.6242 26.4011 13.4965 26.5567 13.4211 26.7388C13.3457 26.9209 13.3259 27.1212 13.3644 27.3145C13.4028 27.5078 13.4977 27.6854 13.6371 27.8248C13.7765 27.9641 13.954 28.059 14.1473 28.0975C14.3406 28.1359 14.541 28.1162 14.7231 28.0408C14.9052 27.9654 15.0608 27.8376 15.1703 27.6738C15.2798 27.5099 15.3383 27.3172 15.3383 27.1201C15.3383 26.8558 15.2333 26.6024 15.0464 26.4155C14.8595 26.2286 14.606 26.1236 14.3417 26.1236ZM17.8602 25.0658C17.6631 25.0658 17.4704 25.1242 17.3066 25.2337C17.1427 25.3432 17.015 25.4988 16.9395 25.6809C16.8641 25.863 16.8444 26.0634 16.8828 26.2567C16.9213 26.45 17.0162 26.6276 17.1556 26.7669C17.2949 26.9063 17.4725 27.0012 17.6658 27.0397C17.8591 27.0781 18.0595 27.0584 18.2416 26.9829C18.4236 26.9075 18.5793 26.7798 18.6888 26.6159C18.7983 26.452 18.8567 26.2594 18.8567 26.0623C18.8567 25.798 18.7517 25.5445 18.5648 25.3576C18.378 25.1708 18.1245 25.0658 17.8602 25.0658ZM21.3863 24.0309C21.1892 24.0309 20.9966 24.0894 20.8327 24.1989C20.6688 24.3084 20.5411 24.464 20.4657 24.6461C20.3903 24.8282 20.3705 25.0285 20.409 25.2219C20.4474 25.4152 20.5423 25.5927 20.6817 25.7321C20.8211 25.8715 20.9986 25.9664 21.1919 26.0048C21.3852 26.0433 21.5856 26.0235 21.7677 25.9481C21.9498 25.8727 22.1054 25.745 22.2149 25.5811C22.3244 25.4172 22.3829 25.2245 22.3829 25.0274C22.3829 24.7632 22.2779 24.5097 22.091 24.3228C21.9041 24.1359 21.6506 24.0309 21.3863 24.0309ZM87.5933 11.9961C86.9954 11.9961 42.4205 23.3257 38.7027 24.3222C36.4031 24.9431 35.8741 24.9891 35.4142 25.7557C35.2467 26.0265 35.155 26.3374 35.1487 26.6558C35.1424 26.9742 35.2218 27.2885 35.3784 27.5658C35.5351 27.843 35.7633 28.0732 36.0393 28.2321C36.3153 28.391 36.6289 28.4729 36.9473 28.4693C37.5499 28.3921 38.1415 28.2454 38.7104 28.0323C48.4992 25.3571 87.095 15.7675 87.5703 15.6755C87.878 15.6391 88.1743 15.5367 88.4389 15.3753C88.7035 15.2139 88.9301 14.9973 89.1034 14.7403C89.2675 14.4687 89.3573 14.1587 89.3637 13.8414C89.3701 13.5241 89.293 13.2106 89.14 12.9326C88.987 12.6545 88.7635 12.4216 88.492 12.2572C88.2205 12.0929 87.9106 12.0028 87.5933 11.9961ZM88.9654 14.6254C88.8005 14.8601 88.5873 15.0569 88.34 15.2023C88.0928 15.3478 87.8172 15.4385 87.5319 15.4686C31.7271 29.4428 37.4762 28.3083 36.9396 28.3083C36.6551 28.3037 36.3768 28.2245 36.1325 28.0786C35.8881 27.9326 35.6864 27.7251 35.5475 27.4767C35.4086 27.2284 35.3373 26.9479 35.3408 26.6634C35.3443 26.3788 35.4225 26.1002 35.5675 25.8553C35.9738 25.1961 36.3341 25.1654 38.7334 24.5215C43.026 23.364 87.026 12.2031 87.5703 12.2031C87.854 12.2021 88.133 12.2762 88.379 12.4178C88.6249 12.5594 88.8291 12.7635 88.9707 13.0094C89.1123 13.2553 89.1864 13.5343 89.1855 13.8181C89.1846 14.1019 89.1086 14.3804 88.9654 14.6254Z" fill="black"/>
<path d="M39.5997 26.8897C39.396 26.732 39.1716 26.6031 38.9328 26.5064C39.0341 26.293 39.0493 26.0489 38.9755 25.8245C38.9016 25.6001 38.7443 25.4127 38.5361 25.3012C38.3279 25.1897 38.0847 25.1625 37.857 25.2254C37.6293 25.2882 37.4345 25.4363 37.313 25.6388C37.1914 25.8414 37.1525 26.0829 37.2042 26.3134C37.2559 26.5439 37.3943 26.7457 37.5907 26.8769C37.7871 27.0081 38.0264 27.0588 38.2592 27.0184C38.4919 26.9779 38.7002 26.8495 38.8408 26.6598C39.0567 26.805 39.2881 26.9259 39.5307 27.02C39.547 27.0235 39.564 27.0216 39.5791 27.0145C39.5942 27.0074 39.6066 26.9957 39.6144 26.9809C39.6222 26.9662 39.625 26.9493 39.6223 26.9329C39.6197 26.9164 39.6117 26.9013 39.5997 26.8897ZM38.0666 26.8897C37.9133 26.8989 37.7609 26.8619 37.6289 26.7835C37.497 26.705 37.3916 26.5888 37.3265 26.4498C37.2613 26.3108 37.2394 26.1554 37.2636 26.0038C37.2878 25.8522 37.3569 25.7114 37.4621 25.5995C37.5672 25.4877 37.7035 25.41 37.8533 25.3765C38.0031 25.343 38.1595 25.3552 38.3023 25.4116C38.4451 25.4681 38.5676 25.5661 38.6541 25.6929C38.7405 25.8198 38.7869 25.9697 38.7871 26.1232C38.7879 26.3151 38.7167 26.5003 38.5875 26.6422C38.4584 26.7841 38.2807 26.8725 38.0896 26.8897H38.0666ZM86.4512 13.7664C86.2902 12.7009 85.9146 12.7852 85.769 13.3678C85.7333 13.4985 85.7076 13.6317 85.6923 13.7664C85.4394 13.7664 84.8721 13.6974 84.7495 13.9274C84.6268 14.1573 84.8798 14.28 85.0714 14.3643C85.2019 14.4202 85.3381 14.4613 85.4777 14.4869C85.3014 14.7246 85.0791 15.1768 85.3091 15.3225C85.539 15.4681 85.9683 15.0159 86.1599 14.8089C86.3592 14.9775 86.7502 15.2612 86.9725 15.1232C87.1948 14.9852 86.8422 14.5713 86.6428 14.3566C86.9035 14.303 87.2944 14.1803 87.2331 13.9274C87.1718 13.6744 86.6888 13.7434 86.4512 13.7664ZM86.5355 14.303C86.4895 14.303 86.4742 14.3413 86.5355 14.3873C86.5969 14.4333 87.0338 14.9162 86.9188 15.0235C86.8038 15.1308 86.3746 14.8012 86.2136 14.6862C86.2022 14.6787 86.1889 14.6746 86.1753 14.6746C86.1616 14.6746 86.1483 14.6787 86.1369 14.6862C85.884 14.9315 85.493 15.2688 85.3704 15.1768C85.2477 15.0849 85.585 14.5406 85.6157 14.4563C85.6227 14.4491 85.6266 14.4395 85.6266 14.4295C85.6266 14.4194 85.6227 14.4098 85.6157 14.4026C85.4777 14.349 84.8951 14.1727 84.9334 13.981C84.9718 13.7894 85.7 13.8584 85.7843 13.866C85.8686 13.8737 85.8456 13.8277 85.8533 13.7664C85.9989 12.9998 86.1293 13.0535 86.1906 13.1608C86.2845 13.3724 86.3639 13.5901 86.4282 13.8124V13.8507C86.4282 13.8507 87.0874 13.8507 87.1334 13.981C87.1794 14.1113 86.7195 14.2646 86.5355 14.303ZM56.939 79.4827C55.4979 74.6075 54.4248 72.5378 54.9383 70.8744C55.9655 67.8925 66.4366 65.3475 69.9244 64.5427C71.1125 64.2667 73.8031 63.6381 74.9453 63.8834C76.0875 64.1287 76.7773 64.7956 79.4066 72.6987C80.5154 75.9412 81.4242 79.2487 82.1279 82.6026C82.2508 82.9973 82.2851 83.4143 82.2281 83.8238C82.1711 84.2332 82.0243 84.6251 81.7983 84.9712C80.5871 86.581 71.9021 88.9573 69.9551 89.4939C60.4882 92.0925 61.6303 91.7015 58.8018 84.6109C58.8018 84.5967 58.7961 84.5831 58.786 84.573C58.776 84.5629 58.7623 84.5573 58.7481 84.5573C58.7339 84.5573 58.7202 84.5629 58.7102 84.573C58.7001 84.5831 58.6944 84.5967 58.6944 84.6109C59.9363 88.4437 60.3885 90.6437 62.4275 91.1649C63.9606 91.5712 68.399 90.1608 70.024 89.7008C80.2422 86.7649 81.3537 85.9447 82.0052 85.1015C82.2507 84.7279 82.4115 84.3052 82.4763 83.863C82.5412 83.4207 82.5086 82.9696 82.3808 82.5412C81.6802 79.1666 80.7713 75.8385 79.6596 72.5761C77.015 64.6806 76.3404 63.8911 74.999 63.5998C73.8338 63.3468 71.4882 63.8911 69.8707 64.2667C66.3829 65.0869 55.8429 67.6242 54.7237 70.767C54.1028 72.6298 56.0192 77.4744 56.8241 79.4827C56.8547 79.59 56.962 79.5517 56.939 79.4827ZM89.0422 83.2465C91.2421 83.1162 101.046 80.3412 105.906 78.2179C107.547 77.4974 108.367 76.7691 107.976 75.0291C106.373 69.3818 104.401 63.8456 102.074 58.4563C101.782 57.5662 101.181 56.8102 100.379 56.3252C98.6164 55.482 90.0693 58.2646 87.2254 59.1845C85.424 59.767 82.3425 60.7559 81.093 61.9977C79.9892 63.0556 80.1425 64.4047 80.5564 65.8765C85.3627 82.8479 86.3516 83.3998 89.0422 83.2465ZM81.1927 62.151C82.4422 60.9475 85.516 59.974 87.2714 59.4068C89.709 58.6402 98.6317 55.781 100.303 56.5552C101.051 57.0229 101.61 57.7395 101.882 58.5789C104.2 63.9495 106.152 69.4711 107.723 75.1057C108.037 76.7768 107.378 77.2904 105.822 77.9726C101.706 79.774 91.3878 82.8555 89.0651 83.0088C86.3976 83.1775 85.4854 82.2423 80.7251 65.8535C80.2958 64.4507 80.1425 63.1322 81.1927 62.151ZM28.8986 35.4597C28.8879 35.4115 28.8675 35.3659 28.8387 35.3256C28.81 35.2854 28.7734 35.2514 28.7312 35.2257C28.6889 35.1999 28.642 35.1829 28.593 35.1757C28.5441 35.1685 28.4942 35.1713 28.4464 35.1838L14.8554 38.7789C14.7538 38.8053 14.6668 38.8711 14.6136 38.9616C14.5604 39.0522 14.5454 39.1602 14.5718 39.2618C14.5983 39.3635 14.664 39.4505 14.7545 39.5037C14.8451 39.5569 14.9531 39.5719 15.0548 39.5455L28.638 35.9503C28.6887 35.9374 28.7361 35.914 28.7772 35.8817C28.8183 35.8494 28.8522 35.8088 28.8767 35.7626C28.9013 35.7165 28.9159 35.6657 28.9197 35.6135C28.9234 35.5613 28.9163 35.509 28.8986 35.4597ZM25.9474 39.2925C25.9358 39.2449 25.9148 39.2001 25.8857 39.1608C25.8565 39.1214 25.8198 39.0883 25.7777 39.0633C25.7356 39.0383 25.6889 39.022 25.6404 39.0152C25.5919 39.0085 25.5425 39.0116 25.4952 39.0242L15.6067 41.6381C15.5578 41.6513 15.5121 41.6742 15.4723 41.7055C15.4325 41.7368 15.3994 41.7758 15.375 41.8202C15.3507 41.8646 15.3356 41.9135 15.3306 41.9639C15.3256 42.0142 15.3309 42.0651 15.346 42.1134C15.3575 42.1608 15.3786 42.2055 15.4078 42.2445C15.4371 42.2836 15.474 42.3163 15.5163 42.3407C15.5586 42.3651 15.6054 42.3806 15.6539 42.3863C15.7024 42.392 15.7515 42.3879 15.7983 42.374L25.6868 39.7601C25.7348 39.7469 25.7797 39.7242 25.8189 39.6934C25.8581 39.6626 25.8908 39.6244 25.915 39.5809C25.9393 39.5374 25.9546 39.4895 25.9602 39.4399C25.9658 39.3904 25.9614 39.3403 25.9474 39.2925ZM34.5711 33.7887C34.598 33.884 34.6613 33.9648 34.7475 34.0136C34.8336 34.0624 34.9355 34.0752 35.031 34.0493L48.6143 30.4542C48.6621 30.4416 48.707 30.4197 48.7464 30.3898C48.7857 30.3599 48.8188 30.3225 48.8437 30.2798C48.8686 30.2371 48.8849 30.1899 48.8916 30.1409C48.8982 30.0919 48.8952 30.0421 48.8826 29.9942C48.87 29.9464 48.8481 29.9016 48.8182 29.8622C48.7883 29.8228 48.7509 29.7898 48.7082 29.7648C48.6655 29.7399 48.6183 29.7237 48.5693 29.717C48.5203 29.7103 48.4705 29.7134 48.4227 29.726L34.8394 33.3517C34.7477 33.377 34.6689 33.4362 34.6191 33.5173C34.5693 33.5984 34.5522 33.6954 34.5711 33.7887ZM45.9314 33.8577C45.9044 33.7621 45.8414 33.6807 45.7556 33.6306C45.6698 33.5806 45.5679 33.5658 45.4715 33.5894L35.583 36.211C35.5344 36.2233 35.4888 36.2453 35.449 36.2759C35.4093 36.3064 35.3762 36.3448 35.3518 36.3885C35.3274 36.4323 35.3122 36.4806 35.3071 36.5305C35.302 36.5804 35.3072 36.6308 35.3223 36.6786C35.3476 36.7736 35.4091 36.8549 35.4937 36.9051C35.5782 36.9552 35.6791 36.9702 35.7746 36.9469L45.6708 34.3253C45.7666 34.2967 45.8475 34.2319 45.8962 34.1445C45.9449 34.0571 45.9575 33.9542 45.9314 33.8577ZM54.5551 28.4228C54.5667 28.4704 54.5877 28.5152 54.6168 28.5545C54.646 28.5939 54.6827 28.6271 54.7248 28.652C54.7669 28.677 54.8136 28.6934 54.8621 28.7001C54.9106 28.7068 54.96 28.7037 55.0073 28.6911L68.5906 25.096C68.6396 25.0827 68.6855 25.0598 68.7256 25.0287C68.7657 24.9975 68.7992 24.9587 68.8241 24.9145C68.8491 24.8703 68.865 24.8215 68.871 24.7711C68.877 24.7207 68.8728 24.6696 68.8589 24.6207C68.8303 24.5266 68.7667 24.447 68.681 24.3984C68.5954 24.3499 68.4944 24.3362 68.399 24.3601L54.8157 27.9169C54.7625 27.9283 54.7124 27.9514 54.6692 27.9844C54.6259 28.0175 54.5906 28.0598 54.5657 28.1082C54.5407 28.1566 54.5268 28.2099 54.525 28.2643C54.5232 28.3187 54.5334 28.3729 54.5551 28.4228ZM65.923 28.4228C65.8962 28.3275 65.8328 28.2467 65.7467 28.1979C65.6605 28.1491 65.5586 28.1363 65.4631 28.1622L55.5746 30.7761C55.4729 30.8026 55.3859 30.8683 55.3328 30.9589C55.2796 31.0494 55.2645 31.1574 55.291 31.2591C55.3174 31.3607 55.3831 31.4477 55.4737 31.5009C55.5642 31.5541 55.6722 31.5691 55.7739 31.5427L65.6624 28.9211C65.7146 28.9094 65.7637 28.8865 65.8062 28.854C65.8487 28.8214 65.8836 28.7799 65.9084 28.7325C65.9332 28.685 65.9474 28.6327 65.9499 28.5793C65.9524 28.5258 65.9432 28.4724 65.923 28.4228ZM74.5314 22.9573C74.5438 23.0042 74.5654 23.0482 74.5949 23.0867C74.6244 23.1252 74.6612 23.1575 74.7033 23.1817C74.7453 23.2059 74.7917 23.2216 74.8398 23.2278C74.8879 23.234 74.9368 23.2307 74.9836 23.2179L88.5746 19.6228C88.6226 19.6096 88.6675 19.5869 88.7067 19.5561C88.7459 19.5254 88.7785 19.4871 88.8028 19.4436C88.827 19.4001 88.8424 19.3522 88.848 19.3027C88.8535 19.2532 88.8492 19.203 88.8352 19.1552C88.8227 19.1074 88.8009 19.0624 88.771 19.023C88.7411 18.9836 88.7037 18.9504 88.661 18.9255C88.6182 18.9006 88.571 18.8843 88.522 18.8777C88.4729 18.8711 88.4231 18.8742 88.3753 18.8869L74.792 22.4821C74.6944 22.5105 74.6121 22.5766 74.5632 22.6657C74.5144 22.7548 74.5029 22.8597 74.5314 22.9573ZM85.8533 22.9956C85.8417 22.9481 85.8207 22.9033 85.7915 22.8639C85.7624 22.8246 85.7257 22.7914 85.6836 22.7664C85.6414 22.7414 85.5948 22.7251 85.5462 22.7184C85.4977 22.7117 85.4484 22.7147 85.401 22.7274L75.5432 25.3566C75.4954 25.3692 75.4505 25.3911 75.4112 25.421C75.3718 25.4509 75.3387 25.4883 75.3138 25.531C75.2889 25.5737 75.2726 25.6209 75.266 25.6699C75.2593 25.7189 75.2623 25.7687 75.2749 25.8165C75.2875 25.8644 75.3094 25.9092 75.3393 25.9486C75.3692 25.988 75.4066 26.021 75.4493 26.046C75.492 26.0709 75.5392 26.0871 75.5882 26.0938C75.6372 26.1005 75.687 26.0974 75.7348 26.0848L85.6233 23.4709C85.6701 23.4554 85.7132 23.4307 85.7502 23.3982C85.7872 23.3658 85.8174 23.3262 85.8388 23.2819C85.8603 23.2376 85.8726 23.1894 85.8751 23.1402C85.8776 23.0911 85.8702 23.0419 85.8533 22.9956ZM82.8867 88.9803C82.8719 88.9328 82.8479 88.8887 82.8159 88.8506C82.7839 88.8124 82.7446 88.7811 82.7004 88.7582C82.6562 88.7354 82.6079 88.7216 82.5583 88.7176C82.5087 88.7136 82.4588 88.7195 82.4115 88.735L64.8345 94.2081C64.7872 94.2227 64.7432 94.2465 64.7051 94.2781C64.667 94.3097 64.6354 94.3485 64.6123 94.3923C64.5892 94.436 64.5749 94.4839 64.5703 94.5332C64.5656 94.5825 64.5708 94.6323 64.5854 94.6796C64.6 94.7269 64.6237 94.7709 64.6553 94.809C64.6869 94.8471 64.7257 94.8786 64.7695 94.9018C64.8133 94.9249 64.8612 94.9392 64.9105 94.9438C64.9598 94.9484 65.0095 94.9433 65.0568 94.9287L82.6338 89.4555C82.73 89.4255 82.8104 89.3587 82.8578 89.2698C82.9051 89.1808 82.9155 89.0768 82.8867 88.9803ZM78.9544 94.2081C78.9396 94.1606 78.9155 94.1165 78.8835 94.0784C78.8515 94.0403 78.8122 94.0089 78.768 93.9861C78.7238 93.9633 78.6755 93.9495 78.6259 93.9455C78.5763 93.9415 78.5264 93.9474 78.4791 93.9628L65.8387 97.8952C65.7912 97.91 65.7471 97.9341 65.709 97.9661C65.6709 97.9981 65.6395 98.0374 65.6166 98.0816C65.5938 98.1258 65.58 98.1741 65.576 98.2237C65.572 98.2733 65.5779 98.3232 65.5934 98.3705C65.6235 98.4667 65.6902 98.5471 65.7791 98.5945C65.8681 98.6418 65.9721 98.6522 66.0686 98.6235L78.7014 94.6834C78.7976 94.6533 78.878 94.5866 78.9254 94.4977C78.9727 94.4087 78.9831 94.3047 78.9544 94.2081ZM84.3585 96.0938L66.7815 101.575C66.7342 101.59 66.6903 101.614 66.6524 101.646C66.6145 101.678 66.5832 101.717 66.5605 101.762C66.5377 101.806 66.5238 101.854 66.5197 101.903C66.5155 101.953 66.5211 102.003 66.5362 102.05C66.5513 102.097 66.5756 102.141 66.6077 102.179C66.6397 102.217 66.6789 102.248 66.7231 102.271C66.7672 102.294 66.8154 102.308 66.8649 102.312C66.9144 102.316 66.9642 102.31 67.0115 102.295L84.5885 96.8221C84.636 96.8073 84.6801 96.7832 84.7182 96.7512C84.7563 96.7192 84.7877 96.68 84.8105 96.6357C84.8334 96.5915 84.8472 96.5432 84.8512 96.4936C84.8551 96.444 84.8492 96.3941 84.8338 96.3468C84.8037 96.2506 84.737 96.1702 84.6481 96.1228C84.5591 96.0755 84.4551 96.0651 84.3585 96.0938ZM107.838 81.1691L90.261 86.6806C90.2137 86.6952 90.1697 86.719 90.1316 86.7506C90.0934 86.7822 90.0619 86.821 90.0388 86.8647C90.0156 86.9085 90.0014 86.9564 89.9967 87.0057C89.9921 87.055 89.9972 87.1047 90.0118 87.152C90.0264 87.1994 90.0502 87.2433 90.0818 87.2815C90.1134 87.3196 90.1522 87.3511 90.196 87.3742C90.2397 87.3974 90.2876 87.4117 90.3369 87.4163C90.3862 87.4209 90.436 87.4158 90.4833 87.4012L108.083 81.8973C108.185 81.8679 108.271 81.7992 108.322 81.7065C108.373 81.6138 108.385 81.5046 108.355 81.4029C108.326 81.3013 108.257 81.2155 108.165 81.1645C108.072 81.1134 107.963 81.1013 107.861 81.1308L107.838 81.1691ZM104.342 86.6346C104.329 86.5874 104.305 86.5435 104.274 86.5054C104.243 86.4674 104.204 86.436 104.161 86.4131C104.117 86.3902 104.069 86.3763 104.02 86.3722C103.971 86.3682 103.922 86.374 103.875 86.3893L91.2192 90.3217C91.123 90.3518 91.0425 90.4185 90.9952 90.5075C90.9478 90.5964 90.9374 90.7004 90.9662 90.797C90.981 90.8445 91.0051 90.8886 91.0371 90.9267C91.0691 90.9648 91.1083 90.9962 91.1525 91.019C91.1967 91.0418 91.2451 91.0557 91.2947 91.0597C91.3443 91.0636 91.3942 91.0577 91.4415 91.0423L104.082 87.1099C104.131 87.0967 104.176 87.0738 104.216 87.0425C104.256 87.0112 104.289 86.9722 104.313 86.9278C104.338 86.8834 104.353 86.8346 104.358 86.7842C104.363 86.7338 104.358 86.6829 104.342 86.6346ZM91.9857 94.4688C91.9998 94.5161 92.023 94.5602 92.0541 94.5985C92.0852 94.6369 92.1236 94.6687 92.167 94.6922C92.2105 94.7157 92.2581 94.7304 92.3072 94.7355C92.3563 94.7405 92.406 94.7359 92.4533 94.7217L110.03 89.2486C110.083 89.2389 110.134 89.218 110.179 89.1874C110.223 89.1568 110.261 89.1171 110.289 89.0709C110.317 89.0247 110.335 88.9731 110.342 88.9194C110.349 88.8658 110.344 88.8113 110.328 88.7596C110.312 88.7079 110.286 88.6601 110.25 88.6194C110.215 88.5786 110.171 88.5459 110.122 88.5233C110.073 88.5007 110.019 88.4887 109.965 88.4882C109.911 88.4877 109.858 88.4987 109.808 88.5203L92.231 93.9935C92.1835 94.0083 92.1394 94.0324 92.1013 94.0644C92.0632 94.0964 92.0318 94.1356 92.009 94.1798C91.9861 94.2241 91.9723 94.2724 91.9683 94.322C91.9643 94.3716 91.9702 94.4215 91.9857 94.4688ZM70.5223 113.824L79.1077 111.218C79.1938 111.18 79.263 111.112 79.3023 111.027C79.3416 110.942 79.3481 110.845 79.3207 110.755C79.2932 110.665 79.2337 110.588 79.1535 110.539C79.0732 110.491 78.9778 110.473 78.8854 110.49L70.3 113.096C70.2468 113.106 70.1963 113.126 70.1517 113.157C70.1071 113.188 70.0695 113.227 70.0414 113.274C70.0133 113.32 69.9952 113.371 69.9885 113.425C69.9817 113.479 69.9864 113.533 70.0021 113.585C70.0179 113.637 70.0445 113.684 70.0801 113.725C70.1156 113.766 70.1594 113.799 70.2086 113.821C70.2577 113.844 70.311 113.856 70.3651 113.856C70.4192 113.857 70.4728 113.846 70.5223 113.824ZM70.7369 116.492C70.767 116.588 70.8337 116.668 70.9227 116.716C71.0116 116.763 71.1156 116.773 71.2122 116.745L82.7871 113.226C82.8713 113.188 82.9389 113.121 82.9774 113.037C83.016 112.953 83.0228 112.857 82.9966 112.769C82.9705 112.68 82.9131 112.604 82.8352 112.554C82.7572 112.504 82.6639 112.484 82.5725 112.498L70.9669 116.016C70.875 116.051 70.7998 116.12 70.757 116.208C70.7142 116.297 70.707 116.398 70.7369 116.492ZM73.5885 119.159L80.4415 117.074C80.4894 117.061 80.5341 117.038 80.573 117.008C80.6119 116.977 80.6442 116.938 80.6678 116.895C80.6914 116.851 80.706 116.803 80.7106 116.753C80.7151 116.704 80.7096 116.654 80.6944 116.607C80.6804 116.559 80.6571 116.515 80.626 116.477C80.5949 116.439 80.5565 116.407 80.5131 116.383C80.4696 116.36 80.422 116.345 80.3729 116.34C80.3238 116.335 80.2741 116.34 80.2268 116.354L73.3279 118.431C73.2775 118.446 73.2306 118.47 73.1897 118.503C73.1488 118.536 73.1147 118.576 73.0894 118.622C73.0641 118.668 73.0482 118.718 73.0424 118.77C73.0366 118.823 73.0412 118.875 73.0558 118.926C73.0703 118.976 73.0947 119.023 73.1275 119.064C73.1602 119.105 73.2007 119.139 73.2466 119.164C73.2925 119.189 73.343 119.205 73.395 119.211C73.4471 119.217 73.4998 119.212 73.5502 119.198L73.5885 119.159ZM74.4164 121.796C74.4464 121.892 74.5132 121.973 74.6021 122.02C74.6911 122.068 74.7951 122.078 74.8916 122.049L84.7035 119.075C84.7896 119.037 84.8588 118.969 84.8981 118.884C84.9374 118.799 84.9439 118.702 84.9165 118.612C84.889 118.522 84.8295 118.445 84.7493 118.397C84.669 118.348 84.5736 118.33 84.4812 118.347L74.6693 121.321C74.5732 121.351 74.4927 121.418 74.4454 121.507C74.398 121.596 74.3876 121.7 74.4164 121.796ZM81.8519 122.8L73.6728 125.276C73.6225 125.291 73.5755 125.315 73.5346 125.348C73.4937 125.381 73.4596 125.421 73.4344 125.467C73.4091 125.513 73.3931 125.564 73.3873 125.616C73.3816 125.668 73.3861 125.721 73.4007 125.771C73.4153 125.821 73.4397 125.868 73.4724 125.909C73.5052 125.95 73.5456 125.984 73.5916 126.009C73.6375 126.035 73.6879 126.051 73.74 126.056C73.7921 126.062 73.8448 126.058 73.8951 126.043L82.0742 123.559C82.1698 123.53 82.2497 123.464 82.2964 123.375C82.3431 123.287 82.3528 123.183 82.3233 123.088C82.2939 122.992 82.2276 122.912 82.1392 122.866C82.0508 122.819 81.9475 122.809 81.8519 122.839V122.8ZM86.0603 109.302L93.1355 107.293C93.2372 107.266 93.3238 107.199 93.3762 107.108C93.4287 107.016 93.4428 106.908 93.4153 106.806C93.3879 106.705 93.3212 106.618 93.2299 106.566C93.1386 106.513 93.0302 106.499 92.9286 106.527L85.8533 108.573C85.8046 108.586 85.7589 108.608 85.7188 108.638C85.6788 108.669 85.6453 108.707 85.6203 108.75C85.5952 108.794 85.5792 108.842 85.5732 108.892C85.5671 108.942 85.5711 108.993 85.585 109.041C85.6152 109.137 85.6815 109.218 85.7701 109.267C85.8587 109.316 85.9627 109.328 86.0603 109.302ZM86.5049 111.977C86.5181 112.025 86.5408 112.07 86.5715 112.109C86.6023 112.148 86.6406 112.181 86.6841 112.205C86.7276 112.229 86.7755 112.245 86.825 112.25C86.8745 112.256 86.9247 112.251 86.9725 112.237L95.1669 109.938C95.2685 109.91 95.3551 109.844 95.4076 109.752C95.4601 109.661 95.4741 109.553 95.4467 109.451C95.4192 109.349 95.3525 109.263 95.2612 109.21C95.17 109.158 95.0616 109.144 94.9599 109.171L86.7655 111.471C86.7123 111.482 86.6622 111.505 86.619 111.538C86.5758 111.571 86.5404 111.614 86.5155 111.662C86.4905 111.711 86.4766 111.764 86.4748 111.818C86.473 111.873 86.4832 111.927 86.5049 111.977ZM94.9293 112.743C94.8991 112.647 94.8327 112.566 94.7441 112.517C94.6555 112.469 94.5515 112.456 94.454 112.483L87.6777 114.407C87.6274 114.42 87.5802 114.444 87.5389 114.476C87.4976 114.507 87.463 114.547 87.437 114.592C87.3845 114.683 87.3705 114.792 87.3979 114.893C87.4253 114.995 87.4921 115.082 87.5833 115.134C87.6746 115.187 87.783 115.201 87.8847 115.173L94.6686 113.249C94.7199 113.235 94.7675 113.209 94.8087 113.176C94.8499 113.142 94.8838 113.1 94.9082 113.053C94.9326 113.005 94.947 112.953 94.9507 112.9C94.9543 112.847 94.947 112.794 94.9293 112.743ZM88.3293 117.81C88.3425 117.858 88.3652 117.903 88.3959 117.942C88.4267 117.982 88.465 118.014 88.5085 118.038C88.552 118.063 88.5999 118.078 88.6494 118.084C88.6989 118.089 88.749 118.085 88.7969 118.071L96.8073 115.771C96.8559 115.759 96.9015 115.737 96.9412 115.706C96.981 115.676 97.0141 115.637 97.0385 115.594C97.0629 115.55 97.0781 115.502 97.0832 115.452C97.0882 115.402 97.083 115.351 97.0679 115.304C97.0549 115.254 97.0317 115.207 96.9999 115.167C96.9681 115.126 96.9283 115.093 96.883 115.068C96.8378 115.044 96.7879 115.029 96.7367 115.025C96.6854 115.02 96.6338 115.027 96.585 115.043L88.5746 117.343C88.4815 117.374 88.4042 117.44 88.3585 117.527C88.3129 117.614 88.3024 117.716 88.3293 117.81ZM95.0519 118.692L89.5174 120.263C89.4158 120.291 89.3292 120.357 89.2767 120.449C89.2242 120.54 89.2102 120.648 89.2376 120.75C89.2651 120.852 89.3318 120.938 89.4231 120.991C89.5143 121.043 89.6227 121.057 89.7244 121.03L95.2589 119.458C95.3605 119.431 95.4471 119.364 95.4996 119.273C95.552 119.182 95.5661 119.073 95.5387 118.972C95.5112 118.87 95.4445 118.783 95.3532 118.731C95.2619 118.678 95.1536 118.664 95.0519 118.692ZM58.3572 49.1733C58.7505 49.5644 59.2342 49.8525 59.7654 50.012C60.2966 50.1715 60.859 50.1976 61.4027 50.0878C61.9464 49.9781 62.4547 49.7359 62.8824 49.3829C63.3102 49.0298 63.6443 48.5766 63.8551 48.0636C64.0659 47.5505 64.1469 46.9934 64.091 46.4416C64.0351 45.8897 63.8439 45.3602 63.5345 44.8999C63.225 44.4396 62.8068 44.0627 62.3169 43.8026C61.827 43.5425 61.2805 43.4073 60.7258 43.4089C60.0554 43.4033 59.3987 43.5985 58.8402 43.9695C58.2817 44.3404 57.8471 44.87 57.5923 45.4902C57.3375 46.1103 57.2741 46.7925 57.4105 47.4489C57.5468 48.1054 57.8765 48.7059 58.3572 49.1733ZM58.6868 44.7273C59.0278 44.3903 59.4466 44.1424 59.9062 44.0056C60.3657 43.8687 60.8519 43.8472 61.3218 43.9427C61.7916 44.0383 62.2308 44.2481 62.6003 44.5536C62.9699 44.8591 63.2586 45.2509 63.4409 45.6944C63.6232 46.1378 63.6935 46.6194 63.6456 47.0965C63.5977 47.5736 63.433 48.0315 63.1662 48.4299C62.8994 48.8283 62.5386 49.1549 62.1156 49.3808C61.6927 49.6067 61.2206 49.725 60.7411 49.7252C60.1619 49.7255 59.5957 49.5536 59.1144 49.2313C58.6331 48.9089 58.2586 48.4508 58.0384 47.915C57.8182 47.3793 57.7622 46.7902 57.8777 46.2226C57.9931 45.6549 58.2748 45.1345 58.6868 44.7273Z" fill="black"/>
<path d="M73.9106 65.3633C71.8514 68.7818 70.0328 72.3395 68.4681 76.0107C65.2429 74.3213 61.9146 72.8364 58.503 71.5647C58.461 71.5524 58.416 71.5547 58.3756 71.5715C58.3352 71.5882 58.3017 71.6183 58.2807 71.6567C58.2618 71.6996 58.2601 71.7481 58.2757 71.7922C58.2914 71.8364 58.3233 71.8729 58.365 71.8943C62.3051 73.849 68.1462 76.7773 68.1462 76.7773C66.6034 80.3916 65.28 84.0956 64.1831 87.8692C64.1761 87.8952 64.1751 87.9225 64.1803 87.949C64.1854 87.9754 64.1966 88.0003 64.2129 88.0218C64.2291 88.0432 64.2501 88.0607 64.2742 88.0728C64.2983 88.0849 64.3248 88.0913 64.3518 88.0915C64.643 88.0915 64.3058 88.0915 68.8897 77.1682C71.2507 78.41 75.0221 80.541 79.2535 83.0936C79.2931 83.1201 79.3417 83.1297 79.3884 83.1203C79.4351 83.111 79.4762 83.0834 79.5026 83.0438C79.529 83.0042 79.5386 82.9556 79.5293 82.9089C79.52 82.8622 79.4924 82.8211 79.4528 82.7947C76.2022 80.4129 72.7791 78.276 69.2117 76.4016C70.5608 73.2435 72.2012 69.6867 74.2249 65.532C74.2473 65.4903 74.2522 65.4414 74.2385 65.3961C74.2249 65.3509 74.1938 65.3129 74.1521 65.2905C74.1104 65.2681 74.0616 65.2632 74.0163 65.2769C73.971 65.2906 73.933 65.3216 73.9106 65.3633ZM83.4005 64.4511C86.4667 65.9842 88.3448 66.8198 93.3657 69.4184C91.734 72.987 90.3534 76.6651 89.234 80.426C89.2197 80.4708 89.2239 80.5193 89.2454 80.561C89.267 80.6027 89.3042 80.6341 89.349 80.6483C89.3937 80.6626 89.4422 80.6584 89.4839 80.6369C89.5256 80.6153 89.557 80.5781 89.5713 80.5333C91.1657 76.6546 90.5678 77.7814 94.1169 69.8016C97.1831 71.4421 100.64 73.4121 104.312 75.6351C104.352 75.6615 104.4 75.6711 104.447 75.6618C104.494 75.6524 104.535 75.6249 104.561 75.5853C104.588 75.5456 104.597 75.4971 104.588 75.4504C104.578 75.4037 104.551 75.3626 104.511 75.3361C101.309 73.0012 97.9432 70.9005 94.4388 69.0504C96.0639 65.532 97.8653 61.9598 99.3064 58.978C99.3224 58.938 99.3232 58.8936 99.3086 58.8531C99.2941 58.8127 99.2653 58.7789 99.2276 58.7582C99.19 58.7374 99.146 58.7312 99.104 58.7406C99.0621 58.75 99.025 58.7745 98.9998 58.8093C97.0565 61.994 95.2883 65.2823 93.703 68.6595C90.4203 66.9338 87.0303 65.4206 83.5538 64.1292C83.5111 64.1088 83.4621 64.1063 83.4176 64.1221C83.373 64.1379 83.3365 64.1708 83.3162 64.2135C83.2959 64.2562 83.2933 64.3052 83.3092 64.3498C83.325 64.3943 83.3578 64.4308 83.4005 64.4511ZM100.288 106.811C100.526 106.57 100.689 106.264 100.755 105.932C100.822 105.6 100.79 105.255 100.662 104.941C100.535 104.627 100.318 104.357 100.039 104.165C99.7601 103.972 99.4307 103.866 99.0918 103.859C98.8136 103.863 98.5405 103.934 98.2961 104.067C98.0518 104.2 97.8435 104.391 97.6895 104.622C97.5355 104.854 97.4403 105.12 97.4123 105.397C97.3843 105.673 97.4243 105.953 97.5288 106.211C97.6332 106.469 97.799 106.697 98.0118 106.876C98.2246 107.055 98.4779 107.18 98.7498 107.239C99.0216 107.298 99.3038 107.29 99.5718 107.215C99.8398 107.141 100.086 107.002 100.288 106.811ZM97.873 105.048C97.9639 104.853 98.1004 104.684 98.2708 104.553C98.4413 104.423 98.6407 104.335 98.8521 104.299C99.0636 104.262 99.2808 104.276 99.4853 104.341C99.6898 104.406 99.8757 104.52 100.027 104.672C100.148 104.793 100.243 104.936 100.307 105.095C100.37 105.254 100.401 105.423 100.396 105.594C100.392 105.765 100.353 105.933 100.282 106.088C100.21 106.243 100.108 106.382 99.981 106.496C99.7309 106.725 99.4041 106.852 99.065 106.852C98.7259 106.852 98.3991 106.725 98.1489 106.496C97.9646 106.316 97.8395 106.084 97.7902 105.83C97.7409 105.577 97.7698 105.315 97.873 105.078V105.048ZM103.423 105.554C103.736 105.697 104.085 105.741 104.424 105.679C104.763 105.618 105.074 105.453 105.316 105.209C105.626 104.881 105.798 104.448 105.798 103.997C105.798 103.547 105.626 103.114 105.316 102.786C105.161 102.623 104.974 102.494 104.767 102.405C104.56 102.317 104.338 102.271 104.113 102.271C103.888 102.271 103.665 102.317 103.458 102.405C103.251 102.494 103.065 102.623 102.909 102.786C102.72 102.986 102.581 103.227 102.504 103.49C102.426 103.753 102.411 104.031 102.461 104.301C102.512 104.571 102.625 104.825 102.792 105.042C102.959 105.26 103.175 105.435 103.423 105.554ZM102.902 103.446C102.992 103.251 103.129 103.081 103.299 102.951C103.47 102.821 103.669 102.733 103.881 102.696C104.092 102.66 104.309 102.674 104.514 102.739C104.718 102.804 104.904 102.918 105.056 103.07C105.177 103.19 105.272 103.334 105.335 103.493C105.399 103.651 105.429 103.821 105.425 103.992C105.421 104.163 105.381 104.331 105.31 104.486C105.239 104.641 105.136 104.78 105.01 104.894C104.761 105.123 104.435 105.249 104.097 105.249C103.76 105.249 103.434 105.123 103.185 104.894C102.99 104.714 102.858 104.477 102.807 104.216C102.756 103.956 102.789 103.686 102.902 103.446ZM110.383 103.599C110.622 103.359 110.786 103.055 110.853 102.724C110.921 102.392 110.889 102.048 110.762 101.734C110.636 101.42 110.42 101.151 110.141 100.959C109.862 100.767 109.533 100.662 109.195 100.655C108.916 100.656 108.641 100.725 108.394 100.857C108.148 100.989 107.938 101.179 107.782 101.411C107.626 101.643 107.529 101.909 107.5 102.187C107.471 102.465 107.511 102.745 107.615 103.005C107.72 103.264 107.886 103.493 108.1 103.673C108.314 103.853 108.568 103.977 108.841 104.036C109.115 104.095 109.398 104.085 109.667 104.009C109.935 103.933 110.181 103.792 110.383 103.599ZM107.968 101.843C108.059 101.649 108.196 101.479 108.366 101.349C108.537 101.219 108.736 101.131 108.948 101.094C109.159 101.058 109.376 101.072 109.581 101.137C109.785 101.202 109.971 101.316 110.122 101.468C110.243 101.588 110.338 101.731 110.402 101.889C110.465 102.047 110.495 102.216 110.491 102.386C110.487 102.556 110.448 102.724 110.377 102.878C110.305 103.033 110.203 103.171 110.076 103.285C109.828 103.515 109.503 103.642 109.164 103.642C108.826 103.642 108.5 103.515 108.252 103.285C108.053 103.109 107.915 102.875 107.857 102.616C107.799 102.357 107.825 102.087 107.93 101.843H107.968ZM113.449 102.349C113.763 102.492 114.113 102.535 114.452 102.472C114.79 102.408 115.101 102.243 115.343 101.997C115.655 101.672 115.83 101.24 115.83 100.789C115.83 100.339 115.655 99.9064 115.343 99.5821C115.189 99.4178 115.004 99.2861 114.799 99.1948C114.594 99.1036 114.372 99.0547 114.147 99.0511C113.923 99.0476 113.7 99.0893 113.491 99.174C113.283 99.2586 113.094 99.3844 112.936 99.5438C112.741 99.7437 112.596 99.9874 112.515 100.255C112.433 100.522 112.417 100.805 112.467 101.079C112.517 101.354 112.633 101.613 112.804 101.834C112.975 102.055 113.196 102.232 113.449 102.349ZM112.936 100.234C113.027 100.041 113.163 99.8724 113.333 99.743C113.503 99.6135 113.701 99.5268 113.912 99.49C114.122 99.4532 114.338 99.4674 114.542 99.5314C114.745 99.5955 114.931 99.7075 115.082 99.8581C115.24 100.029 115.349 100.24 115.397 100.467C115.445 100.695 115.431 100.931 115.357 101.152C115.282 101.372 115.15 101.568 114.973 101.72C114.796 101.871 114.582 101.972 114.353 102.012C114.124 102.052 113.888 102.03 113.67 101.948C113.453 101.865 113.262 101.726 113.117 101.544C112.972 101.362 112.878 101.144 112.846 100.913C112.815 100.683 112.845 100.448 112.936 100.234Z" fill="black"/>
</svg>
