<svg width="135" height="135" viewBox="0 0 135 135" fill="none" xmlns="http://www.w3.org/2000/svg">
<path fill-rule="evenodd" clip-rule="evenodd" d="M39.7427 45.6496C36.5308 50.3501 35.4307 55.8049 37.6934 61.7004C38.3303 63.3601 37.5013 65.2218 35.8416 65.8588C34.182 66.4957 32.3202 65.6667 31.6833 64.0071C28.5638 55.8791 30.1885 48.2214 34.4275 42.0177C38.6004 35.9108 45.2794 31.2076 52.5071 28.4337C59.7348 25.6597 67.8454 24.6867 75.0326 26.4337C82.3337 28.2084 88.6645 32.8129 91.7839 40.9408C92.4209 42.6004 91.5919 44.4622 89.9322 45.0992C88.2726 45.7361 86.4108 44.9071 85.7739 43.2474C83.5112 37.3519 79.0441 34.0337 73.5121 32.6891C67.8662 31.3167 61.1087 32.0278 54.8137 34.4437C48.5188 36.8597 43.0207 40.8523 39.7427 45.6496Z" fill="#44AA0E"/>
<path fill-rule="evenodd" clip-rule="evenodd" d="M95.2581 89.349C98.47 84.6485 99.57 79.1936 97.3074 73.2981C96.6704 71.6385 97.4995 69.7767 99.1591 69.1398C100.819 68.5028 102.68 69.3318 103.317 70.9915C106.437 79.1194 104.812 86.7772 100.573 92.9808C96.4003 99.0877 89.7213 103.791 82.4936 106.565C75.2659 109.339 67.1553 110.312 59.9681 108.565C52.6671 106.79 46.3362 102.186 43.2168 94.0577C42.5798 92.3981 43.4089 90.5363 45.0685 89.8994C46.7281 89.2624 48.5899 90.0915 49.2269 91.7511C51.4895 97.6466 55.9566 100.965 61.4886 102.309C67.1345 103.682 73.8921 102.971 80.187 100.555C86.4819 98.1388 91.9801 94.1462 95.2581 89.349Z" fill="black"/>
<path fill-rule="evenodd" clip-rule="evenodd" d="M91.6048 55.809C92.3279 54.1851 94.2306 53.4548 95.8545 54.178L112.488 61.5848C114.112 62.308 114.842 64.2107 114.119 65.8346C113.396 67.4585 111.493 68.1888 109.869 67.4656L96.1762 61.3681L90.0787 75.0611C89.3555 76.685 87.4529 77.4153 85.8289 76.6921C84.205 75.969 83.4748 74.0663 84.1979 72.4424L91.6048 55.809Z" fill="black"/>
<path fill-rule="evenodd" clip-rule="evenodd" d="M39.1455 80.8187C40.7694 81.5418 42.6721 80.8116 43.3953 79.1877L50.8021 62.5543C51.5253 60.9304 50.795 59.0277 49.1711 58.3045C47.5472 57.5814 45.6445 58.3116 44.9213 59.9356L38.8238 73.6285L25.1308 67.531C23.5069 66.8079 21.6042 67.5381 20.8811 69.1621C20.1579 70.786 20.8882 72.6887 22.5121 73.4118L39.1455 80.8187Z" fill="#44AA0E"/>
</svg>
