<svg width="166" height="170" viewBox="0 0 166 170" fill="none" xmlns="http://www.w3.org/2000/svg">
<path d="M166 85.6367C166 131.476 131.633 177.066 83 168.637C34.3672 160.207 0 131.476 0 85.6367C0 39.7971 36.3125 16.9022 83 2.63671C129.688 -11.6288 166 39.7971 166 85.6367Z" fill="#E4F5FE"/>
<path d="M138.124 47.8629C138.224 47.9778 137.649 47.8629 146.012 49.3423V48.8594L138.515 47.3646C128.481 35.92 114.591 31.7423 99.2604 32.1869C98.1106 28.3542 92.7064 10.4246 91.7405 7.94094C90.6674 5.18136 88.8353 3.89355 85.9761 3.89355C83.2855 3.89355 43.8158 14.4719 41.5162 15.1082C37.1545 16.281 23.6709 19.6232 14.6869 21.9381C6.13222 24.1535 7.07507 29.6113 7.66532 32.8691C10.9615 51.4197 18.7803 78.7932 31.367 107.799C30.174 111.469 29.7003 115.334 29.9719 119.183C31.0298 133.578 42.1524 143.958 53.597 147.131L54.4249 149.538H55.2451C54.2409 146.786 54.3099 146.564 53.9879 146.472C42.1601 143.076 31.9956 132.482 30.9071 119.106C30.1406 109.47 34.7399 99.444 41.2785 93.5032C43.2332 91.7402 47.4109 88.9039 48.7984 91.1116C42.758 100.747 38.4883 111.739 37.4841 119.436C38.0113 119.347 38.5527 119.408 39.0471 119.611C39.5415 119.815 39.9692 120.152 40.282 120.585C40.4507 120.815 40.3817 121.268 39.9984 120.884C39.711 120.618 39.3727 120.413 39.0038 120.281C38.6349 120.149 38.2431 120.094 37.8521 120.118C37.78 120.126 37.7104 120.149 37.6472 120.184C37.584 120.22 37.5286 120.268 37.4841 120.325C37.2465 120.654 37.4841 121.145 37.7984 121.413C38.4512 121.905 39.2298 122.203 40.0444 122.272C40.1743 122.282 40.3048 122.261 40.4249 122.21C40.545 122.16 40.6511 122.081 40.7343 121.981C43.2256 118.9 45.4733 115.629 47.4569 112.199C48.3272 115.193 49.648 118.036 51.374 120.631L49.8256 123.475C49.817 123.489 49.8113 123.505 49.8088 123.521C49.8063 123.538 49.807 123.554 49.8109 123.57C49.8148 123.586 49.8219 123.601 49.8316 123.615C49.8414 123.628 49.8536 123.639 49.8677 123.648C49.8818 123.656 49.8975 123.662 49.9138 123.665C49.9301 123.667 49.9467 123.666 49.9627 123.662C49.9787 123.659 49.9938 123.652 50.0071 123.642C50.0204 123.632 50.0316 123.62 50.0402 123.606L52.1252 120.792C52.1533 120.749 52.1682 120.698 52.1682 120.647C52.1682 120.595 52.1533 120.545 52.1252 120.501C50.9204 118.718 49.8934 116.82 49.059 114.836C48.2529 112.875 47.6542 110.835 47.273 108.75C44.7203 93.6336 61.5001 102.434 65.5475 123.652C67.4946 133.77 64.6123 139.749 64.6123 140.24C64.6157 140.277 64.6312 140.312 64.6566 140.339C64.682 140.367 64.7157 140.385 64.7526 140.391C64.7894 140.397 64.8272 140.391 64.8601 140.373C64.893 140.356 64.9191 140.328 64.9343 140.293C66.5859 135.609 67.1111 130.601 66.4674 125.675C67.709 125.73 68.9519 125.598 70.1545 125.284C71.3273 128.351 71.5956 131.118 70.4228 134.284C70.3973 134.331 70.3839 134.383 70.3839 134.437C70.3839 134.491 70.3973 134.543 70.4228 134.59L80.8708 149.538H81.829L71.0437 134.36C71.1908 133.992 71.3187 133.615 71.427 133.234C71.427 133.234 91.3573 127.63 96.6081 125.852C99.9886 124.702 113.894 120.233 118.623 118.73C123.575 117.159 125.653 115.749 126.542 113.365C127.431 110.981 126.105 107.646 123.077 100.203C121.475 96.2552 113.112 73.9179 112.591 72.6071C117.19 72.5228 123.384 70.2308 127.155 67.8391L145.982 77.2907V76.5242L127.147 66.7047C124.265 68.3757 119.766 71.3883 112.46 72.2238C107.815 59.8594 108.482 62.09 105.952 54.0413C107.01 53.9186 108.076 53.7653 109.126 53.5966L115.465 58.4719C115.5 58.5004 115.544 58.5139 115.589 58.5096C115.633 58.5053 115.674 58.4835 115.703 58.4489C115.731 58.4144 115.745 58.3699 115.741 58.3253C115.736 58.2808 115.714 58.2397 115.68 58.2113L109.455 52.9528C109.218 52.7611 109.141 52.9527 105.745 53.244C102.051 53.6196 93.6876 54.0719 90.7287 51.8566C89.1956 50.6608 89.5252 49.1507 90.836 47.6789C96.2019 41.8991 111.755 39.7988 120.118 39.5075C120.138 39.5123 120.16 39.5126 120.18 39.5081C120.2 39.5036 120.219 39.4946 120.236 39.4817C120.252 39.4688 120.266 39.4523 120.275 39.4336C120.284 39.4148 120.288 39.3942 120.288 39.3733C120.288 39.3525 120.284 39.3319 120.275 39.3131C120.266 39.2943 120.252 39.2778 120.236 39.2649C120.219 39.252 120.2 39.243 120.18 39.2385C120.16 39.2341 120.138 39.2343 120.118 39.2392C114.038 39.2465 107.984 40.0191 102.097 41.5388C101.207 38.6259 100.295 35.6287 99.406 32.6852C127.776 32.8538 136.354 46.7284 138.124 47.8629ZM15.2848 24.1381C24.7211 21.7005 77.613 7.84129 84.7803 6.36185C85.7447 6.0826 86.7729 6.1175 87.7161 6.4615C88.9043 6.96742 89.4102 8.10191 90.0158 9.80365C73.7496 13.3451 20.6967 27.3193 9.64302 30.8914C9.30573 28.1625 9.77333 25.5639 15.2848 24.1381ZM9.66601 31.0371C17.0632 28.7374 42.2751 22.0991 49.8026 20.1291C80.3956 12.065 90.0235 9.94163 90.0388 9.93397C90.4757 11.2448 91.135 13.3298 91.9322 15.9207C76.8081 18.9103 24.4758 33.0991 10.8772 37.3841C10.4862 35.6057 9.87298 32.6162 9.66601 31.0524V31.0371ZM10.9155 37.5221C20.9496 34.4559 77.843 18.9486 91.9782 16.0587C92.7447 18.5807 93.6722 21.5779 94.6458 24.7897C82.9559 27.2887 25.7789 42.313 12.9852 46.2531C12.1343 42.8573 11.4291 39.8524 10.9155 37.5374V37.5221ZM49.059 90.7283C47.3496 88.3674 43.1183 91.1116 40.8876 93.028C38.6895 94.9781 36.7773 97.2284 35.2075 99.7123C33.9273 99.2524 32.8542 96.6461 31.7043 93.7945C30.0472 89.802 28.6542 85.7049 27.5343 81.5297C27.2277 80.1883 27.1817 79.1534 28.2549 78.2566C29.5657 77.1374 35.1538 75.3437 36.8019 74.8148C39.9447 73.8029 43.4862 72.975 46.698 72.2621C47.9705 71.9862 49.3273 72.0168 50.0862 72.8294C51.213 74.0099 53.2597 80.0043 54.4172 83.3771C53.1447 84.9102 51.9106 86.5123 50.7301 88.2141C48.0056 86.4715 45.1016 85.0272 42.0681 83.906C42.8346 82.5569 46.0695 76.7541 47.0813 74.8684C47.1047 74.8278 47.111 74.7795 47.0988 74.7342C47.0865 74.6889 47.0568 74.6503 47.0162 74.627C46.9755 74.6036 46.9272 74.5973 46.8819 74.6095C46.8367 74.6217 46.7981 74.6515 46.7747 74.6921C44.6514 77.8886 42.9036 80.7249 41.2939 83.6071C37.4994 82.2043 34.3949 81.3074 30.8305 80.3416C30.7857 80.3263 30.7368 80.3295 30.6944 80.3503C30.652 80.3712 30.6196 80.408 30.6043 80.4527C30.5891 80.4975 30.5922 80.5464 30.6131 80.5888C30.6339 80.6312 30.6707 80.6636 30.7155 80.6789C33.1608 81.6447 37.4918 83.0628 40.8799 84.343C38.8693 87.9487 37.1863 91.7276 35.8514 95.6343C35.8427 95.6748 35.8486 95.7171 35.868 95.7538C35.8874 95.7905 35.9192 95.8191 35.9576 95.8346C35.9961 95.8502 36.0388 95.8517 36.0782 95.8389C36.1177 95.8261 36.1513 95.7998 36.1733 95.7646C38.9712 89.6935 41.3092 85.3165 41.6695 84.6419C44.6796 85.7647 47.5943 87.1285 50.3852 88.72C49.9252 89.3485 49.4806 90.0308 49.059 90.7283ZM52.8918 101.284C53.2291 100.479 53.5587 99.674 53.873 98.8691C55.9733 98.9534 60.128 99.2907 61.2625 101.069C62.397 102.847 60.0284 104.68 57.8897 105.377C56.5257 103.681 54.8236 102.287 52.8918 101.284ZM58.4416 106.052C61.3315 106.588 68.1001 107.83 68.5984 110.735C68.997 112.928 65.7008 114.177 63.3245 114.438C62.0691 111.446 60.4358 108.628 58.4646 106.052H58.4416ZM66.3371 125.261C65.9488 122.295 65.2289 119.382 64.1907 116.576C66.9503 117.565 73.3357 120.409 72.4081 123.115C71.8102 124.886 68.3991 125.292 66.3601 125.261H66.3371ZM124.388 112.552C123.882 113.916 122.617 115.066 117.911 116.561C94.1015 124.119 95.489 124.135 71.7796 130.765C71.8375 128.814 71.3689 126.884 70.4228 125.177C70.9441 125.054 71.4314 124.816 71.8491 124.48C72.2668 124.145 72.6044 123.72 72.8374 123.238C73.9412 120.064 67.027 117.105 63.9224 115.902C63.6081 115.074 63.5468 114.959 63.4932 114.829C66.1224 114.453 69.4109 113.058 68.997 110.674C68.9414 110.352 68.8271 110.043 68.6597 109.762C68.6597 109.762 116.623 95.5729 118.616 95.067C122.234 104.45 125.17 110.498 124.411 112.552H124.388ZM90.5064 47.3953C88.5057 49.6413 89.5329 51.0594 89.5252 51.159C89.7636 51.5592 90.0789 51.9083 90.4527 52.1862C90.9852 52.6095 91.5766 52.953 92.2081 53.2057C80.4876 56.7855 29.3434 71.5033 29.1287 71.5723C26.3078 72.3388 24.4451 72.8907 22.9963 68.782C26.0625 65.2176 36.2653 53.3437 38.3273 51.8719C39.0537 51.3292 39.9349 51.0336 40.8416 51.0287C44.0075 50.9367 60.0897 58.5102 62.9029 57.1611C64.8346 56.2259 71.5266 45.7089 71.5956 45.6092C76.3865 38.2273 75.7656 38.6489 86.6736 40.4273C89.1036 40.8259 92.4228 41.3625 96.7384 42.0447L97.068 43.2329C94.5921 44.2217 92.1008 45.6092 90.5294 47.3876L90.5064 47.3953ZM22.774 68.2838C21.4632 64.451 17.9218 53.1137 18.1287 51.4197C18.2211 50.8128 18.4876 50.2457 18.8957 49.7872C19.3039 49.3287 19.8363 48.9984 20.4284 48.8364C22.9657 48.1235 89.2339 30.0099 91.0506 30.0099C92.4994 30.0099 93.059 30.7765 93.6109 32.1792C94.7591 35.2653 95.7517 38.407 96.5851 41.5925C80.4876 38.9402 79.2381 38.4113 76.9691 38.9402C75.0604 39.3848 74.2095 40.4733 71.0667 45.2489C68.7134 48.8824 63.9148 55.9346 62.6346 56.5709C61.5308 57.1075 60.9405 56.9235 57.6827 55.904C53.5127 54.5932 51.236 53.8573 46.3761 51.9332C43.4479 50.7681 40.5963 49.5033 37.944 51.3813C35.5294 53.1367 24.6827 65.9841 22.774 68.2838ZM99.9043 42.1521C99.1377 42.3974 98.3175 42.681 97.4973 43.0106C96.5331 39.2931 95.3662 35.6312 94.0018 32.0413C93.3809 30.5082 92.691 29.6266 91.02 29.6036C90.0924 29.6036 50.1628 39.9214 20.2827 48.4301C19.6122 48.6199 19.0101 48.9981 18.5482 49.5199C18.0862 50.0417 17.7836 50.685 17.6765 51.3737C17.4158 53.3437 20.8653 64.405 22.4521 68.69C24.3148 73.7186 26.3691 72.7221 29.9949 71.7562C44.9963 67.8468 77.521 58.3109 92.9057 53.4817C96.2172 54.5855 100.18 54.5012 103.637 54.2482C104.918 58.3493 105.937 61.4921 106.489 62.8872C107.508 65.4858 116.707 90.0078 118.585 94.9137C114.944 95.8182 113.135 96.4008 68.5984 109.624C66.9503 107.079 61.7914 105.86 58.7329 105.492C60.427 104.726 62.0674 103.499 61.9524 101.659C61.8374 99.8196 58.9705 99.0761 58.0353 98.8461C56.742 98.5451 55.4224 98.3706 54.0953 98.3248C55.9316 93.6566 57.2728 88.8084 58.0966 83.86C58.3189 82.4573 55.9503 81.5604 55.1914 82.4036L54.5322 83.1702C52.7461 77.881 51.1824 73.5806 50.1705 72.4998C49.404 71.6336 47.8095 71.8022 46.6444 71.9785C42.6277 72.6071 30.4702 75.9569 28.0785 77.9806C27.2507 78.8008 26.7831 79.4141 27.266 81.5221C28.3683 85.7366 29.759 89.8704 31.4284 93.8942C32.3406 96.1248 33.6207 99.3827 35.0618 99.9039C34.086 101.446 33.2301 103.06 32.5015 104.733C25.2117 88.1144 20.2367 75.6043 13.0158 46.4754C24.905 42.865 85.2708 27.0587 94.6841 25.012C95.3433 27.1047 98.8848 38.6796 99.9043 42.1521Z" fill="black"/>
<path d="M58.5793 79.5521C58.0121 79.3452 56.8776 81.0852 56.594 81.5682C56.5863 81.5803 56.5815 81.5941 56.5801 81.6085C56.5788 81.6228 56.5807 81.6373 56.586 81.6507C56.5912 81.6641 56.5995 81.6761 56.6102 81.6858C56.6209 81.6954 56.6337 81.7024 56.6476 81.7061C57.0809 81.8046 57.4868 81.9984 57.8358 82.2734C57.8444 82.2832 57.855 82.291 57.8669 82.2964C57.8788 82.3018 57.8917 82.3045 57.9048 82.3045C57.9178 82.3045 57.9307 82.3018 57.9426 82.2964C57.9545 82.291 57.9651 82.2832 57.9738 82.2734C58.2114 81.7675 59.1466 79.7821 58.5793 79.5521ZM17.1703 31.6964C15.6934 31.9854 14.2623 32.4727 12.916 33.1452C13.362 32.4611 13.7639 31.7494 14.1194 31.0142C14.1259 30.9973 14.1262 30.9786 14.1202 30.9615C14.1142 30.9444 14.1023 30.9299 14.0867 30.9208C14.0711 30.9116 14.0527 30.9082 14.0348 30.9113C14.017 30.9144 14.0008 30.9237 13.9891 30.9375C13.485 31.6936 13.0317 32.4823 12.6323 33.2985C12.502 33.5745 14.7787 34.203 15.0776 34.249C15.0937 34.249 15.1094 34.244 15.1225 34.2346C15.1355 34.2252 15.1453 34.2119 15.1504 34.1966C15.1554 34.1814 15.1556 34.1649 15.1508 34.1495C15.146 34.1342 15.1365 34.1207 15.1236 34.1111C14.433 33.7715 13.7049 33.5142 12.9543 33.3445C14.3362 32.7617 15.7548 32.27 17.201 31.8727C17.339 31.7884 17.3006 31.6734 17.1703 31.6964ZM25.2038 29.6267C24.3495 29.1705 23.46 28.7834 22.5438 28.4693C22.5263 28.4649 22.5079 28.4668 22.4917 28.4748C22.4755 28.4827 22.4626 28.496 22.4552 28.5125C22.4479 28.529 22.4466 28.5475 22.4516 28.5648C22.4566 28.5822 22.4675 28.5972 22.4825 28.6072C23.2224 29.0107 23.991 29.3592 24.7822 29.6497C23.3181 29.7913 21.8838 30.1531 20.5278 30.7229C20.5128 30.733 20.5019 30.748 20.4969 30.7653C20.4919 30.7826 20.4932 30.8012 20.5005 30.8176C20.5079 30.8341 20.5208 30.8475 20.537 30.8554C20.5532 30.8633 20.5716 30.8652 20.5891 30.8609C21.601 30.5389 23.0651 30.2553 24.9661 29.8644C24.4726 30.4625 24.0339 31.1039 23.6553 31.7807C23.6504 31.7976 23.6509 31.8156 23.6567 31.8322C23.6625 31.8488 23.6733 31.8631 23.6876 31.8733C23.702 31.8834 23.7192 31.8888 23.7367 31.8887C23.7543 31.8886 23.7714 31.883 23.7856 31.8727C24.3344 31.2232 24.8196 30.5224 25.2344 29.7801C25.2458 29.7694 25.2544 29.7559 25.2591 29.741C25.2639 29.7261 25.2648 29.7102 25.2617 29.6949C25.2587 29.6795 25.2517 29.6652 25.2416 29.6533C25.2314 29.6414 25.2184 29.6322 25.2038 29.6267ZM32.049 28.6149C32.025 29.0644 31.8397 29.4901 31.5271 29.8139C31.2145 30.1378 30.7956 30.338 30.3473 30.378C29.9166 30.4119 29.487 30.3004 29.1271 30.0614C28.7672 29.8224 28.4978 29.4696 28.3619 29.0595C28.2487 28.6371 28.2883 28.1883 28.4739 27.7922C28.6594 27.3962 28.9788 27.0785 29.3759 26.8951C29.7729 26.7117 30.2219 26.6745 30.6437 26.79C31.0655 26.9055 31.4329 27.1663 31.6811 27.5264C31.3102 27.5085 30.9384 27.5213 30.5696 27.5647C30.5493 27.5647 30.5298 27.5728 30.5154 27.5872C30.501 27.6016 30.493 27.621 30.493 27.6414C30.493 27.6617 30.501 27.6812 30.5154 27.6956C30.5298 27.71 30.5493 27.718 30.5696 27.718C30.9951 27.7638 31.4243 27.7638 31.8497 27.718C31.8666 27.7142 31.8819 27.7056 31.8941 27.6934C31.9063 27.6812 31.9149 27.6659 31.9187 27.649C32.0144 27.206 32.0377 26.7504 31.9877 26.2999C31.9877 26.2796 31.9796 26.2601 31.9653 26.2457C31.9509 26.2313 31.9314 26.2233 31.9111 26.2233C31.8907 26.2233 31.8712 26.2313 31.8569 26.2457C31.8425 26.2601 31.8344 26.2796 31.8344 26.2999C31.7572 26.6547 31.7288 27.0183 31.7501 27.3808C30.3473 25.3571 27.4267 27.0281 28.0707 29.2051C28.7682 31.6504 32.486 31.0219 32.21 28.6686C32.2171 28.6472 32.2155 28.6239 32.2054 28.6038C32.1954 28.5837 32.1777 28.5684 32.1564 28.5612C32.135 28.5541 32.1117 28.5558 32.0916 28.5658C32.0715 28.5759 32.0562 28.5935 32.049 28.6149ZM14.3417 26.1236C14.1446 26.1236 13.952 26.1821 13.7881 26.2916C13.6242 26.4011 13.4965 26.5567 13.4211 26.7388C13.3457 26.9209 13.3259 27.1212 13.3644 27.3145C13.4028 27.5078 13.4977 27.6854 13.6371 27.8248C13.7765 27.9641 13.954 28.059 14.1473 28.0975C14.3406 28.1359 14.541 28.1162 14.7231 28.0408C14.9052 27.9654 15.0608 27.8376 15.1703 27.6738C15.2798 27.5099 15.3383 27.3172 15.3383 27.1201C15.3383 26.8558 15.2333 26.6024 15.0464 26.4155C14.8595 26.2286 14.606 26.1236 14.3417 26.1236ZM17.8602 25.0658C17.6631 25.0658 17.4704 25.1242 17.3066 25.2337C17.1427 25.3432 17.015 25.4988 16.9395 25.6809C16.8641 25.863 16.8444 26.0634 16.8828 26.2567C16.9213 26.45 17.0162 26.6276 17.1556 26.7669C17.2949 26.9063 17.4725 27.0012 17.6658 27.0397C17.8591 27.0781 18.0595 27.0584 18.2416 26.9829C18.4236 26.9075 18.5793 26.7798 18.6888 26.6159C18.7983 26.452 18.8567 26.2594 18.8567 26.0623C18.8567 25.798 18.7517 25.5445 18.5648 25.3576C18.378 25.1708 18.1245 25.0658 17.8602 25.0658ZM21.3863 24.0309C21.1892 24.0309 20.9966 24.0894 20.8327 24.1989C20.6688 24.3084 20.5411 24.464 20.4657 24.6461C20.3903 24.8282 20.3705 25.0285 20.409 25.2219C20.4474 25.4152 20.5423 25.5927 20.6817 25.7321C20.8211 25.8715 20.9986 25.9664 21.1919 26.0048C21.3852 26.0433 21.5856 26.0235 21.7677 25.9481C21.9498 25.8727 22.1054 25.745 22.2149 25.5811C22.3244 25.4172 22.3829 25.2245 22.3829 25.0274C22.3829 24.7632 22.2779 24.5097 22.091 24.3228C21.9041 24.1359 21.6506 24.0309 21.3863 24.0309ZM87.5933 11.9961C86.9954 11.9961 42.4205 23.3257 38.7027 24.3222C36.4031 24.9431 35.8741 24.9891 35.4142 25.7557C35.2467 26.0265 35.155 26.3374 35.1487 26.6558C35.1424 26.9742 35.2218 27.2885 35.3784 27.5658C35.5351 27.843 35.7633 28.0732 36.0393 28.2321C36.3153 28.391 36.6289 28.4729 36.9473 28.4693C37.5499 28.3921 38.1415 28.2454 38.7104 28.0323C48.4992 25.3571 87.095 15.7675 87.5703 15.6755C87.878 15.6391 88.1743 15.5367 88.4389 15.3753C88.7035 15.2139 88.9301 14.9973 89.1034 14.7403C89.2675 14.4687 89.3573 14.1587 89.3637 13.8414C89.3701 13.5241 89.293 13.2106 89.14 12.9326C88.987 12.6545 88.7635 12.4216 88.492 12.2572C88.2205 12.0929 87.9106 12.0028 87.5933 11.9961ZM88.9654 14.6254C88.8005 14.8601 88.5873 15.0569 88.34 15.2023C88.0928 15.3478 87.8172 15.4385 87.5319 15.4686C31.7271 29.4428 37.4762 28.3083 36.9396 28.3083C36.6551 28.3037 36.3768 28.2245 36.1325 28.0786C35.8881 27.9326 35.6864 27.7251 35.5475 27.4767C35.4086 27.2284 35.3373 26.9479 35.3408 26.6634C35.3443 26.3788 35.4225 26.1002 35.5675 25.8553C35.9738 25.1961 36.3341 25.1654 38.7334 24.5215C43.026 23.364 87.026 12.2031 87.5703 12.2031C87.854 12.2021 88.133 12.2762 88.379 12.4178C88.6249 12.5594 88.8291 12.7635 88.9707 13.0094C89.1123 13.2553 89.1864 13.5343 89.1855 13.8181C89.1846 14.1019 89.1086 14.3804 88.9654 14.6254Z" fill="black"/>
<path d="M39.5992 26.8897C39.3955 26.732 39.1711 26.6031 38.9323 26.5064C39.0336 26.293 39.0489 26.0489 38.975 25.8245C38.9012 25.6001 38.7438 25.4127 38.5356 25.3012C38.3274 25.1897 38.0842 25.1625 37.8565 25.2254C37.6288 25.2882 37.434 25.4363 37.3125 25.6388C37.191 25.8414 37.152 26.0829 37.2037 26.3134C37.2554 26.5439 37.3938 26.7457 37.5902 26.8769C37.7866 27.0081 38.0259 27.0588 38.2587 27.0184C38.4914 26.9779 38.6997 26.8495 38.8403 26.6598C39.0562 26.805 39.2876 26.9259 39.5302 27.02C39.5465 27.0235 39.5635 27.0216 39.5786 27.0145C39.5937 27.0074 39.6061 26.9957 39.6139 26.9809C39.6217 26.9662 39.6245 26.9493 39.6218 26.9329C39.6192 26.9164 39.6112 26.9013 39.5992 26.8897ZM38.0661 26.8897C37.9129 26.8989 37.7604 26.8619 37.6284 26.7835C37.4965 26.705 37.3911 26.5888 37.326 26.4498C37.2608 26.3108 37.2389 26.1554 37.2631 26.0038C37.2873 25.8522 37.3564 25.7114 37.4616 25.5995C37.5667 25.4877 37.703 25.41 37.8528 25.3765C38.0026 25.343 38.1591 25.3552 38.3018 25.4116C38.4446 25.4681 38.5671 25.5661 38.6536 25.6929C38.74 25.8198 38.7864 25.9697 38.7866 26.1232C38.7874 26.3151 38.7162 26.5003 38.5871 26.6422C38.4579 26.7841 38.2802 26.8725 38.0891 26.8897H38.0661ZM86.4507 13.7664C86.2897 12.7009 85.9141 12.7852 85.7685 13.3678C85.7328 13.4985 85.7071 13.6317 85.6918 13.7664C85.4389 13.7664 84.8716 13.6974 84.749 13.9274C84.6263 14.1573 84.8793 14.28 85.0709 14.3643C85.2014 14.4202 85.3376 14.4613 85.4772 14.4869C85.3009 14.7246 85.0786 15.1768 85.3086 15.3225C85.5385 15.4681 85.9678 15.0159 86.1594 14.8089C86.3587 14.9775 86.7497 15.2612 86.972 15.1232C87.1943 14.9852 86.8417 14.5713 86.6424 14.3566C86.903 14.303 87.2939 14.1803 87.2326 13.9274C87.1713 13.6744 86.6884 13.7434 86.4507 13.7664ZM86.535 14.303C86.4891 14.303 86.4737 14.3413 86.535 14.3873C86.5964 14.4333 87.0333 14.9162 86.9183 15.0235C86.8033 15.1308 86.3741 14.8012 86.2131 14.6862C86.2018 14.6787 86.1884 14.6746 86.1748 14.6746C86.1611 14.6746 86.1478 14.6787 86.1364 14.6862C85.8835 14.9315 85.4925 15.2688 85.3699 15.1768C85.2472 15.0849 85.5845 14.5406 85.6152 14.4563C85.6222 14.4491 85.6261 14.4395 85.6261 14.4295C85.6261 14.4194 85.6222 14.4098 85.6152 14.4026C85.4772 14.349 84.8946 14.1727 84.933 13.981C84.9713 13.7894 85.6995 13.8584 85.7838 13.866C85.8681 13.8737 85.8451 13.8277 85.8528 13.7664C85.9985 12.9998 86.1288 13.0535 86.1901 13.1608C86.284 13.3724 86.3634 13.5901 86.4277 13.8124V13.8507C86.4277 13.8507 87.087 13.8507 87.1329 13.981C87.1789 14.1113 86.719 14.2646 86.535 14.303ZM56.9386 79.4827C55.4974 74.6075 54.4243 72.5378 54.9379 70.8744C55.965 67.8925 66.4361 65.3475 69.9239 64.5427C71.1121 64.2667 73.8026 63.6381 74.9448 63.8834C76.087 64.1287 76.7769 64.7956 79.4061 72.6987C80.515 75.9412 81.4237 79.2487 82.1274 82.6026C82.2504 82.9973 82.2846 83.4143 82.2276 83.8238C82.1706 84.2332 82.0238 84.6251 81.7978 84.9712C80.5866 86.581 71.9016 88.9573 69.9546 89.4939C60.4877 92.0925 61.6298 91.7015 58.8013 84.6109C58.8013 84.5967 58.7956 84.5831 58.7856 84.573C58.7755 84.5629 58.7618 84.5573 58.7476 84.5573C58.7334 84.5573 58.7197 84.5629 58.7097 84.573C58.6996 84.5831 58.694 84.5967 58.694 84.6109C59.9358 88.4437 60.388 90.6437 62.4271 91.1649C63.9602 91.5712 68.3985 90.1608 70.0236 89.7008C80.2417 86.7649 81.3532 85.9447 82.0047 85.1015C82.2502 84.7279 82.411 84.3052 82.4759 83.863C82.5407 83.4207 82.5081 82.9696 82.3803 82.5412C81.6797 79.1666 80.7708 75.8385 79.6591 72.5761C77.0145 64.6806 76.3399 63.8911 74.9985 63.5998C73.8333 63.3468 71.4877 63.8911 69.8703 64.2667C66.3824 65.0869 55.8424 67.6242 54.7232 70.767C54.1023 72.6298 56.0187 77.4744 56.8236 79.4827C56.8542 79.59 56.9615 79.5517 56.9386 79.4827ZM89.0417 83.2465C91.2417 83.1162 101.046 80.3412 105.906 78.2179C107.546 77.4974 108.366 76.7691 107.975 75.0291C106.372 69.3818 104.4 63.8456 102.073 58.4563C101.781 57.5662 101.18 56.8102 100.379 56.3252C98.6159 55.482 90.0688 58.2646 87.2249 59.1845C85.4235 59.767 82.342 60.7559 81.0925 61.9977C79.9887 63.0556 80.142 64.4047 80.556 65.8765C85.3622 82.8479 86.3511 83.3998 89.0417 83.2465ZM81.1922 62.151C82.4417 60.9475 85.5155 59.974 87.2709 59.4068C89.7086 58.6402 98.6312 55.781 100.302 56.5552C101.05 57.0229 101.61 57.7395 101.881 58.5789C104.2 63.9495 106.151 69.4711 107.722 75.1057C108.037 76.7768 107.378 77.2904 105.821 77.9726C101.705 79.774 91.3873 82.8555 89.0647 83.0088C86.3971 83.1775 85.4849 82.2423 80.7246 65.8535C80.2953 64.4507 80.142 63.1322 81.1922 62.151ZM28.8982 35.4597C28.8874 35.4115 28.867 35.3659 28.8382 35.3256C28.8095 35.2854 28.7729 35.2514 28.7307 35.2257C28.6884 35.1999 28.6415 35.1829 28.5925 35.1757C28.5436 35.1685 28.4937 35.1713 28.4459 35.1838L14.855 38.7789C14.7533 38.8053 14.6663 38.8711 14.6131 38.9616C14.5599 39.0522 14.5449 39.1602 14.5713 39.2618C14.5978 39.3635 14.6635 39.4505 14.7541 39.5037C14.8446 39.5569 14.9526 39.5719 15.0543 39.5455L28.6375 35.9503C28.6882 35.9374 28.7356 35.914 28.7767 35.8817C28.8178 35.8494 28.8517 35.8088 28.8763 35.7626C28.9008 35.7165 28.9154 35.6657 28.9192 35.6135C28.923 35.5613 28.9158 35.509 28.8982 35.4597ZM25.9469 39.2925C25.9353 39.2449 25.9143 39.2001 25.8852 39.1608C25.856 39.1214 25.8193 39.0883 25.7772 39.0633C25.7351 39.0383 25.6884 39.022 25.6399 39.0152C25.5914 39.0085 25.542 39.0116 25.4947 39.0242L15.6062 41.6381C15.5573 41.6513 15.5116 41.6742 15.4718 41.7055C15.432 41.7368 15.3989 41.7758 15.3746 41.8202C15.3502 41.8646 15.3351 41.9135 15.3301 41.9639C15.3251 42.0142 15.3304 42.0651 15.3456 42.1134C15.3571 42.1608 15.3781 42.2055 15.4073 42.2445C15.4366 42.2836 15.4735 42.3163 15.5158 42.3407C15.5581 42.3651 15.6049 42.3806 15.6534 42.3863C15.7019 42.392 15.751 42.3879 15.7978 42.374L25.6863 39.7601C25.7343 39.7469 25.7793 39.7242 25.8184 39.6934C25.8576 39.6626 25.8903 39.6244 25.9145 39.5809C25.9388 39.5374 25.9542 39.4895 25.9597 39.4399C25.9653 39.3904 25.9609 39.3403 25.9469 39.2925ZM34.5706 33.7887C34.5975 33.884 34.6608 33.9648 34.747 34.0136C34.8331 34.0624 34.935 34.0752 35.0306 34.0493L48.6138 30.4542C48.6616 30.4416 48.7065 30.4197 48.7459 30.3898C48.7852 30.3599 48.8183 30.3225 48.8432 30.2798C48.8681 30.2371 48.8844 30.1899 48.8911 30.1409C48.8977 30.0919 48.8947 30.0421 48.8821 29.9942C48.8695 29.9464 48.8477 29.9016 48.8177 29.8622C48.7878 29.8228 48.7504 29.7898 48.7077 29.7648C48.665 29.7399 48.6178 29.7237 48.5688 29.717C48.5198 29.7103 48.47 29.7134 48.4222 29.726L34.8389 33.3517C34.7472 33.377 34.6684 33.4362 34.6186 33.5173C34.5688 33.5984 34.5517 33.6954 34.5706 33.7887ZM45.9309 33.8577C45.9039 33.7621 45.8409 33.6807 45.7551 33.6306C45.6693 33.5806 45.5675 33.5658 45.471 33.5894L35.5825 36.211C35.5339 36.2233 35.4883 36.2453 35.4485 36.2759C35.4088 36.3064 35.3757 36.3448 35.3513 36.3885C35.3269 36.4323 35.3117 36.4806 35.3066 36.5305C35.3016 36.5804 35.3067 36.6308 35.3218 36.6786C35.3471 36.7736 35.4086 36.8549 35.4932 36.9051C35.5778 36.9552 35.6786 36.9702 35.7741 36.9469L45.6703 34.3253C45.7661 34.2967 45.847 34.2319 45.8957 34.1445C45.9444 34.0571 45.9571 33.9542 45.9309 33.8577ZM54.5546 28.4228C54.5662 28.4704 54.5872 28.5152 54.6163 28.5545C54.6455 28.5939 54.6822 28.6271 54.7243 28.652C54.7664 28.677 54.8131 28.6934 54.8616 28.7001C54.9102 28.7068 54.9595 28.7037 55.0069 28.6911L68.5901 25.096C68.6391 25.0827 68.685 25.0598 68.7251 25.0287C68.7652 24.9975 68.7987 24.9587 68.8236 24.9145C68.8486 24.8703 68.8645 24.8215 68.8705 24.7711C68.8765 24.7207 68.8724 24.6696 68.8584 24.6207C68.8299 24.5266 68.7662 24.447 68.6806 24.3984C68.5949 24.3499 68.4939 24.3362 68.3985 24.3601L54.8152 27.9169C54.762 27.9283 54.7119 27.9514 54.6687 27.9844C54.6255 28.0175 54.5901 28.0598 54.5652 28.1082C54.5402 28.1566 54.5264 28.2099 54.5245 28.2643C54.5227 28.3187 54.533 28.3729 54.5546 28.4228ZM65.9225 28.4228C65.8957 28.3275 65.8323 28.2467 65.7462 28.1979C65.66 28.1491 65.5581 28.1363 65.4626 28.1622L55.5741 30.7761C55.4724 30.8026 55.3855 30.8683 55.3323 30.9589C55.2791 31.0494 55.264 31.1574 55.2905 31.2591C55.3169 31.3607 55.3826 31.4477 55.4732 31.5009C55.5638 31.5541 55.6717 31.5691 55.7734 31.5427L65.6619 28.9211C65.7142 28.9094 65.7632 28.8865 65.8057 28.854C65.8482 28.8214 65.8831 28.7799 65.9079 28.7325C65.9327 28.685 65.9469 28.6327 65.9494 28.5793C65.9519 28.5258 65.9428 28.4724 65.9225 28.4228ZM74.5309 22.9573C74.5433 23.0042 74.5649 23.0482 74.5944 23.0867C74.6239 23.1252 74.6608 23.1575 74.7028 23.1817C74.7448 23.2059 74.7912 23.2216 74.8393 23.2278C74.8875 23.234 74.9363 23.2307 74.9831 23.2179L88.5741 19.6228C88.6221 19.6096 88.667 19.5869 88.7062 19.5561C88.7454 19.5254 88.778 19.4871 88.8023 19.4436C88.8265 19.4001 88.8419 19.3522 88.8475 19.3027C88.853 19.2532 88.8487 19.203 88.8347 19.1552C88.8222 19.1074 88.8004 19.0624 88.7705 19.023C88.7406 18.9836 88.7032 18.9504 88.6605 18.9255C88.6177 18.9006 88.5705 18.8843 88.5215 18.8777C88.4724 18.8711 88.4226 18.8742 88.3748 18.8869L74.7915 22.4821C74.6939 22.5105 74.6116 22.5766 74.5628 22.6657C74.5139 22.7548 74.5024 22.8597 74.5309 22.9573ZM85.8528 22.9956C85.8412 22.9481 85.8202 22.9033 85.7911 22.8639C85.7619 22.8246 85.7252 22.7914 85.6831 22.7664C85.641 22.7414 85.5943 22.7251 85.5458 22.7184C85.4972 22.7117 85.4479 22.7147 85.4006 22.7274L75.5427 25.3566C75.4949 25.3692 75.45 25.3911 75.4107 25.421C75.3713 25.4509 75.3382 25.4883 75.3133 25.531C75.2884 25.5737 75.2721 25.6209 75.2655 25.6699C75.2588 25.7189 75.2618 25.7687 75.2744 25.8165C75.287 25.8644 75.3089 25.9092 75.3388 25.9486C75.3687 25.988 75.4061 26.021 75.4488 26.046C75.4915 26.0709 75.5387 26.0871 75.5877 26.0938C75.6367 26.1005 75.6865 26.0974 75.7344 26.0848L85.6228 23.4709C85.6696 23.4554 85.7127 23.4307 85.7497 23.3982C85.7868 23.3658 85.8169 23.3262 85.8383 23.2819C85.8598 23.2376 85.8721 23.1894 85.8746 23.1402C85.8771 23.0911 85.8697 23.0419 85.8528 22.9956ZM82.8863 88.9803C82.8715 88.9328 82.8474 88.8887 82.8154 88.8506C82.7834 88.8124 82.7441 88.7811 82.6999 88.7582C82.6557 88.7354 82.6074 88.7216 82.5578 88.7176C82.5082 88.7136 82.4583 88.7195 82.411 88.735L64.834 94.2081C64.7867 94.2227 64.7427 94.2465 64.7046 94.2781C64.6665 94.3097 64.6349 94.3485 64.6118 94.3923C64.5887 94.436 64.5744 94.4839 64.5698 94.5332C64.5652 94.5825 64.5703 94.6323 64.5849 94.6796C64.5995 94.7269 64.6233 94.7709 64.6548 94.809C64.6864 94.8471 64.7252 94.8786 64.769 94.9018C64.8128 94.9249 64.8607 94.9392 64.91 94.9438C64.9593 94.9484 65.009 94.9433 65.0563 94.9287L82.6333 89.4555C82.7295 89.4255 82.8099 89.3587 82.8573 89.2698C82.9046 89.1808 82.915 89.0768 82.8863 88.9803ZM78.9539 94.2081C78.9391 94.1606 78.915 94.1165 78.883 94.0784C78.851 94.0403 78.8118 94.0089 78.7675 93.9861C78.7233 93.9633 78.675 93.9495 78.6254 93.9455C78.5758 93.9415 78.5259 93.9474 78.4786 93.9628L65.8382 97.8952C65.7907 97.91 65.7466 97.9341 65.7085 97.9661C65.6704 97.9981 65.639 98.0374 65.6162 98.0816C65.5933 98.1258 65.5795 98.1741 65.5755 98.2237C65.5715 98.2733 65.5774 98.3232 65.5929 98.3705C65.623 98.4667 65.6897 98.5471 65.7786 98.5945C65.8676 98.6418 65.9716 98.6522 66.0682 98.6235L78.7009 94.6834C78.7971 94.6533 78.8775 94.5866 78.9249 94.4977C78.9722 94.4087 78.9826 94.3047 78.9539 94.2081ZM84.358 96.0938L66.7811 101.575C66.7337 101.59 66.6899 101.614 66.6519 101.646C66.614 101.678 66.5828 101.717 66.56 101.762C66.5372 101.806 66.5233 101.854 66.5192 101.903C66.515 101.953 66.5207 102.003 66.5358 102.05C66.5509 102.097 66.5751 102.141 66.6072 102.179C66.6392 102.217 66.6785 102.248 66.7226 102.271C66.7667 102.294 66.8149 102.308 66.8644 102.312C66.9139 102.316 66.9637 102.31 67.011 102.295L84.588 96.8221C84.6355 96.8073 84.6796 96.7832 84.7177 96.7512C84.7558 96.7192 84.7872 96.68 84.81 96.6357C84.8329 96.5915 84.8467 96.5432 84.8507 96.4936C84.8547 96.444 84.8488 96.3941 84.8333 96.3468C84.8032 96.2506 84.7365 96.1702 84.6476 96.1228C84.5586 96.0755 84.4546 96.0651 84.358 96.0938ZM107.837 81.1691L90.2605 86.6806C90.2132 86.6952 90.1692 86.719 90.1311 86.7506C90.0929 86.7822 90.0614 86.821 90.0383 86.8647C90.0151 86.9085 90.0009 86.9564 89.9962 87.0057C89.9916 87.055 89.9968 87.1047 90.0114 87.152C90.0259 87.1994 90.0497 87.2433 90.0813 87.2815C90.1129 87.3196 90.1517 87.3511 90.1955 87.3742C90.2392 87.3974 90.2871 87.4117 90.3364 87.4163C90.3857 87.4209 90.4355 87.4158 90.4828 87.4012L108.083 81.8973C108.184 81.8679 108.27 81.7992 108.321 81.7065C108.372 81.6138 108.384 81.5046 108.355 81.4029C108.325 81.3013 108.257 81.2155 108.164 81.1645C108.071 81.1134 107.962 81.1013 107.86 81.1308L107.837 81.1691ZM104.342 86.6346C104.328 86.5874 104.305 86.5435 104.273 86.5054C104.242 86.4674 104.204 86.436 104.16 86.4131C104.116 86.3902 104.069 86.3763 104.02 86.3722C103.971 86.3682 103.921 86.374 103.874 86.3893L91.2187 90.3217C91.1225 90.3518 91.042 90.4185 90.9947 90.5075C90.9473 90.5964 90.9369 90.7004 90.9657 90.797C90.9805 90.8445 91.0046 90.8886 91.0366 90.9267C91.0686 90.9648 91.1078 90.9962 91.152 91.019C91.1963 91.0418 91.2446 91.0557 91.2942 91.0597C91.3438 91.0636 91.3937 91.0577 91.441 91.0423L104.081 87.1099C104.13 87.0967 104.176 87.0738 104.216 87.0425C104.256 87.0112 104.289 86.9722 104.313 86.9278C104.337 86.8834 104.352 86.8346 104.357 86.7842C104.362 86.7338 104.357 86.6829 104.342 86.6346ZM91.9852 94.4688C91.9993 94.5161 92.0225 94.5602 92.0536 94.5985C92.0848 94.6369 92.1231 94.6687 92.1666 94.6922C92.21 94.7157 92.2576 94.7304 92.3067 94.7355C92.3559 94.7405 92.4055 94.7359 92.4528 94.7217L110.03 89.2486C110.083 89.2389 110.134 89.218 110.178 89.1874C110.223 89.1568 110.26 89.1171 110.288 89.0709C110.317 89.0247 110.335 88.9731 110.341 88.9194C110.348 88.8658 110.343 88.8113 110.328 88.7596C110.312 88.7079 110.285 88.6601 110.25 88.6194C110.214 88.5786 110.17 88.5459 110.121 88.5233C110.072 88.5007 110.019 88.4887 109.965 88.4882C109.911 88.4877 109.857 88.4987 109.808 88.5203L92.2305 93.9935C92.183 94.0083 92.1389 94.0324 92.1008 94.0644C92.0627 94.0964 92.0313 94.1356 92.0085 94.1798C91.9856 94.2241 91.9718 94.2724 91.9678 94.322C91.9639 94.3716 91.9698 94.4215 91.9852 94.4688ZM70.5218 113.824L79.1072 111.218C79.1933 111.18 79.2625 111.112 79.3018 111.027C79.3411 110.942 79.3476 110.845 79.3202 110.755C79.2927 110.665 79.2332 110.588 79.153 110.539C79.0727 110.491 78.9773 110.473 78.8849 110.49L70.2995 113.096C70.2463 113.106 70.1958 113.126 70.1512 113.157C70.1066 113.188 70.069 113.227 70.0409 113.274C70.0128 113.32 69.9947 113.371 69.988 113.425C69.9812 113.479 69.9859 113.533 70.0017 113.585C70.0174 113.637 70.044 113.684 70.0796 113.725C70.1151 113.766 70.1589 113.799 70.2081 113.821C70.2572 113.844 70.3106 113.856 70.3646 113.856C70.4187 113.857 70.4723 113.846 70.5218 113.824ZM70.7365 116.492C70.7665 116.588 70.8332 116.668 70.9222 116.716C71.0111 116.763 71.1151 116.773 71.2117 116.745L82.7866 113.226C82.8708 113.188 82.9385 113.121 82.977 113.037C83.0155 112.953 83.0223 112.857 82.9961 112.769C82.97 112.68 82.9127 112.604 82.8347 112.554C82.7568 112.504 82.6634 112.484 82.572 112.498L70.9664 116.016C70.8745 116.051 70.7993 116.12 70.7565 116.208C70.7138 116.297 70.7066 116.398 70.7365 116.492ZM73.588 119.159L80.441 117.074C80.4889 117.061 80.5336 117.038 80.5725 117.008C80.6114 116.977 80.6437 116.938 80.6673 116.895C80.6909 116.851 80.7055 116.803 80.7101 116.753C80.7146 116.704 80.7092 116.654 80.6939 116.607C80.6799 116.559 80.6566 116.515 80.6255 116.477C80.5944 116.439 80.556 116.407 80.5126 116.383C80.4692 116.36 80.4215 116.345 80.3724 116.34C80.3233 116.335 80.2737 116.34 80.2263 116.354L73.3274 118.431C73.2771 118.446 73.2301 118.47 73.1892 118.503C73.1483 118.536 73.1142 118.576 73.0889 118.622C73.0637 118.668 73.0477 118.718 73.0419 118.77C73.0361 118.823 73.0407 118.875 73.0553 118.926C73.0699 118.976 73.0942 119.023 73.127 119.064C73.1597 119.105 73.2002 119.139 73.2461 119.164C73.292 119.189 73.3425 119.205 73.3946 119.211C73.4466 119.217 73.4994 119.212 73.5497 119.198L73.588 119.159ZM74.4159 121.796C74.446 121.892 74.5127 121.973 74.6016 122.02C74.6906 122.068 74.7946 122.078 74.8911 122.049L84.703 119.075C84.7891 119.037 84.8583 118.969 84.8976 118.884C84.9369 118.799 84.9434 118.702 84.916 118.612C84.8885 118.522 84.829 118.445 84.7488 118.397C84.6685 118.348 84.5731 118.33 84.4807 118.347L74.6689 121.321C74.5727 121.351 74.4922 121.418 74.4449 121.507C74.3975 121.596 74.3871 121.7 74.4159 121.796ZM81.8514 122.8L73.6723 125.276C73.622 125.291 73.575 125.315 73.5341 125.348C73.4932 125.381 73.4591 125.421 73.4339 125.467C73.4086 125.513 73.3926 125.564 73.3869 125.616C73.3811 125.668 73.3856 125.721 73.4002 125.771C73.4148 125.821 73.4392 125.868 73.4719 125.909C73.5047 125.95 73.5452 125.984 73.5911 126.009C73.637 126.035 73.6874 126.051 73.7395 126.056C73.7916 126.062 73.8443 126.058 73.8946 126.043L82.0737 123.559C82.1693 123.53 82.2492 123.464 82.2959 123.375C82.3426 123.287 82.3523 123.183 82.3229 123.088C82.2934 122.992 82.2271 122.912 82.1387 122.866C82.0503 122.819 81.947 122.809 81.8514 122.839V122.8ZM86.0598 109.302L93.135 107.293C93.2367 107.266 93.3233 107.199 93.3757 107.108C93.4282 107.016 93.4423 106.908 93.4148 106.806C93.3874 106.705 93.3207 106.618 93.2294 106.566C93.1381 106.513 93.0297 106.499 92.9281 106.527L85.8528 108.573C85.8041 108.586 85.7584 108.608 85.7183 108.638C85.6783 108.669 85.6448 108.707 85.6198 108.75C85.5947 108.794 85.5787 108.842 85.5727 108.892C85.5666 108.942 85.5707 108.993 85.5845 109.041C85.6147 109.137 85.681 109.218 85.7697 109.267C85.8583 109.316 85.9622 109.328 86.0598 109.302ZM86.5044 111.977C86.5176 112.025 86.5403 112.07 86.5711 112.109C86.6018 112.148 86.6401 112.181 86.6836 112.205C86.7271 112.229 86.775 112.245 86.8245 112.25C86.874 112.256 86.9242 112.251 86.972 112.237L95.1664 109.938C95.2681 109.91 95.3546 109.844 95.4071 109.752C95.4596 109.661 95.4736 109.553 95.4462 109.451C95.4187 109.349 95.352 109.263 95.2608 109.21C95.1695 109.158 95.0611 109.144 94.9594 109.171L86.765 111.471C86.7118 111.482 86.6617 111.505 86.6185 111.538C86.5753 111.571 86.5399 111.614 86.515 111.662C86.49 111.711 86.4762 111.764 86.4743 111.818C86.4725 111.873 86.4828 111.927 86.5044 111.977ZM94.9288 112.743C94.8986 112.647 94.8322 112.566 94.7436 112.517C94.655 112.469 94.551 112.456 94.4535 112.483L87.6772 114.407C87.6269 114.42 87.5797 114.444 87.5384 114.476C87.4971 114.507 87.4625 114.547 87.4365 114.592C87.384 114.683 87.37 114.792 87.3974 114.893C87.4249 114.995 87.4916 115.082 87.5828 115.134C87.6741 115.187 87.7825 115.201 87.8842 115.173L94.6681 113.249C94.7194 113.235 94.767 113.209 94.8082 113.176C94.8494 113.142 94.8833 113.1 94.9077 113.053C94.9321 113.005 94.9465 112.953 94.9502 112.9C94.9538 112.847 94.9465 112.794 94.9288 112.743ZM88.3288 117.81C88.342 117.858 88.3647 117.903 88.3954 117.942C88.4262 117.982 88.4645 118.014 88.508 118.038C88.5515 118.063 88.5994 118.078 88.6489 118.084C88.6984 118.089 88.7486 118.085 88.7964 118.071L96.8068 115.771C96.8554 115.759 96.901 115.737 96.9407 115.706C96.9805 115.676 97.0136 115.637 97.038 115.594C97.0624 115.55 97.0776 115.502 97.0827 115.452C97.0877 115.402 97.0825 115.351 97.0674 115.304C97.0544 115.254 97.0312 115.207 96.9994 115.167C96.9676 115.126 96.9278 115.093 96.8825 115.068C96.8373 115.044 96.7874 115.029 96.7362 115.025C96.6849 115.02 96.6333 115.027 96.5845 115.043L88.5741 117.343C88.481 117.374 88.4037 117.44 88.358 117.527C88.3124 117.614 88.3019 117.716 88.3288 117.81ZM95.0514 118.692L89.5169 120.263C89.4153 120.291 89.3287 120.357 89.2762 120.449C89.2237 120.54 89.2097 120.648 89.2371 120.75C89.2646 120.852 89.3313 120.938 89.4226 120.991C89.5138 121.043 89.6222 121.057 89.7239 121.03L95.2584 119.458C95.36 119.431 95.4466 119.364 95.4991 119.273C95.5516 119.182 95.5656 119.073 95.5382 118.972C95.5107 118.87 95.444 118.783 95.3527 118.731C95.2615 118.678 95.1531 118.664 95.0514 118.692ZM58.3567 49.1733C58.75 49.5644 59.2337 49.8525 59.7649 50.012C60.2962 50.1715 60.8585 50.1976 61.4022 50.0878C61.9459 49.9781 62.4542 49.7359 62.8819 49.3829C63.3097 49.0298 63.6438 48.5766 63.8546 48.0636C64.0654 47.5505 64.1464 46.9934 64.0905 46.4416C64.0346 45.8897 63.8434 45.3602 63.534 44.8999C63.2245 44.4396 62.8063 44.0627 62.3164 43.8026C61.8265 43.5425 61.28 43.4073 60.7253 43.4089C60.0549 43.4033 59.3982 43.5985 58.8397 43.9695C58.2812 44.3404 57.8466 44.87 57.5918 45.4902C57.337 46.1103 57.2737 46.7925 57.41 47.4489C57.5463 48.1054 57.876 48.7059 58.3567 49.1733ZM58.6863 44.7273C59.0273 44.3903 59.4461 44.1424 59.9057 44.0056C60.3652 43.8687 60.8514 43.8472 61.3213 43.9427C61.7912 44.0383 62.2303 44.2481 62.5999 44.5536C62.9694 44.8591 63.2581 45.2509 63.4404 45.6944C63.6227 46.1378 63.693 46.6194 63.6451 47.0965C63.5972 47.5736 63.4325 48.0315 63.1657 48.4299C62.8989 48.8283 62.5381 49.1549 62.1151 49.3808C61.6922 49.6067 61.2201 49.725 60.7406 49.7252C60.1614 49.7255 59.5952 49.5536 59.1139 49.2313C58.6326 48.9089 58.2581 48.4508 58.0379 47.915C57.8177 47.3793 57.7617 46.7902 57.8772 46.2226C57.9927 45.6549 58.2743 45.1345 58.6863 44.7273Z" fill="black"/>
<path d="M73.9111 65.3633C71.8519 68.7818 70.0333 72.3395 68.4686 76.0107C65.2434 74.3213 61.9151 72.8364 58.5035 71.5647C58.4615 71.5524 58.4165 71.5547 58.3761 71.5715C58.3356 71.5882 58.3021 71.6183 58.2812 71.6567C58.2623 71.6996 58.2605 71.7481 58.2762 71.7922C58.2919 71.8364 58.3238 71.8729 58.3655 71.8943C62.3056 73.849 68.1467 76.7773 68.1467 76.7773C66.6039 80.3916 65.2805 84.0956 64.1836 87.8692C64.1766 87.8952 64.1756 87.9225 64.1808 87.949C64.1859 87.9754 64.1971 88.0003 64.2133 88.0218C64.2296 88.0432 64.2506 88.0607 64.2747 88.0728C64.2988 88.0849 64.3253 88.0913 64.3522 88.0915C64.6435 88.0915 64.3063 88.0915 68.8902 77.1682C71.2512 78.41 75.0226 80.541 79.254 83.0936C79.2936 83.1201 79.3421 83.1297 79.3889 83.1203C79.4356 83.111 79.4767 83.0834 79.5031 83.0438C79.5295 83.0042 79.5391 82.9556 79.5298 82.9089C79.5204 82.8622 79.4929 82.8211 79.4533 82.7947C76.2027 80.4129 72.7796 78.276 69.2122 76.4016C70.5613 73.2435 72.2017 69.6867 74.2254 65.532C74.2478 65.4903 74.2527 65.4414 74.239 65.3961C74.2254 65.3509 74.1943 65.3129 74.1526 65.2905C74.1109 65.2681 74.0621 65.2632 74.0168 65.2769C73.9715 65.2906 73.9335 65.3216 73.9111 65.3633ZM83.401 64.4511C86.4672 65.9842 88.3453 66.8198 93.3662 69.4184C91.7345 72.987 90.3539 76.6651 89.2345 80.426C89.2202 80.4708 89.2244 80.5193 89.2459 80.561C89.2675 80.6027 89.3047 80.6341 89.3494 80.6483C89.3942 80.6626 89.4427 80.6584 89.4844 80.6369C89.5261 80.6153 89.5575 80.5781 89.5717 80.5333C91.1662 76.6546 90.5683 77.7814 94.1174 69.8016C97.1836 71.4421 100.641 73.4121 104.313 75.6351C104.352 75.6615 104.401 75.6711 104.447 75.6618C104.494 75.6524 104.535 75.6249 104.562 75.5853C104.588 75.5456 104.598 75.4971 104.588 75.4504C104.579 75.4037 104.551 75.3626 104.512 75.3361C101.31 73.0012 97.9437 70.9005 94.4393 69.0504C96.0644 65.532 97.8658 61.9598 99.3069 58.978C99.3229 58.938 99.3236 58.8936 99.3091 58.8531C99.2946 58.8127 99.2658 58.7789 99.2281 58.7582C99.1905 58.7374 99.1465 58.7312 99.1045 58.7406C99.0626 58.75 99.0255 58.7745 99.0003 58.8093C97.057 61.994 95.2888 65.2823 93.7034 68.6595C90.4208 66.9338 87.0308 65.4206 83.5543 64.1292C83.5116 64.1088 83.4626 64.1063 83.418 64.1221C83.3735 64.1379 83.337 64.1708 83.3167 64.2135C83.2964 64.2562 83.2938 64.3052 83.3096 64.3498C83.3255 64.3943 83.3583 64.4308 83.401 64.4511ZM100.288 106.811C100.527 106.57 100.689 106.264 100.756 105.932C100.823 105.6 100.79 105.255 100.663 104.941C100.536 104.627 100.319 104.357 100.04 104.165C99.7606 103.972 99.4312 103.866 99.0923 103.859C98.8141 103.863 98.541 103.934 98.2966 104.067C98.0522 104.2 97.844 104.391 97.69 104.622C97.536 104.854 97.4408 105.12 97.4128 105.397C97.3848 105.673 97.4248 105.953 97.5292 106.211C97.6337 106.469 97.7995 106.697 98.0123 106.876C98.2251 107.055 98.4784 107.18 98.7503 107.239C99.0221 107.298 99.3043 107.29 99.5723 107.215C99.8403 107.141 100.086 107.002 100.288 106.811ZM97.8735 105.048C97.9644 104.853 98.1009 104.684 98.2713 104.553C98.4418 104.423 98.6412 104.335 98.8526 104.299C99.064 104.262 99.2812 104.276 99.4858 104.341C99.6903 104.406 99.8762 104.52 100.027 104.672C100.148 104.793 100.244 104.936 100.307 105.095C100.371 105.254 100.401 105.423 100.397 105.594C100.392 105.765 100.353 105.933 100.282 106.088C100.211 106.243 100.108 106.382 99.9815 106.496C99.7313 106.725 99.4046 106.852 99.0655 106.852C98.7264 106.852 98.3996 106.725 98.1494 106.496C97.9651 106.316 97.84 106.084 97.7907 105.83C97.7414 105.577 97.7703 105.315 97.8735 105.078V105.048ZM103.423 105.554C103.736 105.697 104.086 105.741 104.424 105.679C104.763 105.618 105.075 105.453 105.317 105.209C105.626 104.881 105.799 104.448 105.799 103.997C105.799 103.547 105.626 103.114 105.317 102.786C105.161 102.623 104.975 102.494 104.768 102.405C104.561 102.317 104.338 102.271 104.113 102.271C103.888 102.271 103.666 102.317 103.459 102.405C103.252 102.494 103.065 102.623 102.91 102.786C102.721 102.986 102.582 103.227 102.504 103.49C102.426 103.753 102.412 104.031 102.462 104.301C102.512 104.571 102.625 104.825 102.792 105.042C102.959 105.26 103.176 105.435 103.423 105.554ZM102.902 103.446C102.993 103.251 103.129 103.081 103.3 102.951C103.47 102.821 103.67 102.733 103.881 102.696C104.093 102.66 104.31 102.674 104.514 102.739C104.719 102.804 104.905 102.918 105.056 103.07C105.177 103.19 105.272 103.334 105.336 103.493C105.399 103.651 105.43 103.821 105.425 103.992C105.421 104.163 105.382 104.331 105.311 104.486C105.239 104.641 105.137 104.78 105.01 104.894C104.761 105.123 104.436 105.249 104.098 105.249C103.76 105.249 103.435 105.123 103.186 104.894C102.991 104.714 102.858 104.477 102.807 104.216C102.756 103.956 102.789 103.686 102.902 103.446ZM110.384 103.599C110.623 103.359 110.786 103.055 110.854 102.724C110.921 102.392 110.89 102.048 110.763 101.734C110.636 101.42 110.42 101.151 110.141 100.959C109.863 100.767 109.534 100.662 109.195 100.655C108.916 100.656 108.641 100.725 108.395 100.857C108.148 100.989 107.938 101.179 107.782 101.411C107.626 101.643 107.53 101.909 107.501 102.187C107.472 102.465 107.511 102.745 107.616 103.005C107.72 103.264 107.887 103.493 108.1 103.673C108.314 103.853 108.569 103.977 108.842 104.036C109.115 104.095 109.398 104.085 109.667 104.009C109.936 103.933 110.182 103.792 110.384 103.599ZM107.969 101.843C108.06 101.649 108.196 101.479 108.367 101.349C108.537 101.219 108.737 101.131 108.948 101.094C109.16 101.058 109.377 101.072 109.581 101.137C109.786 101.202 109.972 101.316 110.123 101.468C110.244 101.588 110.339 101.731 110.402 101.889C110.465 102.047 110.496 102.216 110.492 102.386C110.487 102.556 110.448 102.724 110.377 102.878C110.306 103.033 110.204 103.171 110.077 103.285C109.829 103.515 109.503 103.642 109.165 103.642C108.826 103.642 108.501 103.515 108.253 103.285C108.054 103.109 107.916 102.875 107.858 102.616C107.8 102.357 107.825 102.087 107.931 101.843H107.969ZM113.45 102.349C113.763 102.492 114.113 102.535 114.452 102.472C114.791 102.408 115.102 102.243 115.343 101.997C115.656 101.672 115.83 101.24 115.83 100.789C115.83 100.339 115.656 99.9064 115.343 99.5821C115.19 99.4178 115.005 99.2861 114.8 99.1948C114.594 99.1036 114.373 99.0547 114.148 99.0511C113.923 99.0476 113.7 99.0893 113.492 99.174C113.284 99.2586 113.095 99.3844 112.936 99.5438C112.741 99.7437 112.597 99.9874 112.515 100.255C112.434 100.522 112.417 100.805 112.468 101.079C112.518 101.354 112.633 101.613 112.804 101.834C112.975 102.055 113.196 102.232 113.45 102.349ZM112.936 100.234C113.027 100.041 113.164 99.8724 113.334 99.743C113.503 99.6135 113.702 99.5268 113.912 99.49C114.122 99.4532 114.338 99.4674 114.542 99.5314C114.746 99.5955 114.931 99.7075 115.083 99.8581C115.24 100.029 115.349 100.24 115.397 100.467C115.446 100.695 115.432 100.931 115.357 101.152C115.283 101.372 115.15 101.568 114.973 101.72C114.797 101.871 114.583 101.972 114.353 102.012C114.124 102.052 113.889 102.03 113.671 101.948C113.453 101.865 113.262 101.726 113.117 101.544C112.972 101.362 112.879 101.144 112.847 100.913C112.815 100.683 112.846 100.448 112.936 100.234Z" fill="black"/>
</svg>
