<svg width="1486" height="434" viewBox="0 0 1486 434" fill="none" xmlns="http://www.w3.org/2000/svg">
<line x1="-6" y1="433" x2="1491" y2="433" stroke="white" stroke-opacity="0.2"/>
<line x1="63.6959" y1="433.603" x2="628.696" y2="0.603124" stroke="white" stroke-opacity="0.2"/>
<line x1="428.621" y1="433.674" x2="801.621" y2="0.673675" stroke="white" stroke-opacity="0.2"/>
<line x1="792.541" y1="433.802" x2="979.541" y2="0.801732" stroke="white" stroke-opacity="0.2"/>
<line x1="1158.5" y1="434.001" x2="1157.5" y2="1.00113" stroke="white" stroke-opacity="0.2"/>
<line x1="1490.54" y1="366.194" x2="1336.54" y2="1.19435" stroke="white" stroke-opacity="0.2"/>
<line x1="-6.25625" y1="265.571" x2="437.744" y2="0.570654" stroke="white" stroke-opacity="0.2"/>
<line x1="-6.21877" y1="127.55" x2="254.781" y2="0.550398" stroke="white" stroke-opacity="0.2"/>
<line x1="-6.18096" y1="33.5339" x2="78.819" y2="0.533895" stroke="white" stroke-opacity="0.2"/>
<line x1="-6" y1="329.5" x2="1491" y2="329.5" stroke="white" stroke-opacity="0.2"/>
<line x1="-6" y1="257.5" x2="1491" y2="257.5" stroke="white" stroke-opacity="0.2"/>
<line x1="-6" y1="199.5" x2="1491" y2="199.5" stroke="white" stroke-opacity="0.2"/>
<line x1="-6" y1="144.5" x2="1491" y2="144.5" stroke="white" stroke-opacity="0.2"/>
<line x1="-6" y1="103.5" x2="1491" y2="103.5" stroke="white" stroke-opacity="0.2"/>
<line x1="-6" y1="60.5" x2="1491" y2="60.5" stroke="white" stroke-opacity="0.2"/>
<line x1="-6" y1="29.5" x2="1491" y2="29.5" stroke="white" stroke-opacity="0.08"/>
<line x1="-6" y1="0.5" x2="1491" y2="0.5" stroke="white" stroke-opacity="0.08"/>
</svg>
