<svg xmlns="http://www.w3.org/2000/svg" version="1.1" xmlns:xlink="http://www.w3.org/1999/xlink" xmlns:svgjs="http://svgjs.com/svgjs" width="1440" height="560" preserveAspectRatio="none" viewBox="0 0 1440 560"><g mask="url(&quot;#SvgjsMask1008&quot;)" fill="none"><rect width="1440" height="560" x="0" y="0" fill="#0e2a47"></rect><path d="M-104.17 368.24L-104.17 368.24" stroke="#132e65" stroke-width="1.5"></path><path d="M-104.17 368.24L70.04 387.74" stroke="#132e65" stroke-width="1.5"></path><path d="M-104.17 368.24L56.06 538.08" stroke="#132e65" stroke-width="1.5"></path><path d="M-104.17 368.24L-80.57 649.48" stroke="#132e65" stroke-width="1.5"></path><path d="M-80.57 649.48L-80.57 649.48" stroke="#132e65" stroke-width="1.5"></path><path d="M-80.57 649.48L56.06 538.08" stroke="#132e65" stroke-width="1.5"></path><path d="M-80.57 649.48L102.01 643.25" stroke="#132e65" stroke-width="1.5"></path><path d="M-80.57 649.48L70.04 387.74" stroke="#132e65" stroke-width="1.5"></path><path d="M-80.57 649.48L248.24 696.15" stroke="#132e65" stroke-width="1.5"></path><path d="M-80.57 649.48L218.3 374.83" stroke="#132e65" stroke-width="1.5"></path><path d="M70.04 387.74L70.04 387.74" stroke="#132e65" stroke-width="1.5"></path><path d="M70.04 387.74L218.3 374.83" stroke="#132e65" stroke-width="1.5"></path><path d="M70.04 387.74L56.06 538.08" stroke="#132e65" stroke-width="1.5"></path><path d="M70.04 387.74L102.01 643.25" stroke="#132e65" stroke-width="1.5"></path><path d="M70.04 387.74L349.21 364.92" stroke="#132e65" stroke-width="1.5"></path><path d="M56.06 538.08L56.06 538.08" stroke="#132e65" stroke-width="1.5"></path><path d="M56.06 538.08L102.01 643.25" stroke="#132e65" stroke-width="1.5"></path><path d="M56.06 538.08L218.3 374.83" stroke="#132e65" stroke-width="1.5"></path><path d="M56.06 538.08L248.24 696.15" stroke="#132e65" stroke-width="1.5"></path><path d="M102.01 643.25L102.01 643.25" stroke="#132e65" stroke-width="1.5"></path><path d="M102.01 643.25L248.24 696.15" stroke="#132e65" stroke-width="1.5"></path><path d="M218.3 374.83L218.3 374.83" stroke="#132e65" stroke-width="1.5"></path><path d="M218.3 374.83L349.21 364.92" stroke="#132e65" stroke-width="1.5"></path><path d="M248.24 696.15L248.24 696.15" stroke="#132e65" stroke-width="1.5"></path><path d="M248.24 696.15L365.39 678.57" stroke="#132e65" stroke-width="1.5"></path><path d="M349.21 364.92L349.21 364.92" stroke="#132e65" stroke-width="1.5"></path><path d="M349.21 364.92L487.62 350.7" stroke="#132e65" stroke-width="1.5"></path><path d="M349.21 364.92L546.67 516.01" stroke="#132e65" stroke-width="1.5"></path><path d="M349.21 364.92L365.39 678.57" stroke="#132e65" stroke-width="1.5"></path><path d="M365.39 678.57L365.39 678.57" stroke="#132e65" stroke-width="1.5"></path><path d="M365.39 678.57L551.6 652.51" stroke="#132e65" stroke-width="1.5"></path><path d="M487.62 350.7L487.62 350.7" stroke="#132e65" stroke-width="1.5"></path><path d="M487.62 350.7L546.67 516.01" stroke="#132e65" stroke-width="1.5"></path><path d="M487.62 350.7L664.03 379.53" stroke="#132e65" stroke-width="1.5"></path><path d="M487.62 350.7L650.67 516.63" stroke="#132e65" stroke-width="1.5"></path><path d="M546.67 516.01L546.67 516.01" stroke="#132e65" stroke-width="1.5"></path><path d="M546.67 516.01L650.67 516.63" stroke="#132e65" stroke-width="1.5"></path><path d="M546.67 516.01L551.6 652.51" stroke="#132e65" stroke-width="1.5"></path><path d="M546.67 516.01L664.03 379.53" stroke="#132e65" stroke-width="1.5"></path><path d="M546.67 516.01L647.48 704.98" stroke="#132e65" stroke-width="1.5"></path><path d="M551.6 652.51L551.6 652.51" stroke="#132e65" stroke-width="1.5"></path><path d="M551.6 652.51L647.48 704.98" stroke="#132e65" stroke-width="1.5"></path><path d="M551.6 652.51L650.67 516.63" stroke="#132e65" stroke-width="1.5"></path><path d="M664.03 379.53L664.03 379.53" stroke="#132e65" stroke-width="1.5"></path><path d="M664.03 379.53L650.67 516.63" stroke="#132e65" stroke-width="1.5"></path><path d="M664.03 379.53L822.97 341.93" stroke="#132e65" stroke-width="1.5"></path><path d="M650.67 516.63L650.67 516.63" stroke="#132e65" stroke-width="1.5"></path><path d="M650.67 516.63L801.33 554.49" stroke="#132e65" stroke-width="1.5"></path><path d="M647.48 704.98L647.48 704.98" stroke="#132e65" stroke-width="1.5"></path><path d="M647.48 704.98L813.79 678.16" stroke="#132e65" stroke-width="1.5"></path><path d="M859.25 41.33L859.25 41.33" stroke="#132e65" stroke-width="1.5"></path><path d="M859.25 41.33L966.7 90.29" stroke="#132e65" stroke-width="1.5"></path><path d="M859.25 41.33L809.53 194.71" stroke="#132e65" stroke-width="1.5"></path><path d="M809.53 194.71L809.53 194.71" stroke="#132e65" stroke-width="1.5"></path><path d="M809.53 194.71L822.97 341.93" stroke="#132e65" stroke-width="1.5"></path><path d="M809.53 194.71L966.7 90.29" stroke="#132e65" stroke-width="1.5"></path><path d="M809.53 194.71L999.38 189.37" stroke="#132e65" stroke-width="1.5"></path><path d="M822.97 341.93L822.97 341.93" stroke="#132e65" stroke-width="1.5"></path><path d="M822.97 341.93L999.21 349.29" stroke="#132e65" stroke-width="1.5"></path><path d="M822.97 341.93L801.33 554.49" stroke="#132e65" stroke-width="1.5"></path><path d="M801.33 554.49L801.33 554.49" stroke="#132e65" stroke-width="1.5"></path><path d="M801.33 554.49L813.79 678.16" stroke="#132e65" stroke-width="1.5"></path><path d="M801.33 554.49L647.48 704.98" stroke="#132e65" stroke-width="1.5"></path><path d="M801.33 554.49L664.03 379.53" stroke="#132e65" stroke-width="1.5"></path><path d="M801.33 554.49L1008.07 678.17" stroke="#132e65" stroke-width="1.5"></path><path d="M813.79 678.16L813.79 678.16" stroke="#132e65" stroke-width="1.5"></path><path d="M813.79 678.16L1008.07 678.17" stroke="#132e65" stroke-width="1.5"></path><path d="M990.07 -79.66L990.07 -79.66" stroke="#132e65" stroke-width="1.5"></path><path d="M990.07 -79.66L1097.02 -53.2" stroke="#132e65" stroke-width="1.5"></path><path d="M990.07 -79.66L966.7 90.29" stroke="#132e65" stroke-width="1.5"></path><path d="M990.07 -79.66L1105.38 49.6" stroke="#132e65" stroke-width="1.5"></path><path d="M966.7 90.29L966.7 90.29" stroke="#132e65" stroke-width="1.5"></path><path d="M966.7 90.29L999.38 189.37" stroke="#132e65" stroke-width="1.5"></path><path d="M966.7 90.29L1105.38 49.6" stroke="#132e65" stroke-width="1.5"></path><path d="M999.38 189.37L999.38 189.37" stroke="#132e65" stroke-width="1.5"></path><path d="M999.38 189.37L1096.12 262.25" stroke="#132e65" stroke-width="1.5"></path><path d="M999.38 189.37L999.21 349.29" stroke="#132e65" stroke-width="1.5"></path><path d="M999.38 189.37L1105.38 49.6" stroke="#132e65" stroke-width="1.5"></path><path d="M999.21 349.29L999.21 349.29" stroke="#132e65" stroke-width="1.5"></path><path d="M999.21 349.29L1109.88 367.51" stroke="#132e65" stroke-width="1.5"></path><path d="M999.21 349.29L1096.12 262.25" stroke="#132e65" stroke-width="1.5"></path><path d="M1008.07 678.17L1008.07 678.17" stroke="#132e65" stroke-width="1.5"></path><path d="M1008.07 678.17L1133 703.96" stroke="#132e65" stroke-width="1.5"></path><path d="M1008.07 678.17L1161.98 504.1" stroke="#132e65" stroke-width="1.5"></path><path d="M1097.02 -53.2L1097.02 -53.2" stroke="#132e65" stroke-width="1.5"></path><path d="M1097.02 -53.2L1105.38 49.6" stroke="#132e65" stroke-width="1.5"></path><path d="M1097.02 -53.2L1249.06 -102.44" stroke="#132e65" stroke-width="1.5"></path><path d="M1097.02 -53.2L966.7 90.29" stroke="#132e65" stroke-width="1.5"></path><path d="M1097.02 -53.2L1266.62 92.14" stroke="#132e65" stroke-width="1.5"></path><path d="M1097.02 -53.2L859.25 41.33" stroke="#132e65" stroke-width="1.5"></path><path d="M1105.38 49.6L1105.38 49.6" stroke="#132e65" stroke-width="1.5"></path><path d="M1105.38 49.6L1266.62 92.14" stroke="#132e65" stroke-width="1.5"></path><path d="M1096.12 262.25L1096.12 262.25" stroke="#132e65" stroke-width="1.5"></path><path d="M1096.12 262.25L1109.88 367.51" stroke="#132e65" stroke-width="1.5"></path><path d="M1109.88 367.51L1109.88 367.51" stroke="#132e65" stroke-width="1.5"></path><path d="M1161.98 504.1L1161.98 504.1" stroke="#132e65" stroke-width="1.5"></path><path d="M1161.98 504.1L1253.9 530.86" stroke="#132e65" stroke-width="1.5"></path><path d="M1161.98 504.1L1109.88 367.51" stroke="#132e65" stroke-width="1.5"></path><path d="M1161.98 504.1L1276.26 371.68" stroke="#132e65" stroke-width="1.5"></path><path d="M1161.98 504.1L1133 703.96" stroke="#132e65" stroke-width="1.5"></path><path d="M1133 703.96L1133 703.96" stroke="#132e65" stroke-width="1.5"></path><path d="M1133 703.96L1279.43 710.54" stroke="#132e65" stroke-width="1.5"></path><path d="M1249.06 -102.44L1249.06 -102.44" stroke="#132e65" stroke-width="1.5"></path><path d="M1249.06 -102.44L1266.62 92.14" stroke="#132e65" stroke-width="1.5"></path><path d="M1249.06 -102.44L1453.86 -81.81" stroke="#132e65" stroke-width="1.5"></path><path d="M1249.06 -102.44L1105.38 49.6" stroke="#132e65" stroke-width="1.5"></path><path d="M1249.06 -102.44L990.07 -79.66" stroke="#132e65" stroke-width="1.5"></path><path d="M1249.06 -102.44L1457.3 59.32" stroke="#132e65" stroke-width="1.5"></path><path d="M1266.62 92.14L1266.62 92.14" stroke="#132e65" stroke-width="1.5"></path><path d="M1266.62 92.14L1306.98 188.24" stroke="#132e65" stroke-width="1.5"></path><path d="M1266.62 92.14L1457.3 59.32" stroke="#132e65" stroke-width="1.5"></path><path d="M1266.62 92.14L1411.35 238.33" stroke="#132e65" stroke-width="1.5"></path><path d="M1306.98 188.24L1306.98 188.24" stroke="#132e65" stroke-width="1.5"></path><path d="M1306.98 188.24L1411.35 238.33" stroke="#132e65" stroke-width="1.5"></path><path d="M1306.98 188.24L1276.26 371.68" stroke="#132e65" stroke-width="1.5"></path><path d="M1306.98 188.24L1457.3 59.32" stroke="#132e65" stroke-width="1.5"></path><path d="M1306.98 188.24L1096.12 262.25" stroke="#132e65" stroke-width="1.5"></path><path d="M1306.98 188.24L1459.94 359.34" stroke="#132e65" stroke-width="1.5"></path><path d="M1276.26 371.68L1276.26 371.68" stroke="#132e65" stroke-width="1.5"></path><path d="M1276.26 371.68L1253.9 530.86" stroke="#132e65" stroke-width="1.5"></path><path d="M1276.26 371.68L1109.88 367.51" stroke="#132e65" stroke-width="1.5"></path><path d="M1253.9 530.86L1253.9 530.86" stroke="#132e65" stroke-width="1.5"></path><path d="M1253.9 530.86L1409.39 507.31" stroke="#132e65" stroke-width="1.5"></path><path d="M1253.9 530.86L1279.43 710.54" stroke="#132e65" stroke-width="1.5"></path><path d="M1253.9 530.86L1409.23 671.82" stroke="#132e65" stroke-width="1.5"></path><path d="M1253.9 530.86L1133 703.96" stroke="#132e65" stroke-width="1.5"></path><path d="M1279.43 710.54L1279.43 710.54" stroke="#132e65" stroke-width="1.5"></path><path d="M1279.43 710.54L1409.23 671.82" stroke="#132e65" stroke-width="1.5"></path><path d="M1279.43 710.54L1161.98 504.1" stroke="#132e65" stroke-width="1.5"></path><path d="M1279.43 710.54L1409.39 507.31" stroke="#132e65" stroke-width="1.5"></path><path d="M1279.43 710.54L1545.12 651.07" stroke="#132e65" stroke-width="1.5"></path><path d="M1453.86 -81.81L1453.86 -81.81" stroke="#132e65" stroke-width="1.5"></path><path d="M1453.86 -81.81L1564.54 -93.32" stroke="#132e65" stroke-width="1.5"></path><path d="M1453.86 -81.81L1457.3 59.32" stroke="#132e65" stroke-width="1.5"></path><path d="M1453.86 -81.81L1565.22 56.12" stroke="#132e65" stroke-width="1.5"></path><path d="M1453.86 -81.81L1266.62 92.14" stroke="#132e65" stroke-width="1.5"></path><path d="M1457.3 59.32L1457.3 59.32" stroke="#132e65" stroke-width="1.5"></path><path d="M1457.3 59.32L1565.22 56.12" stroke="#132e65" stroke-width="1.5"></path><path d="M1411.35 238.33L1411.35 238.33" stroke="#132e65" stroke-width="1.5"></path><path d="M1411.35 238.33L1459.94 359.34" stroke="#132e65" stroke-width="1.5"></path><path d="M1459.94 359.34L1459.94 359.34" stroke="#132e65" stroke-width="1.5"></path><path d="M1459.94 359.34L1603.22 400.34" stroke="#132e65" stroke-width="1.5"></path><path d="M1459.94 359.34L1409.39 507.31" stroke="#132e65" stroke-width="1.5"></path><path d="M1409.39 507.31L1409.39 507.31" stroke="#132e65" stroke-width="1.5"></path><path d="M1409.23 671.82L1409.23 671.82" stroke="#132e65" stroke-width="1.5"></path><path d="M1564.54 -93.32L1564.54 -93.32" stroke="#132e65" stroke-width="1.5"></path><path d="M1564.54 -93.32L1565.22 56.12" stroke="#132e65" stroke-width="1.5"></path><path d="M1564.54 -93.32L1457.3 59.32" stroke="#132e65" stroke-width="1.5"></path><path d="M1564.54 -93.32L1249.06 -102.44" stroke="#132e65" stroke-width="1.5"></path><path d="M1564.54 -93.32L1611.18 236.36" stroke="#132e65" stroke-width="1.5"></path><path d="M1565.22 56.12L1565.22 56.12" stroke="#132e65" stroke-width="1.5"></path><path d="M1611.18 236.36L1611.18 236.36" stroke="#132e65" stroke-width="1.5"></path><path d="M1611.18 236.36L1603.22 400.34" stroke="#132e65" stroke-width="1.5"></path><path d="M1611.18 236.36L1565.22 56.12" stroke="#132e65" stroke-width="1.5"></path><path d="M1611.18 236.36L1459.94 359.34" stroke="#132e65" stroke-width="1.5"></path><path d="M1611.18 236.36L1411.35 238.33" stroke="#132e65" stroke-width="1.5"></path><path d="M1611.18 236.36L1457.3 59.32" stroke="#132e65" stroke-width="1.5"></path><path d="M1611.18 236.36L1306.98 188.24" stroke="#132e65" stroke-width="1.5"></path><path d="M1603.22 400.34L1603.22 400.34" stroke="#132e65" stroke-width="1.5"></path><path d="M1603.22 400.34L1609.5 551.85" stroke="#132e65" stroke-width="1.5"></path><path d="M1609.5 551.85L1609.5 551.85" stroke="#132e65" stroke-width="1.5"></path><path d="M1609.5 551.85L1545.12 651.07" stroke="#132e65" stroke-width="1.5"></path><path d="M1545.12 651.07L1545.12 651.07" stroke="#132e65" stroke-width="1.5"></path><path d="M1545.12 651.07L1409.23 671.82" stroke="#132e65" stroke-width="1.5"></path><circle r="5" cx="-104.17" cy="368.24" fill="#132e65"></circle><circle r="5" cx="-80.57" cy="649.48" fill="#132e65"></circle><circle r="5" cx="70.04" cy="387.74" fill="#132e65"></circle><circle r="5" cx="56.06" cy="538.08" fill="#132e65"></circle><circle r="5" cx="102.01" cy="643.25" fill="#132e65"></circle><circle r="5" cx="218.3" cy="374.83" fill="#132e65"></circle><circle r="5" cx="248.24" cy="696.15" fill="#132e65"></circle><circle r="5" cx="349.21" cy="364.92" fill="#132e65"></circle><circle r="5" cx="365.39" cy="678.57" fill="#132e65"></circle><circle r="5" cx="487.62" cy="350.7" fill="#132e65"></circle><circle r="5" cx="546.67" cy="516.01" fill="#132e65"></circle><circle r="5" cx="551.6" cy="652.51" fill="#132e65"></circle><circle r="5" cx="664.03" cy="379.53" fill="#132e65"></circle><circle r="5" cx="650.67" cy="516.63" fill="#132e65"></circle><circle r="5" cx="647.48" cy="704.98" fill="#132e65"></circle><circle r="5" cx="859.25" cy="41.33" fill="#132e65"></circle><circle r="5" cx="809.53" cy="194.71" fill="#132e65"></circle><circle r="5" cx="822.97" cy="341.93" fill="#132e65"></circle><circle r="5" cx="801.33" cy="554.49" fill="#132e65"></circle><circle r="5" cx="813.79" cy="678.16" fill="#132e65"></circle><circle r="5" cx="990.07" cy="-79.66" fill="#132e65"></circle><circle r="5" cx="966.7" cy="90.29" fill="#132e65"></circle><circle r="5" cx="999.38" cy="189.37" fill="#132e65"></circle><circle r="5" cx="999.21" cy="349.29" fill="#132e65"></circle><circle r="5" cx="1008.07" cy="678.17" fill="#132e65"></circle><circle r="5" cx="1097.02" cy="-53.2" fill="#132e65"></circle><circle r="5" cx="1105.38" cy="49.6" fill="#132e65"></circle><circle r="5" cx="1096.12" cy="262.25" fill="#132e65"></circle><circle r="5" cx="1109.88" cy="367.51" fill="#132e65"></circle><circle r="5" cx="1161.98" cy="504.1" fill="#132e65"></circle><circle r="5" cx="1133" cy="703.96" fill="#132e65"></circle><circle r="5" cx="1249.06" cy="-102.44" fill="#132e65"></circle><circle r="5" cx="1266.62" cy="92.14" fill="#132e65"></circle><circle r="5" cx="1306.98" cy="188.24" fill="#132e65"></circle><circle r="5" cx="1276.26" cy="371.68" fill="#132e65"></circle><circle r="5" cx="1253.9" cy="530.86" fill="#132e65"></circle><circle r="5" cx="1279.43" cy="710.54" fill="#132e65"></circle><circle r="5" cx="1453.86" cy="-81.81" fill="#132e65"></circle><circle r="5" cx="1457.3" cy="59.32" fill="#132e65"></circle><circle r="5" cx="1411.35" cy="238.33" fill="#132e65"></circle><circle r="5" cx="1459.94" cy="359.34" fill="#132e65"></circle><circle r="5" cx="1409.39" cy="507.31" fill="#132e65"></circle><circle r="5" cx="1409.23" cy="671.82" fill="#132e65"></circle><circle r="5" cx="1564.54" cy="-93.32" fill="#132e65"></circle><circle r="5" cx="1565.22" cy="56.12" fill="#132e65"></circle><circle r="5" cx="1611.18" cy="236.36" fill="#132e65"></circle><circle r="5" cx="1603.22" cy="400.34" fill="#132e65"></circle><circle r="5" cx="1609.5" cy="551.85" fill="#132e65"></circle><circle r="5" cx="1545.12" cy="651.07" fill="#132e65"></circle><path d="M405.98 651.78L405.98 651.78" stroke="hsl(228.5, 77.2%, 51.5%)" stroke-width="1.5"></path><path d="M405.98 651.78L527.39 640.73" stroke="hsl(228.5, 77.2%, 51.5%)" stroke-width="1.5"></path><path d="M405.98 651.78L388.29 503.81" stroke="hsl(228.5, 77.2%, 51.5%)" stroke-width="1.5"></path><path d="M405.98 651.78L539.78 517.04" stroke="hsl(228.5, 77.2%, 51.5%)" stroke-width="1.5"></path><path d="M405.98 651.78L199 703.33" stroke="hsl(228.5, 77.2%, 51.5%)" stroke-width="1.5"></path><path d="M539.78 517.04L539.78 517.04" stroke="hsl(228.5, 77.2%, 51.5%)" stroke-width="1.5"></path><path d="M539.78 517.04L646.57 520.47" stroke="hsl(228.5, 77.2%, 51.5%)" stroke-width="1.5"></path><path d="M539.78 517.04L504.74 408.99" stroke="hsl(228.5, 77.2%, 51.5%)" stroke-width="1.5"></path><path d="M539.78 517.04L527.39 640.73" stroke="hsl(228.5, 77.2%, 51.5%)" stroke-width="1.5"></path><path d="M539.78 517.04L388.29 503.81" stroke="hsl(228.5, 77.2%, 51.5%)" stroke-width="1.5"></path><path d="M859.22 709.74L859.22 709.74" stroke="hsl(228.5, 77.2%, 51.5%)" stroke-width="1.5"></path><path d="M859.22 709.74L712 657.93" stroke="hsl(228.5, 77.2%, 51.5%)" stroke-width="1.5"></path><path d="M859.22 709.74L841.97 507.98" stroke="hsl(228.5, 77.2%, 51.5%)" stroke-width="1.5"></path><path d="M859.22 709.74L945.94 523.63" stroke="hsl(228.5, 77.2%, 51.5%)" stroke-width="1.5"></path><path d="M859.22 709.74L1128.9 700.8" stroke="hsl(228.5, 77.2%, 51.5%)" stroke-width="1.5"></path><path d="M859.22 709.74L646.57 520.47" stroke="hsl(228.5, 77.2%, 51.5%)" stroke-width="1.5"></path><path d="M859.22 709.74L1101.07 532.52" stroke="hsl(228.5, 77.2%, 51.5%)" stroke-width="1.5"></path><path d="M1003.63 232.42L1003.63 232.42" stroke="hsl(228.5, 77.2%, 51.5%)" stroke-width="1.5"></path><path d="M1003.63 232.42L1110.16 224.24" stroke="hsl(228.5, 77.2%, 51.5%)" stroke-width="1.5"></path><path d="M1003.63 232.42L972.33 408.97" stroke="hsl(228.5, 77.2%, 51.5%)" stroke-width="1.5"></path><path d="M1003.63 232.42L1129.23 379.34" stroke="hsl(228.5, 77.2%, 51.5%)" stroke-width="1.5"></path><path d="M1003.63 232.42L1145.61 90.83" stroke="hsl(228.5, 77.2%, 51.5%)" stroke-width="1.5"></path><path d="M1003.63 232.42L819.44 408.14" stroke="hsl(228.5, 77.2%, 51.5%)" stroke-width="1.5"></path><path d="M1003.63 232.42L945.94 523.63" stroke="hsl(228.5, 77.2%, 51.5%)" stroke-width="1.5"></path><path d="M1101.07 532.52L1101.07 532.52" stroke="hsl(228.5, 77.2%, 51.5%)" stroke-width="1.5"></path><path d="M1101.07 532.52L945.94 523.63" stroke="hsl(228.5, 77.2%, 51.5%)" stroke-width="1.5"></path><path d="M1101.07 532.52L1129.23 379.34" stroke="hsl(228.5, 77.2%, 51.5%)" stroke-width="1.5"></path><path d="M1101.07 532.52L1128.9 700.8" stroke="hsl(228.5, 77.2%, 51.5%)" stroke-width="1.5"></path><path d="M1293 84.14L1293 84.14" stroke="hsl(228.5, 77.2%, 51.5%)" stroke-width="1.5"></path><path d="M1293 84.14L1421.91 81.63" stroke="hsl(228.5, 77.2%, 51.5%)" stroke-width="1.5"></path><path d="M1293 84.14L1295.77 -54.42" stroke="hsl(228.5, 77.2%, 51.5%)" stroke-width="1.5"></path><path d="M1293 84.14L1145.61 90.83" stroke="hsl(228.5, 77.2%, 51.5%)" stroke-width="1.5"></path><path d="M1293 84.14L1405.59 -82.86" stroke="hsl(228.5, 77.2%, 51.5%)" stroke-width="1.5"></path><path d="M1405.59 -82.86L1405.59 -82.86" stroke="hsl(228.5, 77.2%, 51.5%)" stroke-width="1.5"></path><path d="M1405.59 -82.86L1295.77 -54.42" stroke="hsl(228.5, 77.2%, 51.5%)" stroke-width="1.5"></path><path d="M1405.59 -82.86L1421.91 81.63" stroke="hsl(228.5, 77.2%, 51.5%)" stroke-width="1.5"></path><path d="M1405.59 -82.86L1593.41 -93.35" stroke="hsl(228.5, 77.2%, 51.5%)" stroke-width="1.5"></path><path d="M1593.41 -93.35L1593.41 -93.35" stroke="hsl(228.5, 77.2%, 51.5%)" stroke-width="1.5"></path><path d="M1593.41 -93.35L1579.12 94.29" stroke="hsl(228.5, 77.2%, 51.5%)" stroke-width="1.5"></path><path d="M1593.41 -93.35L1421.91 81.63" stroke="hsl(228.5, 77.2%, 51.5%)" stroke-width="1.5"></path><path d="M1593.41 -93.35L1597.79 206.08" stroke="hsl(228.5, 77.2%, 51.5%)" stroke-width="1.5"></path><path d="M1579.12 94.29L1579.12 94.29" stroke="hsl(228.5, 77.2%, 51.5%)" stroke-width="1.5"></path><path d="M1579.12 94.29L1597.79 206.08" stroke="hsl(228.5, 77.2%, 51.5%)" stroke-width="1.5"></path><path d="M1579.12 94.29L1421.91 81.63" stroke="hsl(228.5, 77.2%, 51.5%)" stroke-width="1.5"></path><path d="M1579.12 94.29L1458.91 236.91" stroke="hsl(228.5, 77.2%, 51.5%)" stroke-width="1.5"></path><path d="M1579.12 94.29L1405.59 -82.86" stroke="hsl(228.5, 77.2%, 51.5%)" stroke-width="1.5"></path><path d="M1579.12 94.29L1293 84.14" stroke="hsl(228.5, 77.2%, 51.5%)" stroke-width="1.5"></path><path d="M-110.62 527.27L-110.62 527.27" stroke="hsl(228.5, 77.2%, 51.5%)" stroke-width="1.5"></path><path d="M-110.62 527.27L76.28 521.54" stroke="hsl(228.5, 77.2%, 51.5%)" stroke-width="1.5"></path><path d="M-110.62 527.27L199 703.33" stroke="hsl(228.5, 77.2%, 51.5%)" stroke-width="1.5"></path><path d="M-110.62 527.27L388.29 503.81" stroke="hsl(228.5, 77.2%, 51.5%)" stroke-width="1.5"></path><path d="M-110.62 527.27L405.98 651.78" stroke="hsl(228.5, 77.2%, 51.5%)" stroke-width="1.5"></path><path d="M76.28 521.54L76.28 521.54" stroke="hsl(228.5, 77.2%, 51.5%)" stroke-width="1.5"></path><path d="M76.28 521.54L199 703.33" stroke="hsl(228.5, 77.2%, 51.5%)" stroke-width="1.5"></path><path d="M76.28 521.54L388.29 503.81" stroke="hsl(228.5, 77.2%, 51.5%)" stroke-width="1.5"></path><path d="M76.28 521.54L405.98 651.78" stroke="hsl(228.5, 77.2%, 51.5%)" stroke-width="1.5"></path><path d="M76.28 521.54L504.74 408.99" stroke="hsl(228.5, 77.2%, 51.5%)" stroke-width="1.5"></path><path d="M199 703.33L199 703.33" stroke="hsl(228.5, 77.2%, 51.5%)" stroke-width="1.5"></path><path d="M199 703.33L388.29 503.81" stroke="hsl(228.5, 77.2%, 51.5%)" stroke-width="1.5"></path><path d="M199 703.33L527.39 640.73" stroke="hsl(228.5, 77.2%, 51.5%)" stroke-width="1.5"></path><path d="M388.29 503.81L388.29 503.81" stroke="hsl(228.5, 77.2%, 51.5%)" stroke-width="1.5"></path><path d="M388.29 503.81L504.74 408.99" stroke="hsl(228.5, 77.2%, 51.5%)" stroke-width="1.5"></path><path d="M504.74 408.99L504.74 408.99" stroke="hsl(228.5, 77.2%, 51.5%)" stroke-width="1.5"></path><path d="M527.39 640.73L527.39 640.73" stroke="hsl(228.5, 77.2%, 51.5%)" stroke-width="1.5"></path><path d="M527.39 640.73L646.57 520.47" stroke="hsl(228.5, 77.2%, 51.5%)" stroke-width="1.5"></path><path d="M527.39 640.73L712 657.93" stroke="hsl(228.5, 77.2%, 51.5%)" stroke-width="1.5"></path><path d="M646.57 520.47L646.57 520.47" stroke="hsl(228.5, 77.2%, 51.5%)" stroke-width="1.5"></path><path d="M646.57 520.47L712 657.93" stroke="hsl(228.5, 77.2%, 51.5%)" stroke-width="1.5"></path><path d="M712 657.93L712 657.93" stroke="hsl(228.5, 77.2%, 51.5%)" stroke-width="1.5"></path><path d="M712 657.93L841.97 507.98" stroke="hsl(228.5, 77.2%, 51.5%)" stroke-width="1.5"></path><path d="M712 657.93L539.78 517.04" stroke="hsl(228.5, 77.2%, 51.5%)" stroke-width="1.5"></path><path d="M819.44 408.14L819.44 408.14" stroke="hsl(228.5, 77.2%, 51.5%)" stroke-width="1.5"></path><path d="M819.44 408.14L841.97 507.98" stroke="hsl(228.5, 77.2%, 51.5%)" stroke-width="1.5"></path><path d="M819.44 408.14L972.33 408.97" stroke="hsl(228.5, 77.2%, 51.5%)" stroke-width="1.5"></path><path d="M819.44 408.14L945.94 523.63" stroke="hsl(228.5, 77.2%, 51.5%)" stroke-width="1.5"></path><path d="M819.44 408.14L646.57 520.47" stroke="hsl(228.5, 77.2%, 51.5%)" stroke-width="1.5"></path><path d="M819.44 408.14L712 657.93" stroke="hsl(228.5, 77.2%, 51.5%)" stroke-width="1.5"></path><path d="M841.97 507.98L841.97 507.98" stroke="hsl(228.5, 77.2%, 51.5%)" stroke-width="1.5"></path><path d="M841.97 507.98L945.94 523.63" stroke="hsl(228.5, 77.2%, 51.5%)" stroke-width="1.5"></path><path d="M841.97 507.98L972.33 408.97" stroke="hsl(228.5, 77.2%, 51.5%)" stroke-width="1.5"></path><path d="M841.97 507.98L646.57 520.47" stroke="hsl(228.5, 77.2%, 51.5%)" stroke-width="1.5"></path><path d="M972.33 408.97L972.33 408.97" stroke="hsl(228.5, 77.2%, 51.5%)" stroke-width="1.5"></path><path d="M972.33 408.97L945.94 523.63" stroke="hsl(228.5, 77.2%, 51.5%)" stroke-width="1.5"></path><path d="M972.33 408.97L1129.23 379.34" stroke="hsl(228.5, 77.2%, 51.5%)" stroke-width="1.5"></path><path d="M972.33 408.97L1101.07 532.52" stroke="hsl(228.5, 77.2%, 51.5%)" stroke-width="1.5"></path><path d="M945.94 523.63L945.94 523.63" stroke="hsl(228.5, 77.2%, 51.5%)" stroke-width="1.5"></path><path d="M1145.61 90.83L1145.61 90.83" stroke="hsl(228.5, 77.2%, 51.5%)" stroke-width="1.5"></path><path d="M1145.61 90.83L1110.16 224.24" stroke="hsl(228.5, 77.2%, 51.5%)" stroke-width="1.5"></path><path d="M1110.16 224.24L1110.16 224.24" stroke="hsl(228.5, 77.2%, 51.5%)" stroke-width="1.5"></path><path d="M1110.16 224.24L1129.23 379.34" stroke="hsl(228.5, 77.2%, 51.5%)" stroke-width="1.5"></path><path d="M1110.16 224.24L1268.34 374.36" stroke="hsl(228.5, 77.2%, 51.5%)" stroke-width="1.5"></path><path d="M1129.23 379.34L1129.23 379.34" stroke="hsl(228.5, 77.2%, 51.5%)" stroke-width="1.5"></path><path d="M1129.23 379.34L1268.34 374.36" stroke="hsl(228.5, 77.2%, 51.5%)" stroke-width="1.5"></path><path d="M1128.9 700.8L1128.9 700.8" stroke="hsl(228.5, 77.2%, 51.5%)" stroke-width="1.5"></path><path d="M1128.9 700.8L1268.16 642.62" stroke="hsl(228.5, 77.2%, 51.5%)" stroke-width="1.5"></path><path d="M1295.77 -54.42L1295.77 -54.42" stroke="hsl(228.5, 77.2%, 51.5%)" stroke-width="1.5"></path><path d="M1295.77 -54.42L1421.91 81.63" stroke="hsl(228.5, 77.2%, 51.5%)" stroke-width="1.5"></path><path d="M1295.77 -54.42L1145.61 90.83" stroke="hsl(228.5, 77.2%, 51.5%)" stroke-width="1.5"></path><path d="M1295.77 -54.42L1593.41 -93.35" stroke="hsl(228.5, 77.2%, 51.5%)" stroke-width="1.5"></path><path d="M1268.34 374.36L1268.34 374.36" stroke="hsl(228.5, 77.2%, 51.5%)" stroke-width="1.5"></path><path d="M1268.34 374.36L1423.06 346.67" stroke="hsl(228.5, 77.2%, 51.5%)" stroke-width="1.5"></path><path d="M1268.34 374.36L1309.98 530.4" stroke="hsl(228.5, 77.2%, 51.5%)" stroke-width="1.5"></path><path d="M1268.34 374.36L1407.8 488.04" stroke="hsl(228.5, 77.2%, 51.5%)" stroke-width="1.5"></path><path d="M1268.34 374.36L1101.07 532.52" stroke="hsl(228.5, 77.2%, 51.5%)" stroke-width="1.5"></path><path d="M1309.98 530.4L1309.98 530.4" stroke="hsl(228.5, 77.2%, 51.5%)" stroke-width="1.5"></path><path d="M1309.98 530.4L1407.8 488.04" stroke="hsl(228.5, 77.2%, 51.5%)" stroke-width="1.5"></path><path d="M1309.98 530.4L1268.16 642.62" stroke="hsl(228.5, 77.2%, 51.5%)" stroke-width="1.5"></path><path d="M1309.98 530.4L1401.22 654.61" stroke="hsl(228.5, 77.2%, 51.5%)" stroke-width="1.5"></path><path d="M1309.98 530.4L1101.07 532.52" stroke="hsl(228.5, 77.2%, 51.5%)" stroke-width="1.5"></path><path d="M1309.98 530.4L1423.06 346.67" stroke="hsl(228.5, 77.2%, 51.5%)" stroke-width="1.5"></path><path d="M1268.16 642.62L1268.16 642.62" stroke="hsl(228.5, 77.2%, 51.5%)" stroke-width="1.5"></path><path d="M1268.16 642.62L1401.22 654.61" stroke="hsl(228.5, 77.2%, 51.5%)" stroke-width="1.5"></path><path d="M1268.16 642.62L1101.07 532.52" stroke="hsl(228.5, 77.2%, 51.5%)" stroke-width="1.5"></path><path d="M1268.16 642.62L1407.8 488.04" stroke="hsl(228.5, 77.2%, 51.5%)" stroke-width="1.5"></path><path d="M1421.91 81.63L1421.91 81.63" stroke="hsl(228.5, 77.2%, 51.5%)" stroke-width="1.5"></path><path d="M1421.91 81.63L1458.91 236.91" stroke="hsl(228.5, 77.2%, 51.5%)" stroke-width="1.5"></path><path d="M1458.91 236.91L1458.91 236.91" stroke="hsl(228.5, 77.2%, 51.5%)" stroke-width="1.5"></path><path d="M1458.91 236.91L1423.06 346.67" stroke="hsl(228.5, 77.2%, 51.5%)" stroke-width="1.5"></path><path d="M1458.91 236.91L1597.79 206.08" stroke="hsl(228.5, 77.2%, 51.5%)" stroke-width="1.5"></path><path d="M1423.06 346.67L1423.06 346.67" stroke="hsl(228.5, 77.2%, 51.5%)" stroke-width="1.5"></path><path d="M1423.06 346.67L1407.8 488.04" stroke="hsl(228.5, 77.2%, 51.5%)" stroke-width="1.5"></path><path d="M1423.06 346.67L1605.71 402.48" stroke="hsl(228.5, 77.2%, 51.5%)" stroke-width="1.5"></path><path d="M1407.8 488.04L1407.8 488.04" stroke="hsl(228.5, 77.2%, 51.5%)" stroke-width="1.5"></path><path d="M1407.8 488.04L1401.22 654.61" stroke="hsl(228.5, 77.2%, 51.5%)" stroke-width="1.5"></path><path d="M1401.22 654.61L1401.22 654.61" stroke="hsl(228.5, 77.2%, 51.5%)" stroke-width="1.5"></path><path d="M1401.22 654.61L1604.88 557.06" stroke="hsl(228.5, 77.2%, 51.5%)" stroke-width="1.5"></path><path d="M1401.22 654.61L1128.9 700.8" stroke="hsl(228.5, 77.2%, 51.5%)" stroke-width="1.5"></path><path d="M1401.22 654.61L1423.06 346.67" stroke="hsl(228.5, 77.2%, 51.5%)" stroke-width="1.5"></path><path d="M1597.79 206.08L1597.79 206.08" stroke="hsl(228.5, 77.2%, 51.5%)" stroke-width="1.5"></path><path d="M1597.79 206.08L1605.71 402.48" stroke="hsl(228.5, 77.2%, 51.5%)" stroke-width="1.5"></path><path d="M1597.79 206.08L1421.91 81.63" stroke="hsl(228.5, 77.2%, 51.5%)" stroke-width="1.5"></path><path d="M1597.79 206.08L1423.06 346.67" stroke="hsl(228.5, 77.2%, 51.5%)" stroke-width="1.5"></path><path d="M1605.71 402.48L1605.71 402.48" stroke="hsl(228.5, 77.2%, 51.5%)" stroke-width="1.5"></path><path d="M1605.71 402.48L1604.88 557.06" stroke="hsl(228.5, 77.2%, 51.5%)" stroke-width="1.5"></path><path d="M1604.88 557.06L1604.88 557.06" stroke="hsl(228.5, 77.2%, 51.5%)" stroke-width="1.5"></path><path d="M1604.88 557.06L1407.8 488.04" stroke="hsl(228.5, 77.2%, 51.5%)" stroke-width="1.5"></path><path d="M1604.88 557.06L1423.06 346.67" stroke="hsl(228.5, 77.2%, 51.5%)" stroke-width="1.5"></path><path d="M1604.88 557.06L1309.98 530.4" stroke="hsl(228.5, 77.2%, 51.5%)" stroke-width="1.5"></path><circle r="25" cx="405.98" cy="651.78" fill="url(#SvgjsRadialGradient1009)"></circle><circle r="25" cx="539.78" cy="517.04" fill="url(#SvgjsRadialGradient1009)"></circle><circle r="25" cx="859.22" cy="709.74" fill="url(#SvgjsRadialGradient1009)"></circle><circle r="25" cx="1003.63" cy="232.42" fill="url(#SvgjsRadialGradient1009)"></circle><circle r="25" cx="1101.07" cy="532.52" fill="url(#SvgjsRadialGradient1009)"></circle><circle r="25" cx="1293" cy="84.14" fill="url(#SvgjsRadialGradient1009)"></circle><circle r="25" cx="1405.59" cy="-82.86" fill="url(#SvgjsRadialGradient1009)"></circle><circle r="25" cx="1593.41" cy="-93.35" fill="url(#SvgjsRadialGradient1009)"></circle><circle r="25" cx="1579.12" cy="94.29" fill="url(#SvgjsRadialGradient1009)"></circle><circle r="5" cx="-110.62" cy="527.27" fill="#8b9ad9"></circle><circle r="5" cx="76.28" cy="521.54" fill="#8b9ad9"></circle><circle r="5" cx="199" cy="703.33" fill="#8b9ad9"></circle><circle r="5" cx="388.29" cy="503.81" fill="#8b9ad9"></circle><circle r="5" cx="504.74" cy="408.99" fill="#8b9ad9"></circle><circle r="5" cx="527.39" cy="640.73" fill="#8b9ad9"></circle><circle r="5" cx="646.57" cy="520.47" fill="#8b9ad9"></circle><circle r="5" cx="712" cy="657.93" fill="#8b9ad9"></circle><circle r="5" cx="819.44" cy="408.14" fill="#8b9ad9"></circle><circle r="5" cx="841.97" cy="507.98" fill="#8b9ad9"></circle><circle r="5" cx="972.33" cy="408.97" fill="#8b9ad9"></circle><circle r="5" cx="945.94" cy="523.63" fill="#8b9ad9"></circle><circle r="5" cx="1145.61" cy="90.83" fill="#8b9ad9"></circle><circle r="5" cx="1110.16" cy="224.24" fill="#8b9ad9"></circle><circle r="5" cx="1129.23" cy="379.34" fill="#8b9ad9"></circle><circle r="5" cx="1128.9" cy="700.8" fill="#8b9ad9"></circle><circle r="5" cx="1295.77" cy="-54.42" fill="#8b9ad9"></circle><circle r="5" cx="1268.34" cy="374.36" fill="#8b9ad9"></circle><circle r="5" cx="1309.98" cy="530.4" fill="#8b9ad9"></circle><circle r="5" cx="1268.16" cy="642.62" fill="#8b9ad9"></circle><circle r="5" cx="1421.91" cy="81.63" fill="#8b9ad9"></circle><circle r="5" cx="1458.91" cy="236.91" fill="#8b9ad9"></circle><circle r="5" cx="1423.06" cy="346.67" fill="#8b9ad9"></circle><circle r="5" cx="1407.8" cy="488.04" fill="#8b9ad9"></circle><circle r="5" cx="1401.22" cy="654.61" fill="#8b9ad9"></circle><circle r="5" cx="1597.79" cy="206.08" fill="#8b9ad9"></circle><circle r="5" cx="1605.71" cy="402.48" fill="#8b9ad9"></circle><circle r="5" cx="1604.88" cy="557.06" fill="#8b9ad9"></circle></g><defs><mask id="SvgjsMask1008"><rect width="1440" height="560" fill="#ffffff"></rect></mask><radialGradient id="SvgjsRadialGradient1009"><stop stop-color="#ffffff" offset="0.1"></stop><stop stop-color="#1735b3" offset="0.2"></stop><stop stop-color="rgba(23, 53, 179, 0)" offset="1"></stop></radialGradient></defs></svg>