<svg width="24" height="25" viewBox="0 0 24 25" fill="none" xmlns="http://www.w3.org/2000/svg">
<path fill-rule="evenodd" clip-rule="evenodd" d="M8.26277 10.5398C8.52981 10.2953 8.96275 10.2953 9.22978 10.5398C9.32949 10.6311 9.42714 10.7203 9.52274 10.8077C11.35 12.4781 12.4321 13.4673 12.9801 14.872C13.2684 15.611 13.4019 16.4384 13.4675 17.4961C13.5327 18.5467 13.5327 19.868 13.5327 21.6033V21.6239C13.5327 21.9696 13.2266 22.2499 12.8489 22.2499C12.4713 22.2499 12.1652 21.9696 12.1652 21.6239C12.1652 19.8639 12.1649 18.5781 12.1022 17.5671C12.0396 16.5592 11.9167 15.8685 11.6922 15.2931C11.2499 14.1594 10.3863 13.3689 8.35621 11.5106C8.32533 11.4823 8.29419 11.4538 8.26277 11.425C7.99574 11.1806 7.99574 10.7842 8.26277 10.5398Z" fill="black"/>
<path fill-rule="evenodd" clip-rule="evenodd" d="M16.8691 7.55642C17.0478 7.86097 16.923 8.24048 16.5903 8.40409C16.0156 8.68674 15.2623 9.22799 14.6409 11.0717C14.0065 12.9537 13.5316 16.135 13.5316 21.624C13.5316 21.9697 13.2255 22.25 12.8478 22.25C12.4702 22.25 12.1641 21.9697 12.1641 21.624C12.1641 16.0959 12.6389 12.7652 13.3341 10.7026C14.0422 8.60174 14.9984 7.76585 15.9431 7.30122C16.2758 7.13761 16.6904 7.25187 16.8691 7.55642Z" fill="black"/>
<path fill-rule="evenodd" clip-rule="evenodd" d="M14.7283 5.65878C13.2371 6.81062 12.3822 8.29751 12.1476 9.24326C12.064 9.58039 11.6976 9.79161 11.3294 9.71504C10.9611 9.63846 10.7304 9.3031 10.814 8.96597C11.1181 7.74035 12.1406 6.01953 13.8465 4.70192C15.5755 3.36646 18.0264 2.43148 21.153 2.85155C21.5266 2.90175 21.7851 3.21973 21.7302 3.56178C21.6754 3.90383 21.3281 4.14042 20.9544 4.09022C18.2627 3.72859 16.1965 4.52479 14.7283 5.65878Z" fill="#44AA0E"/>
<path fill-rule="evenodd" clip-rule="evenodd" d="M20.8879 2.85164C21.2614 2.8007 21.6093 3.0366 21.6649 3.37854C21.8875 4.74611 21.6799 6.56229 20.989 8.17503C20.3 9.78321 19.0757 11.3065 17.168 11.8892C16.8097 11.9986 16.4225 11.8215 16.3029 11.4935C16.1834 11.1656 16.3769 10.8111 16.7351 10.7016C18.1062 10.2828 19.1041 9.14569 19.7159 7.71791C20.3256 6.29469 20.4972 4.69934 20.3123 3.56302C20.2566 3.22108 20.5143 2.90259 20.8879 2.85164Z" fill="#44AA0E"/>
<path fill-rule="evenodd" clip-rule="evenodd" d="M8.73458 7.10655C9.67985 7.53643 10.2461 8.35957 10.8726 9.3391C11.0668 9.64271 11.4941 9.76762 11.827 9.61809C12.16 9.46856 12.2725 9.10122 12.0783 8.79761L12.0719 8.78767C11.4811 7.86391 10.716 6.66766 9.30597 6.02644C7.85225 5.36532 5.92249 5.37137 3.17839 6.35145C2.83068 6.47564 2.68362 6.83153 2.84992 7.14635C3.01622 7.46118 3.4329 7.61572 3.78061 7.49153C6.36889 6.5671 7.82799 6.69426 8.73458 7.10655Z" fill="#44AA0E"/>
<path fill-rule="evenodd" clip-rule="evenodd" d="M3.32432 6.25939C2.94566 6.29899 2.69699 6.60356 2.7689 6.93967C2.79668 7.06954 2.82664 7.21588 2.85943 7.37606C3.07957 8.45148 3.42738 10.1506 4.10248 11.6733C4.85892 13.3794 6.17763 15.1956 8.52384 15.3494C8.90927 15.3746 9.22308 15.1215 9.22475 14.7841C9.22642 14.4466 8.91533 14.1525 8.52991 14.1272C7.12668 14.0352 6.13048 12.9504 5.39874 11.3C4.78064 9.90585 4.45954 8.34403 4.23631 7.25823C4.20221 7.09237 4.17039 6.93761 4.14015 6.79626C4.06824 6.46015 3.70298 6.21979 3.32432 6.25939Z" fill="#44AA0E"/>
</svg>
